<?xml version="1.0" encoding="UTF-8" standalone="no"?>
<!-- Created with Inkscape (http://www.inkscape.org/) -->

<svg
   xmlns:dc="http://purl.org/dc/elements/1.1/"
   xmlns:cc="http://creativecommons.org/ns#"
   xmlns:rdf="http://www.w3.org/1999/02/22-rdf-syntax-ns#"
   xmlns:svg="http://www.w3.org/2000/svg"
   xmlns="http://www.w3.org/2000/svg"
   xmlns:xlink="http://www.w3.org/1999/xlink"
   xmlns:sodipodi="http://sodipodi.sourceforge.net/DTD/sodipodi-0.dtd"
   xmlns:inkscape="http://www.inkscape.org/namespaces/inkscape"
   width="400"
   height="300"
   viewBox="0 0 400 300"
   id="svg2"
   version="1.1"
   inkscape:version="0.91 r13725"
   sodipodi:docname="urho3d.svg"
   inkscape:export-filename="/home/frode/Git/Branch/Urho3D/bin/Data/Textures/FishBoneLogo.png"
   inkscape:export-xdpi="90"
   inkscape:export-ydpi="90">
  <defs
     id="defs4">
    <linearGradient
       id="linearGradient4883"
       inkscape:collect="always">
      <stop
         id="stop4895"
         offset="0"
         style="stop-color:#00413d;stop-opacity:1" />
      <stop
         style="stop-color:#003501;stop-opacity:1"
         offset="0.5"
         id="stop4897" />
      <stop
         id="stop4899"
         offset="1"
         style="stop-color:#527027;stop-opacity:1" />
    </linearGradient>
    <linearGradient
       inkscape:collect="always"
       id="linearGradient4979">
      <stop
         style="stop-color:#f5fdff;stop-opacity:1"
         offset="0"
         id="stop4981" />
      <stop
         id="stop4987"
         offset="0.48538384"
         style="stop-color:#f3f2f1;stop-opacity:1" />
      <stop
         style="stop-color:#c7ff59;stop-opacity:1"
         offset="1"
         id="stop4983" />
    </linearGradient>
    <radialGradient
       inkscape:collect="always"
       xlink:href="#linearGradient4979"
       id="radialGradient4753"
       gradientUnits="userSpaceOnUse"
       gradientTransform="matrix(2.6741681,0.00850005,-0.00311769,0.98084712,763.71131,1.9109267)"
       cx="-457.18112"
       cy="-211.33865"
       fx="-457.18112"
       fy="-211.33865"
       r="163.5598" />
    <filter
       inkscape:collect="always"
       style="color-interpolation-filters:sRGB"
       id="filter4848"
       x="-0.02628902"
       width="1.052578"
       y="-0.057087854"
       height="1.1141757">
      <feGaussianBlur
         inkscape:collect="always"
         stdDeviation="3.4532275"
         id="feGaussianBlur4850" />
    </filter>
    <linearGradient
       inkscape:collect="always"
       xlink:href="#linearGradient4883"
       id="linearGradient4889"
       x1="-469.97574"
       y1="-133.67778"
       x2="-469.97574"
       y2="-272.8399"
       gradientUnits="userSpaceOnUse"
       spreadMethod="reflect"
       gradientTransform="matrix(1.0631594,0,0,1.0631594,27.847453,15.420642)" />
    <radialGradient
       inkscape:collect="always"
       xlink:href="#linearGradient4979"
       id="radialGradient5626"
       gradientUnits="userSpaceOnUse"
       gradientTransform="matrix(2.0111645,0,0,0.980852,461.25749,-1.9740938)"
       cx="-457.18112"
       cy="-211.33865"
       fx="-457.18112"
       fy="-211.33865"
       r="163.5598" />
    <radialGradient
       inkscape:collect="always"
       xlink:href="#linearGradient4979"
       id="radialGradient5628"
       gradientUnits="userSpaceOnUse"
       gradientTransform="matrix(2.0111645,0,0,0.980852,461.25749,-1.9740938)"
       cx="-457.18112"
       cy="-211.33865"
       fx="-457.18112"
       fy="-211.33865"
       r="163.5598" />
    <radialGradient
       inkscape:collect="always"
       xlink:href="#linearGradient4979"
       id="radialGradient5630"
       gradientUnits="userSpaceOnUse"
       gradientTransform="matrix(2.0111645,0,0,0.980852,461.25749,-1.9740938)"
       cx="-457.18112"
       cy="-211.33865"
       fx="-457.18112"
       fy="-211.33865"
       r="163.5598" />
    <radialGradient
       inkscape:collect="always"
       xlink:href="#linearGradient4979"
       id="radialGradient5632"
       gradientUnits="userSpaceOnUse"
       gradientTransform="matrix(2.0111645,0,0,0.980852,461.25749,-1.9740938)"
       cx="-457.18112"
       cy="-211.33865"
       fx="-457.18112"
       fy="-211.33865"
       r="163.5598" />
    <radialGradient
       inkscape:collect="always"
       xlink:href="#linearGradient4979"
       id="radialGradient5634"
       gradientUnits="userSpaceOnUse"
       gradientTransform="matrix(2.0111645,0,0,0.980852,461.25749,-1.9740938)"
       cx="-457.18112"
       cy="-211.33865"
       fx="-457.18112"
       fy="-211.33865"
       r="163.5598" />
    <filter
       inkscape:collect="always"
       style="color-interpolation-filters:sRGB"
       id="filter8033"
       x="-0.0089903573"
       width="1.0179807"
       y="-0.018038695"
       height="1.0360774">
      <feGaussianBlur
         inkscape:collect="always"
         stdDeviation="1.197756"
         id="feGaussianBlur8035" />
    </filter>
  </defs>
  <sodipodi:namedview
     id="base"
     pagecolor="#808080"
     bordercolor="#666666"
     borderopacity="1.0"
     inkscape:pageopacity="0"
     inkscape:pageshadow="2"
     inkscape:zoom="1.4142136"
     inkscape:cx="217.21314"
     inkscape:cy="114.59116"
     inkscape:document-units="px"
     inkscape:current-layer="g4148"
     showgrid="false"
     showborder="true"
     inkscape:snap-global="false"
     inkscape:window-width="1920"
     inkscape:window-height="1061"
     inkscape:window-x="-5"
     inkscape:window-y="0"
     inkscape:window-maximized="0"
     fit-margin-top="0"
     fit-margin-left="0"
     fit-margin-right="0"
     fit-margin-bottom="0"
     units="px"
     inkscape:showpageshadow="false" />
  <metadata
     id="metadata7">
    <rdf:RDF>
      <cc:Work
         rdf:about="">
        <dc:format>image/svg+xml</dc:format>
        <dc:type
           rdf:resource="http://purl.org/dc/dcmitype/StillImage" />
        <dc:title />
      </cc:Work>
    </rdf:RDF>
  </metadata>
  <g
     inkscape:label="Layer 1"
     inkscape:groupmode="layer"
     id="layer1"
     transform="translate(636.74486,378.10348)">
    <g
       id="g4148"
       transform="matrix(0.91037678,0,0,0.91037678,-21.117957,-36.427409)">
      <g
         id="g8080">
        <path
           sodipodi:nodetypes="scscscsscscsscsccccsssscsssscsssscssscssssssscssssscsccssssccssscsssccssssscsssssssssscccssssssccssssss"
           inkscape:connector-curvature="0"
           id="path4828"
           d="m -384.2439,-293.88063 c -16.62568,-0.62716 -16.21099,-1.05151 -23.89173,-1.72117 -0.50686,7.12929 2.03471,9.10251 13.64728,10.91062 11.61257,1.80811 35.4493,2.84666 51.97135,9.52899 -4.03813,21.48972 -15.82376,41.56384 -29.50702,57.12703 -1.54874,1.76153 -2.73071,2.40888 -3.97723,4.74367 0.74321,-15.45303 -1.67671,-34.02711 -12.43173,-44.2491 -7.8025,-7.4158 -21.81216,-1.77261 -25.00712,8.40711 -3.46901,11.0529 -2.50786,23.01662 -7.38208,33.72858 -1.53986,-6.7772 -7.69673,-12.3155 -15.53585,-9.47736 -5.79805,2.09917 -11.59694,-4.6659 -17.54963,-0.92004 -0.0593,-19.12346 -0.39846,-38.7309 -8.70176,-56.82965 -1.93098,-4.20899 -5.53967,-11.69207 -11.48281,-13.01366 -3.24417,-0.72142 -7.8997,-1.06861 -10.43965,1.33938 3.25129,4.85774 6.54848,9.98245 7.78905,15.91765 3.59156,17.18287 0.55129,34.77537 -0.14551,52.06367 -3.70431,0.27983 -5.76653,3.71394 -8.62147,5.60317 -2.67509,-3.98625 -7.70963,-4.99816 -12.19837,-5.17601 -2.57986,-7.01302 -14.85458,-7.27638 -16.76414,0.32546 -3.12988,1.48236 -3.65432,-2.14078 -3.21077,-4.74729 1.14251,-6.71374 1.49111,-16.95069 -6.0225,-20.23933 -6.95279,-3.04318 -16.43493,2.63476 -15.58437,10.94504 0.30818,3.01112 1.4059,8.81684 -2.04506,9.892 -2.77386,0.86422 -3.87793,-0.0841 -5.34768,2.00257 -1.4628,-3.87202 -5.58877,-7.50899 -6.09441,-24.43749 -0.15344,-5.13688 -6.90648,-10.98137 -11.76077,-6.95318 -5.17951,4.29804 -2.5441,11.84081 -3.71056,17.7349 -1.76162,8.90139 -6.05465,16.9395 -9.0292,25.41001 -2.96055,8.43065 -0.31793,18.08935 -3.78187,26.52628 -11.30794,-3.61337 -20.82793,-17.53865 -14.66589,-28.71998 5.76363,-10.45837 8.78927,-21.73265 13.93988,-32.43771 3.45521,-7.18135 9.43936,-12.51211 14.27314,-18.70436 5.00028,-6.40555 7.9135,-14.75686 15.59689,-18.79043 3.38338,-1.77618 8.109,-2.33749 10.51319,-4.90376 -8.17269,-5.68609 -20.02394,-2.85603 -32.27028,2.2469 -7.88228,3.28447 -15.06058,8.26392 -21.779,13.50176 -16.0707,12.52913 -22.89335,32.75613 -33.98977,49.30953 -3.82059,5.69946 -10.77798,12.8036 -4.35962,21.41624 -1.86687,2.16689 -2.6759,6.28425 -1.67551,10.91065 2.17765,10.07079 6.86506,5.36715 8.61933,14.91365 1.77733,9.67205 11.16843,18.74188 19.83934,24.61995 11.39397,7.72405 24.5257,12.32581 37.3352,17.14749 7.95962,2.99612 16.75494,-4.00457 17.9703,-12.3476 0.70418,-4.83401 5.45603,-7.2883 8.03494,-11.0086 4.82386,-6.95882 1.28199,-17.58233 -7.01296,-22.0184 -6.47108,-3.46068 2.10987,-9.69401 2.42759,-13.21033 0.71129,1.94265 2.10253,3.14279 5.37867,3.31676 3.6828,0.19557 3.79459,2.96695 3.99694,6.37035 1.00964,16.98144 6.71857,35.15839 -0.43367,51.3485 -2.22377,5.03381 3.66404,6.48432 7.17837,6.31788 4.36243,-0.20662 6.58402,-5.8646 7.66231,-8.13798 4.97481,-10.48853 10.74357,-33.21316 8.88734,-50.51797 -0.49155,-3.86262 3.53261,1.43468 5.88808,1.73702 4.0649,0.52177 7.40204,-1.68532 10.51319,-2.77734 5.6394,0.33932 10.86919,-2.94091 14.11355,-7.37597 0.84018,4.93662 7.5959,5.38923 7.13364,11.20948 -1.42075,17.88804 -1.27243,36.28651 -7.02724,53.46721 -0.59866,1.78728 -4.49454,5.09027 -0.0141,4.40931 5.20601,-0.79123 11.2519,-0.99562 13.87728,-6.49036 7.96142,-16.66266 13.3609,-34.43885 16.1993,-52.63792 3.18042,1.54083 6.78129,1.47382 10.15174,0.71194 1.79749,16.58706 -0.96717,33.76885 -7.49802,48.99531 -1.02962,2.40052 -0.52652,4.71348 2.43623,4.1308 5.47738,-1.07725 10.07028,-3.85715 12.94528,-8.90908 5.9078,-10.38114 11.90501,-22.09812 14.55286,-37.40052 0.11008,4.83528 1.4235,7.82259 2.10849,10.16396 1.62563,5.55663 7.51336,13.21458 15.22033,11.62999 8.03315,-1.65167 13.02759,-9.15491 17.42758,-15.24326 4.89368,-6.77146 7.6845,-14.71524 9.92017,-22.69905 4.36349,6.48052 12.22733,8.32908 19.56495,8.634 -1.62225,6.86079 0.61468,15.84563 8.04723,16.31038 2.70701,0.16927 4.04391,0.51459 5.26989,3.07932 2.94598,6.1629 8.76131,15.16969 3.05742,20.80732 -5.17205,5.11198 -13.8892,3.14674 -20.70219,4.84882 -9.55909,2.38814 -19.4173,1.3809 -29.13962,0.49775 -9.48978,-0.86203 -19.39973,2.65568 -26.71091,8.4869 4.44278,4.90698 11.90525,2.49347 17.75616,3.82569 12.95549,2.94989 25.72976,7.75544 39.34861,5.4868 9.10712,-1.51707 19.2856,-2.10816 27.78621,3.18787 5.40065,3.36469 12.04521,-2.44954 12.28319,-8.82757 0.38162,-10.22785 6.42235,-20.71292 3.14158,-30.59963 -2.23635,-6.73933 3.01202,-3.11909 6.27345,-1.75477 7.23274,3.02558 17.16151,4.47113 21.95052,-2.65141 9.48933,-14.11316 11.38982,-31.84454 12.04972,-48.28807 0.54147,-13.4923 -0.82259,-28.40353 -8.76855,-39.80429 -6.08964,-8.73734 -19.04721,-4.92432 -27.45021,-2.02863 -4.88274,1.6826 -9.52123,4.18915 -13.84366,5.95445 6.25995,-12.51252 17.78417,-27.30691 24.16515,-33.99614 6.38098,-6.68922 6.19183,-9.74318 2.87904,-12.86336 -3.31278,-3.12017 -6.56403,-2.87202 -8.00654,-2.7789 -1.44252,0.0931 -58.92523,5.11471 -75.55092,4.48756 z m 76.3724,60.39411 c 5.4251,-0.18108 6.60178,6.71825 7.10215,10.83082 1.41591,11.6376 0.93606,23.94907 -3.3375,35.02415 -1.40606,3.64385 -5.14856,4.475 -8.71691,3.44388 -6.03796,-1.74472 -12.15435,-3.33642 -17.72175,-6.26034 0.44251,-12.63632 -1.00102,-25.62481 2.73196,-37.9157 6.32625,-2.63565 13.03985,-4.89241 19.94205,-5.12281 z m -93.16197,13.62537 c 4.4742,0.49667 4.28347,6.08783 4.83491,10.66496 0.65103,5.40381 0.59463,14.18914 -5.45141,15.76118 -4.40474,1.14529 -4.79845,-6.08141 -4.90219,-9.38191 -0.1746,-5.555 1.91813,-17.44392 5.51869,-17.04423 z"
           style="fill:url(#linearGradient4889);fill-opacity:1;fill-rule:evenodd;stroke:#0d1521;stroke-width:2.68570113;stroke-linecap:round;stroke-linejoin:round;stroke-miterlimit:4;stroke-dasharray:none;stroke-opacity:1" />
        <g
           id="g8050">
          <path
             style="color:#000000;clip-rule:nonzero;display:inline;overflow:visible;visibility:visible;opacity:1;isolation:auto;mix-blend-mode:normal;color-interpolation:sRGB;color-interpolation-filters:linearRGB;solid-color:#000000;solid-opacity:1;fill:none;fill-opacity:1;fill-rule:nonzero;stroke:#0d1521;stroke-width:2.48688245;stroke-linecap:round;stroke-linejoin:miter;stroke-miterlimit:23;stroke-dasharray:none;stroke-dashoffset:0;stroke-opacity:1;marker:none;color-rendering:auto;image-rendering:auto;shape-rendering:auto;text-rendering:auto;enable-background:accumulate"
             d="m -327.57108,-248.68482 c -6.597,2.9009 -9.57984,4.2776 -15.29303,2.67965 -5.71318,-1.59796 -13.93462,0.59443 -13.15962,10.94159 1.10514,14.75505 0.60862,39.49165 -1.95979,47.87545"
             id="path8025"
             inkscape:connector-curvature="0"
             sodipodi:nodetypes="cssc" />
          <path
             style="color:#000000;clip-rule:nonzero;display:inline;overflow:visible;visibility:visible;opacity:1;isolation:auto;mix-blend-mode:normal;color-interpolation:sRGB;color-interpolation-filters:linearRGB;solid-color:#000000;solid-opacity:1;fill:none;fill-opacity:1;fill-rule:nonzero;stroke:#0d1521;stroke-width:2.48688245;stroke-linecap:round;stroke-linejoin:miter;stroke-miterlimit:23;stroke-dasharray:none;stroke-dashoffset:0;stroke-opacity:1;marker:none;color-rendering:auto;image-rendering:auto;shape-rendering:auto;text-rendering:auto;enable-background:accumulate"
             d="m -347.96337,-170.8186 c 4.60843,0.71293 6.6917,-1.47504 10.82665,-1.65942 4.18327,-0.18653 14.788,5.53138 21.66907,8.715"
             id="path8027"
             inkscape:connector-curvature="0"
             sodipodi:nodetypes="csc" />
          <path
             style="color:#000000;clip-rule:nonzero;display:inline;overflow:visible;visibility:visible;opacity:1;isolation:auto;mix-blend-mode:normal;color-interpolation:sRGB;color-interpolation-filters:linearRGB;solid-color:#000000;solid-opacity:1;fill:#0d1521;fill-opacity:1;fill-rule:nonzero;stroke:none;stroke-width:2.48688245;stroke-linecap:round;stroke-linejoin:miter;stroke-miterlimit:23;stroke-dasharray:none;stroke-dashoffset:0;stroke-opacity:1;marker:none;color-rendering:auto;image-rendering:auto;shape-rendering:auto;text-rendering:auto;enable-background:accumulate"
             d="M 116.55664 133.8125 C 117.00204 135.05463 116.71496 136.93542 115.2207 138.66992 C 113.72645 140.40441 113.6543 145.79687 113.6543 145.79688 C 114.63131 140.49266 116.39997 138.59213 117.57812 137.73047 C 118.75629 136.86882 118.224 135.71501 119.04297 134.80859 L 116.55664 133.8125 z M 172.88086 139.90039 C 172.32456 139.94513 172.06806 140.35309 172.67383 141.54297 C 174.2892 144.71598 172.85638 144.78019 173.63867 150.41406 C 173.63867 150.41406 173.13202 143.3235 175.57031 140.75977 C 175.57031 140.75977 173.80802 139.82582 172.88086 139.90039 z M 231.67969 143.76758 C 231.17196 143.72379 230.89208 144.11285 231.29883 145.46484 C 232.21117 148.49742 232.0169 150.72961 232.23242 156.75 C 232.44794 162.77039 230.80278 166.30027 229.95508 167.6543 C 229.10739 169.00832 230.1989 172.36661 229.88281 177.64844 C 229.56672 182.93027 232.51212 183.84651 232.38281 178.90039 C 232.2535 173.95427 230.24302 169.25465 231.43555 167.28516 C 232.62806 165.31566 232.71441 159.5195 232.64258 156.78906 C 232.57074 154.05863 232.24057 150.50506 234.00781 145.11133 C 234.00781 145.11133 232.5259 143.84056 231.67969 143.76758 z M 114.47461 155.39062 C 114.56082 158.75891 116.07117 160.05375 115.0293 162.28516 L 117.52344 161.22852 C 115.97172 158.84498 114.90565 158.64701 114.47461 155.39062 z M 173.67383 155.44336 C 173.57223 159.14652 173.91479 159.96193 172.88086 161.61523 C 172.19703 162.70871 175.31836 162.19336 175.31836 162.19336 C 174.04841 158.71966 173.79575 158.17325 173.67383 155.44336 z "
             transform="matrix(1.0984463,0,0,1.0984463,-676.23309,-375.31281)"
             id="path8037" />
          <path
             style="color:#000000;clip-rule:nonzero;display:inline;overflow:visible;visibility:visible;opacity:1;isolation:auto;mix-blend-mode:normal;color-interpolation:sRGB;color-interpolation-filters:linearRGB;solid-color:#000000;solid-opacity:1;fill:none;fill-opacity:1;fill-rule:nonzero;stroke:#0d1521;stroke-width:2.68570119;stroke-linecap:round;stroke-linejoin:miter;stroke-miterlimit:4;stroke-dasharray:none;stroke-dashoffset:0;stroke-opacity:1;marker:none;color-rendering:auto;image-rendering:auto;shape-rendering:auto;text-rendering:auto;enable-background:accumulate"
             d="m -375.92524,-213.57491 c -0.56915,8.75258 -0.79234,13.87201 -1.9418,18.99144"
             id="path8047"
             inkscape:connector-curvature="0" />
        </g>
      </g>
      <path
         sodipodi:nodetypes="cccccccccccccccsccccccccccccccccccccccccccccccccccccccccccccccccccccccccccccccccccccccccccccccccccccccccccccc"
         style="fill:#000000;fill-opacity:0.35294118;fill-rule:evenodd;stroke:none;stroke-width:2.52642655;stroke-linecap:butt;stroke-linejoin:miter;stroke-miterlimit:4;stroke-dasharray:none;stroke-opacity:1;filter:url(#filter8033)"
         d="m -392.5884,-109.52157 c 5.71559,5.50321 0.67483,10.988717 -8.7057,8.7072 -0.2822,2.322398 13.46723,3.373617 16.03759,2.831777 -1.58192,4.60829 6.1724,2.03574 6.54882,6.41797 1.67474,6.56862 2.88071,13.36154 3.53125,20.08008 0.0136,5.93284 -5.74203,9.71553 -11.30664,9.30664 -13.0323,2.06594 -26.1951,4.50712 -39.40495,2.49799 -2.28113,-0.17029 -11.51023,-0.26003 -5.76106,0.85357 10.84686,3.08899 22.35204,5.66747 33.50862,2.55572 8.42245,-1.13366 17.25953,0.29632 24.70622,4.25287 5.59301,-2.27736 3.01035,-10.24602 4.99935,-14.79598 1.75934,-9.05128 2.21412,-15.187557 1.10818,-24.404407 8.17821,2.79015 20.13943,8.923672 27.73622,-1.332813 7.57509,-23.679537 7.76706,-32.711497 9.84374,-49.613347 -0.26062,-13.12067 -2.76038,-28.85312 -10.63105,-34.08579 11.53778,30.51998 -3.14426,8.42863 -10.52799,11.70729 -7.38374,3.27867 -15.99003,6.67654 -22.37611,7.89029 -0.20044,-2.36033 -10.36007,-2.07882 -9.92872,-3.53822 z m 24.06438,-73.23197 c 6.4566,-9.8195 19.82276,-21.7124 19.3609,-27.53327 -2.06589,5.37871 -78.46488,6.55153 -102.48354,-0.44546 5.40307,6.21407 48.68791,9.15614 62.50314,15.09677 13.37729,-7.34587 11.1971,5.34972 11.32834,9.06697 1.50957,5.33508 -3.18667,11.87356 -3.75579,17.05913 4.42964,2.50166 7.92452,-5.8536 13.04695,-13.24414 z m -34.5078,53.23693 c -3.55849,1.54734 -9.81184,-2.30117 -11.3732,-5.03629 -5.63685,5.40065 -5.86413,-3.42252 -7.17188,-11.12305 -1.07925,-8.61909 -2.32163,-18.90376 -9.09961,-24.8457 -9.27552,-0.19225 -13.13529,10.87254 -13.01273,18.63407 0.15187,1.90805 -1.59644,6.46136 -0.55953,6.93624 4.14159,-2.43908 8.68788,0.0984 10.66992,3.95117 7.41119,0.84444 8.96513,10.26928 8.69141,16.5 0.98903,7.25326 -2.90046,17.69996 -11.57813,17.17578 -3.34486,0.26364 -4.39414,-3.52803 -6.46875,-4.91015 -6.0677,-0.46287 -8.59336,19.50863 -8.51059,15.16103 -1.18542,5.70133 -7.4926,-3.19345 -8.65334,-5.60514 -3.17304,-7.02938 -1.33754,-16.47599 -4.22305,-15.78843 0.85262,-7.58434 1.99811,-19.83373 -1.37196,-18.17302 -0.4707,-12.7236 -0.70923,-9.60539 -3.57672,1.43746 -3.67475,1.94948 -21.444,-3.80584 -19.50059,-6.11784 1.14849,-3.15453 -3.73669,2.28585 -5.57977,-0.13867 -2.52941,-3.66057 0.2054,-8.82192 -0.68817,-13.03121 2.03165,-24.09228 -3.94378,-42.00776 -16.0038,-59.42377 10.12642,20.0756 10.7298,52.3132 10.43807,69.76162 -1.08096,4.97038 -6.38362,13.42307 -9.98009,16.27434 -3.40256,2.06068 -12.68573,6.8435 -13.78738,-2.52413 0.25749,-8.94442 -0.53824,-11.10552 -4.03704,-12.37612 0.71844,7.28037 -3.34632,11.39761 -7.33249,8.25643 -3.82782,3.28132 -10.93585,-3.62216 -13.08566,-7.00748 -6.00425,-0.15263 -7.59533,-1.11569 -6.06448,-5.90244 -0.22612,-2.10813 1.22059,-17.42531 -0.72753,-18.34228 -5.25762,-6.06887 -4.29685,4.00525 -4.80297,18.49584 -0.93491,5.20168 -5.33491,7.63273 -10.15502,8.15904 -3.84061,-0.12295 -4.35675,-5.35622 -8.10742,-4.93359 -4.86913,-2.60428 -7.89588,-15.62394 -11.38237,-32.17357 -5.81053,-4.8256 -6.83525,42.1358 -6.27388,55.23216 -0.39792,6.60674 -1.51449,13.31777 -4.73828,19.1875 -11.97138,-5.57742 -26.59021,-12.79733 -28.8457,-27.35742 -1.75481,-11.81662 7.73723,-21.09421 10.39635,-31.96417 4.00634,-11.14989 9.84354,-21.82196 18.64662,-29.86982 7.33738,-12.05818 14.18573,-18.46326 21.92849,-20.37463 -18.23192,-0.38097 -31.14365,11.72177 -54.49035,49.67021 -5.42624,9.89978 -11.76058,19.5955 -16.8776,29.48958 0.55919,5.50799 1.67172,11.14705 0.0391,16.54102 1.22148,6.06853 2.84003,9.56305 3.4799,16.013181 3.52946,13.70131 22.05286,21.120874 34.08125,25.801994 4.07567,4.978958 10.0744,7.692179 18.96815,4.270752 6.04212,-1.70988 6.87509,-8.33206 8.6836,-13.20507 2.96292,-4.57354 9.47133,-8.00702 7.24609,-14.41211 -1.35399,-6.321997 -10.73884,-7.166447 -9.98438,-14.394527 -0.0865,-7.16017 4.91199,-12.90333 8.28711,-18.7793 -2.83475,5.45973 1.36393,5.11636 2.27641,8.5508 2.68174,0.25894 5.15231,0.64158 7.93648,0.94724 -0.93625,9.28253 5.47625,5.81927 9.39844,4.76954 0.44989,12.74772 2.77176,17.079306 1.35455,39.041738 5.34227,-15.94023 5.65959,-33.966748 4.28022,-50.588618 2.04144,13.54549 8.16826,12.59528 15.8301,10.91659 4.11541,-3.80237 9.60649,-1.19257 14.29061,-6.88826 3.31572,-0.0539 5.54054,-0.94415 7.13629,4.92196 1.28006,1.66147 0.9828,-0.50781 3.20393,-3.75693 5.21313,-1.32281 3.23114,6.73638 7.45118,7.97266 4.4778,3.23911 5.7436,8.95388 4.50781,14.07422 -2.22503,6.888932 -4.60969,15.810912 -5.18425,21.772082 4.33349,-12.86711 11.02022,-30.109742 12.4362,-43.592402 0.17533,6.83704 3.60744,9.77327 9.13086,7.83594 2.30965,4.2391 7.50545,1.08621 8.30469,4.42774 5.66725,-1.39551 7.8531,5.43462 7.01562,9.83398 0.27316,5.310717 -0.15754,10.634587 -0.91211,15.890617 4.44079,-8.05625 3.74882,-17.684497 7.11719,-25.980457 -1.14152,5.64885 -0.96494,10.701729 -0.0324,13.134609 0.68602,2.12855 3.27306,10.216137 5.88062,9.308277 7.1523,5.28545 10.66909,1.448784 12.5815,0.521951 14.94346,-7.23213 20.04904,-24.808967 24.34375,-39.511717 -1.00016,4.43497 -1.51199,6.77617 1.64083,8.65217 3.34153,2.07971 11.33634,4.37901 14.45914,4.87529 z m 58.87289,-24.91129 c -1.76545,5.06742 3.55881,1.77202 5.6582,4.66797 3.19145,5.3087 -0.0343,11.8928 0.9907,17.69114 -0.21843,11.03832 -1.31319,22.09616 -3.93601,32.838147 -10.33317,-1.302377 -20.82428,-3.488347 -29.88476,-8.857417 -0.057,-3.14294 -7.19456,-2.60508 -7.94806,-5.96413 -0.65682,-8.30936 -0.0249,-16.87843 0.47655,-25.3697 0.95532,-4.9624 -0.56695,-11.9581 5.63881,-12.97521 8.50651,-2.9474 16.87123,-10.91817 27.40946,-0.0251 1.55815,1.49872 1.58074,-2.7876 1.59514,-2.0057 z"
         id="path4852"
         inkscape:connector-curvature="0"
         inkscape:export-filename="/home/frode/Git/Urho3D/bin/Data/Textures/LogoLarge.png"
         inkscape:export-xdpi="71.655128"
         inkscape:export-ydpi="71.655128"
         inkscape:transform-center-x="-123.00165"
         inkscape:transform-center-y="-56.857089"
         transform="matrix(1.0631594,0,0,1.0631594,72.224743,-67.494829)" />
      <g
         id="g8072">
        <path
           sodipodi:nodetypes="ccsccsccccsscccccscssssssccs"
           inkscape:transform-center-y="-59.980036"
           inkscape:transform-center-x="-180.4827"
           inkscape:connector-curvature="0"
           inkscape:export-ydpi="71.655128"
           inkscape:export-xdpi="71.655128"
           inkscape:export-filename="/home/frode/Git/Urho3D/bin/Data/Textures/LogoLarge.png"
           id="path4243"
           d="m -309.16309,-294.06206 c -10.06794,-0.30837 -52.91602,6.72472 -93.44416,1.25679 -3.10341,8.58409 57.78529,5.54928 72.13593,11.17642 2.61081,1.02376 -9.23974,21.06255 -15.00269,33.87819 3.53859,0.2873 5.50607,1.99609 10.28679,0.74808 7.16486,-12.1066 15.25104,-24.38398 20.51117,-30.30394 5.81569,-6.54524 14.98374,-15.84778 6.39794,-16.70306 -0.27698,-0.0275 -0.57035,-0.0433 -0.88498,-0.0524 z m -47.70079,66.67594 c -3.07904,5.42052 -9.82405,14.03771 -13.73541,17.06978 -1.477,1.14497 -2.07846,9.11568 -1.02412,10.82519 3.81493,6.18543 9.11016,4.11892 13.51798,5.9536 0.95521,-5.04231 1.1284,-10.36645 1.16687,-14.15013 -0.48866,-0.41922 -1.18436,-0.89827 -1.82225,-1.17896 0,0 1.06258,-1.43278 2.0217,-3.29781 0.25299,-6.38078 -0.12477,-15.22167 -0.12477,-15.22167 z m 21.17878,56.15402 c -1.88369,-0.0712 -2.83331,0.14147 -3.73774,0.33373 6.99882,6.94645 8.10989,16.62832 6.37182,24.81918 -1.50938,7.11315 -6.37254,9.56611 -20.00582,9.52733 -15.60361,-0.0444 -24.59898,4.00318 -39.23386,1.29327 -7.4125,-1.37257 -17.12981,-1.01583 -20.21338,1.27959 -2.25854,1.68127 7.16779,-1.32532 18.63727,3.10887 27.87732,10.77761 51.02585,-2.83252 62.80474,5.49927 5.33546,3.77406 5.82704,-5.99498 8.64917,-25.08996 0.56061,-3.79293 -1.45585,-12.65746 -3.56903,-16.97487 -1.77345,-0.82432 -7.06781,-3.69679 -9.70317,-3.79641 z"
           style="color:#000000;clip-rule:nonzero;display:inline;overflow:visible;visibility:visible;opacity:1;isolation:auto;mix-blend-mode:normal;color-interpolation:sRGB;color-interpolation-filters:linearRGB;solid-color:#000000;solid-opacity:1;fill:url(#radialGradient4753);fill-opacity:1;fill-rule:evenodd;stroke:none;stroke-width:1.20951617px;stroke-linecap:butt;stroke-linejoin:miter;stroke-miterlimit:4;stroke-dasharray:none;stroke-dashoffset:0;stroke-opacity:1;marker:none;color-rendering:auto;image-rendering:auto;shape-rendering:auto;text-rendering:auto;enable-background:accumulate" />
        <path
           sodipodi:nodetypes="sssscsssssssssssssssssssssssssss"
           inkscape:transform-center-y="-1.5672762"
           inkscape:transform-center-x="78.516572"
           inkscape:connector-curvature="0"
           id="path4235"
           d="m -575.91385,-285.9733 c -7.18384,4.78375 -14.86856,8.78264 -21.38343,15.68662 -7.4487,7.89356 -12.77144,18.75448 -18.75764,28.51004 l -15.26119,24.87079 c -1.73932,2.83454 -0.45621,7.97687 2.61756,11.34185 -2.00821,3.20079 -2.90063,3.86075 -2.94884,7.43746 -0.116,8.60505 6.27976,2.52393 8.25655,15.27395 0.80928,5.21969 3.02036,7.15194 5.93521,11.07283 4.96275,6.67559 11.39855,10.62168 17.72267,14.06302 8.94345,4.86663 16.6964,6.71895 25.45424,12.36884 3.14403,2.0283 7.08594,2.46402 10.07935,-0.10025 3.49872,-2.99715 5.39433,-8.24632 7.65335,-12.80178 2.761,-5.56771 4.47435,-2.50878 5.86506,-9.11573 0.84333,-4.00654 -1.1421,-8.35532 -3.76632,-10.48091 -2.75623,-2.23255 -5.47283,-5.21862 -6.57508,-9.51025 -1.18543,-4.61564 0.30498,-9.70107 2.75655,-12.78722 1.23656,-1.55662 3.16421,-4.06398 2.92508,-5.67759 -0.50944,-3.43778 -1.33229,-6.51021 -0.93671,-9.75466 0.46165,-3.78657 1.32595,-9.53989 0.36516,-11.20794 -1.58765,-2.75638 -3.7775,-5.32062 -4.11408,-8.98972 -0.54884,-5.98315 0.27159,-12.03891 -0.62267,-17.98021 -0.23349,-1.55131 -2.09116,-0.79488 -2.38448,0.52349 -0.35602,1.6003 -0.59048,3.25752 -0.90538,4.87695 -3.45021,17.74306 -2.83229,21.59237 -9.06921,32.05249 -1.49211,2.50247 -1.26467,30.97267 -6.63179,33.07258 -7.92845,3.10204 -21.83396,-8.16677 -25.82658,-18.3842 -5.28557,-13.52623 4.27281,-24.80599 5.85397,-28.94747 2.27151,-5.94965 4.20369,-12.15067 6.79986,-17.83169 2.56458,-5.61193 5.68527,-10.72923 9.3763,-14.9525 8.60246,-9.84281 9.80382,-16.89897 20.19211,-24.10907 7.38072,-5.12265 14.30976,-5.39301 10.47736,-5.92307 -1.91917,-0.26543 -15.36842,2.22353 -23.14698,7.4033 z"
           style="fill:url(#radialGradient5626);fill-opacity:1;fill-rule:evenodd;stroke:none;stroke-width:1.20951617px;stroke-linecap:butt;stroke-linejoin:miter;stroke-opacity:1" />
        <path
           sodipodi:nodetypes="cscsssccssssssssscssssssssc"
           inkscape:transform-center-y="48.414273"
           inkscape:transform-center-x="176.03556"
           inkscape:connector-curvature="0"
           id="path4237"
           d="m -544.38226,-215.70159 c 1.16512,-6.02118 1.16022,-7.89057 3.77804,-7.73131 2.61786,0.15924 4.90292,1.02758 4.90292,1.02758 0,0 2.36007,-11.20399 1.9548,-17.08067 -0.40529,-5.87672 1.64313,-4.06795 4.48091,-4.87839 2.83776,-0.8104 3.76703,-0.23976 3.43613,11.88088 -0.33092,12.12064 -0.029,13.51659 -0.029,13.51659 5.78923,0.52945 7.92201,-0.67356 8.52235,2.48048 0.10472,-1.7358 0.004,-2.63046 1.67567,-2.73757 2.18722,-0.14023 3.94349,-0.066 5.18753,-2.72855 1.24404,-2.66254 2.47952,-3.38902 4.13946,-2.57709 1.65996,0.81194 0.40816,5.23134 2.74792,5.57201 2.33976,0.34067 10.10925,-1.08104 10.95885,1.85239 0.84959,2.9334 1.13769,14.40399 -0.97246,17.86191 -2.11013,3.45793 -7.25486,2.75449 -10.96604,2.1978 -2.0675,-0.31013 -2.34257,4.8233 -4.92499,3.62402 -2.58243,-1.19927 -0.96711,-4.22321 -3.06185,-4.24308 -2.09476,-0.0199 -5.05686,1.04248 -5.01462,-1.53923 0.0422,-2.58169 0.29745,2.39985 -2.35438,2.95788 -2.65183,0.55802 -4.92125,-1.75507 -4.14564,3.97541 0.77561,5.73047 1.55634,32.40631 -1.38495,42.18964 -2.94129,9.78334 -5.60448,17.8414 -8.31459,17.00538 -2.75336,-0.84935 3.81054,-9.01972 2.37001,-30.47875 -1.44055,-21.45903 -2.07912,-32.80336 -3.76559,-34.58309 -1.68646,-1.77977 -7.66962,-0.26414 -8.14208,-4.88549 -0.47243,-4.62135 -1.70111,-9.4605 -1.07836,-12.67875 z"
           style="color:#000000;clip-rule:nonzero;display:inline;overflow:visible;visibility:visible;opacity:1;isolation:auto;mix-blend-mode:normal;color-interpolation:sRGB;color-interpolation-filters:linearRGB;solid-color:#000000;solid-opacity:1;fill:url(#radialGradient5628);fill-opacity:1;fill-rule:evenodd;stroke:none;stroke-width:1.20951617px;stroke-linecap:butt;stroke-linejoin:miter;stroke-miterlimit:4;stroke-dasharray:none;stroke-dashoffset:0;stroke-opacity:1;marker:none;color-rendering:auto;image-rendering:auto;shape-rendering:auto;text-rendering:auto;enable-background:accumulate" />
        <path
           inkscape:transform-center-y="-8.5262827"
           inkscape:transform-center-x="48.145548"
           sodipodi:nodetypes="ssssssssssssssssssssssssssssssssssscsssssss"
           inkscape:connector-curvature="0"
           id="path4239"
           d="m -476.9578,-291.3855 c 0.32227,1.32348 2.49738,4.98836 3.63998,8.51989 4.09245,10.80868 3.73313,20.82671 3.9962,32.7131 0.21488,9.47985 -0.11121,18.03986 -0.97181,28.02768 -0.13497,1.56626 -1.42795,2.35073 -2.49974,2.63478 -1.14503,0.30805 -2.29174,-0.0336 -3.36715,-0.33077 -1.99403,0.41425 -2.66413,3.17202 -2.61536,5.40914 0.11186,5.13051 -1.05078,10.44766 0.0397,15.44408 1.43826,2.48531 4.44528,2.94233 6.76546,1.74306 1.33509,0.84366 0.61944,2.7432 0.65861,4.3243 -0.13669,13.19137 0.50511,24.22571 -1.63188,36.74108 -1.62257,9.50271 -3.33551,12.25432 -7.2346,22.55512 -0.53214,1.40578 0.70151,0.75765 1.94321,0.69263 1.3364,-0.07 1.79111,-2.38186 2.80323,-3.95168 4.82655,-8.38924 7.33659,-16.21506 9.441,-25.79602 2.20919,-10.45341 4.77099,-23.16442 4.91574,-34.21753 0.94052,-1.15591 2.17584,-0.11023 3.22509,-0.0191 0.95537,0.16601 2.0009,0.1668 2.89602,-0.43445 1.8391,1.63146 2.97482,2.00525 4.14582,4.3301 1.23106,1.42289 3.32845,0.35931 4.24449,-1.22576 1.46551,-1.82625 3.63854,-2.79867 5.66222,-2.69519 1.40355,0.17561 2.27911,1.71736 2.40267,3.34932 0.1837,2.42635 0.34924,7.75572 0.70363,10.03236 0.91793,7.22612 0.28188,14.70568 -1.26965,22.05333 -1.48253,6.38646 -4.27712,15.90281 -8.29139,23.5565 -0.72293,1.37832 2.26505,0.45421 3.21957,-0.58586 7.70655,-8.39741 12.17638,-24.55848 12.78202,-32.73668 0.49221,-6.64667 1.06713,-10.32021 0.9793,-16.535 -0.025,-1.77397 0.40693,-3.53049 1.29333,-5.02681 1.02848,-1.73609 1.75607,-3.7375 1.84421,-5.90006 0.2071,-5.08081 0.0394,-10.17862 -0.82194,-15.07002 -0.3121,-1.77227 -0.71306,-4.032 -2.1541,-4.73744 -2.04395,-1.00057 -4.40905,0.0282 -6.61066,0.21358 -3.358,0.28247 -6.85849,0.21779 -9.80393,-1.7515 -1.54742,-1.03462 -3.88432,-0.42489 -4.90043,1.65099 -0.44918,0.91764 -0.79172,1.9172 -0.8487,2.95674 -1.08535,0.0383 -0.87289,-1.60977 -1.28883,-2.39643 -1.0309,-1.94978 -3.26042,-2.0156 -5.1105,-1.43486 -1.21237,0.38057 -1.41631,-1.75434 -1.53297,-2.93094 -1.20859,-12.18867 -0.13473,-22.98862 -1.59932,-34.56256 -1.50534,-11.89614 -4.16477,-21.24073 -8.8034,-29.58334 -1.3442,-2.41757 -2.8284,-4.36421 -3.39771,-5.17666 -0.54202,-0.77348 -3.07088,-0.7668 -2.84743,0.15088 z"
           style="color:#000000;clip-rule:nonzero;display:inline;overflow:visible;visibility:visible;opacity:1;isolation:auto;mix-blend-mode:normal;color-interpolation:sRGB;color-interpolation-filters:linearRGB;solid-color:#000000;solid-opacity:1;fill:url(#radialGradient5630);fill-opacity:1;fill-rule:evenodd;stroke:none;stroke-width:1.20951617px;stroke-linecap:butt;stroke-linejoin:miter;stroke-miterlimit:4;stroke-dasharray:none;stroke-dashoffset:0;stroke-opacity:1;marker:none;color-rendering:auto;image-rendering:auto;shape-rendering:auto;text-rendering:auto;enable-background:accumulate" />
        <path
           style="color:#000000;clip-rule:nonzero;display:inline;overflow:visible;visibility:visible;opacity:1;isolation:auto;mix-blend-mode:normal;color-interpolation:sRGB;color-interpolation-filters:linearRGB;solid-color:#000000;solid-opacity:1;fill:url(#radialGradient5632);fill-opacity:1;fill-rule:evenodd;stroke:none;stroke-width:1.20951617px;stroke-linecap:butt;stroke-linejoin:miter;stroke-miterlimit:4;stroke-dasharray:none;stroke-dashoffset:0;stroke-opacity:1;marker:none;color-rendering:auto;image-rendering:auto;shape-rendering:auto;text-rendering:auto;enable-background:accumulate"
           d="m -397.85027,-255.48954 c -4.60216,0.0683 -8.1122,3.02431 -10.48871,11.67496 -2.92494,10.64692 0.71338,5.44431 -3.87163,22.02692 -2.67109,9.66058 -6.22598,21.54835 -3.81862,38.56361 1.77436,12.54115 5.62479,26.03914 19.38313,11.07287 19.00162,-20.66987 18.88849,-46.97587 15.4865,-60.50601 -3.40201,-13.5301 -7.04779,-21.08044 -13.32987,-22.45339 -1.1779,-0.25744 -2.29875,-0.39472 -3.3608,-0.37896 z m -1.37495,28.1945 c 0.0957,3.8e-4 0.19263,0.006 0.28853,0.0184 6.30237,0.82863 9.30472,12.82226 8.89591,21.67173 -0.81509,17.64451 -10.78156,27.04079 -15.80446,14.55609 -4.94411,-12.28886 0.5913,-36.26965 6.62002,-36.2463 z"
           id="path4241"
           inkscape:connector-curvature="0"
           sodipodi:nodetypes="ssssssssccssc" />
        <path
           style="color:#000000;clip-rule:nonzero;display:inline;overflow:visible;visibility:visible;opacity:1;isolation:auto;mix-blend-mode:normal;color-interpolation:sRGB;color-interpolation-filters:linearRGB;solid-color:#000000;solid-opacity:1;fill:url(#radialGradient5634);fill-opacity:1;fill-rule:evenodd;stroke:none;stroke-width:1.20951617px;stroke-linecap:butt;stroke-linejoin:miter;stroke-miterlimit:4;stroke-dasharray:none;stroke-dashoffset:0;stroke-opacity:1;marker:none;color-rendering:auto;image-rendering:auto;shape-rendering:auto;text-rendering:auto;enable-background:accumulate"
           d="m -299.67104,-252.68257 c -17.85481,0.986 -30.28532,14.4016 -41.80691,11.49803 -6.29551,-1.58654 -8.81019,2.67661 -8.40941,6.19168 1.62617,14.26245 1.42762,31.599 -0.30192,49.52759 -0.63005,6.53111 3.39338,9.43565 9.54253,6.79238 6.82567,-2.93408 15.01357,8.25583 40.71109,11.21986 18.16132,2.09477 25.69846,-86.63406 0.26462,-85.22954 z m -5.96671,12.06561 c 17.10871,-3.63064 16.59016,62.85955 0.6966,60.2967 -9.64061,-1.55455 -28.50391,-6.56968 -29.33744,-10.34556 -2.10084,-9.51677 0.0468,-40.54529 2.53322,-41.18062 2.72396,-0.69602 12.77025,-5.9402 26.10762,-8.77052 z"
           id="path4245"
           inkscape:connector-curvature="0"
           sodipodi:nodetypes="ssssssssssss" />
      </g>
      <path
         style="fill:#ffffff;fill-opacity:1;fill-rule:evenodd;stroke:none;stroke-width:1.20951617px;stroke-linecap:butt;stroke-linejoin:miter;stroke-opacity:1;filter:url(#filter4848)"
         d="m -319.60066,-292.08877 c -6.65048,1.74974 -18.7729,4.76902 -70.73684,4.34991 41.53342,2.89792 55.00837,5.72926 55.64309,11.53876 1.03909,5.43915 -9.64307,13.33131 -11.00604,16.80108 6.52914,-15.83608 20.10044,-24.23059 27.36151,-32.78936 l -0.9969,0.0787 z m -262.84428,19.24697 c -15.06062,12.15661 -21.44774,31.23311 -32.45233,46.4897 -1.36055,3.6517 -5.89176,7.26265 -4.68634,11.30327 1.98464,3.01314 3.99694,6.97836 0.7168,9.86133 -2.13315,2.5438 2.31438,3.23141 2.66601,5.64062 3.95329,5.89656 3.66,14.11493 9.68555,18.47461 10.98912,10.18245 26.04613,14.10161 38.82617,21.23243 6.94564,-1.49117 6.25297,-10.98973 11.28125,-15.04102 2.49168,-1.83971 3.61975,-5.4086 0.37891,-7.05078 -6.59759,-7.10629 -11.53303,-18.78631 -5.33594,-27.66016 1.84355,-2.49486 3.24473,-4.91184 2.06055,-8.00195 -0.53622,-4.80969 0.89512,-9.68644 0.20703,-14.43164 -1.69198,8.46365 -7.7899,15.56056 -6.89348,24.54669 -0.79397,7.63058 -0.43881,17.40137 -6.85457,22.62128 -9.17289,4.07964 -18.56982,-3.37172 -24.37695,-9.9043 -8.76323,-9.61058 -13.45561,-24.60219 -6.45117,-36.51367 6.58442,-11.64996 8.55126,-25.51813 17.14453,-36.07031 1.30998,-1.82729 2.90378,-3.87497 4.08398,-5.4961 z m 178.44727,20.77539 c -5.84738,1.51508 -6.81544,10.53075 -6.45899,14.43555 6.68143,-2.5373 12.26599,3.91893 14.16797,9.6582 1.32311,2.81275 2.32574,5.77776 2.97266,8.81836 0.83258,-10.75031 -0.33428,-22.63171 -6.4668,-31.70117 -1.19454,-0.9029 -2.73318,-1.28017 -4.21484,-1.21094 z m 95.15039,5.37305 c 2.14704,0.7925 3.99428,2.29421 4.29883,4.63477 0.15044,-3.40277 -0.584,-5.05081 -4.29883,-4.63477 z m -43.60902,4.73372 c -3.09012,13.56983 -2.57338,28.86606 -2.22266,42.44922 1.47477,-1.087 6.66,1.0347 4.55469,-1.625 -3.48298,-5.74223 -0.3601,-12.77481 -1.03907,-18.875 0.32173,-7.55268 -0.18794,-15.52894 2.46485,-22.82422 -1.29701,0.53366 -3.86659,-1.30982 -3.75781,0.875 z m -115.81871,17.91081 c 0.0852,3.9239 -4.06272,5.90821 -7.47071,5.92969 0.37722,2.84507 -2.55766,8.25804 1.69727,8.39648 2.35455,1.34956 2.70453,4.32372 4.125,6.38672 0.0539,-3.63899 2.32688,-8.19948 6.64844,-6.67187 2.50247,1.3187 3.51816,-2.35717 5.60546,0.29101 1.82846,1.3464 3.08866,4.25516 5.05274,1.50977 4.62125,-3.2272 12.01722,-0.86119 12.62695,5.04883 1.33335,-1.39953 2.4643,-5.50149 2.04688,-8.15235 -0.4997,-2.03643 1.18692,-7.16935 -2.47071,-5.73242 -3.53065,0.72015 -7.94421,-1.13046 -10.72851,-1.10937 -0.21048,4.78561 -6.79446,5.06159 -8.43164,1.08398 -0.56571,-2.26856 -4.1831,0.0617 -5.43555,-2.41406 -1.63105,-1.53797 -1.35945,-4.26033 -3.12109,-5.64063 l -0.13335,0.99107 -0.0112,0.0831 z m -61.74805,2.18555 c 0.23268,4.74761 -5.44337,-0.86807 -7.22266,0.42187 -0.0752,2.83383 -1.60458,7.73103 0.74024,9.58985 4.44325,0.8592 5.95447,5.32244 7.54882,8.89844 -1.19901,-4.00037 2.81477,-6.44699 6.05079,-6.2168 0.85582,-2.06526 1.78855,-5.7875 4.75195,-5.09766 -0.83984,-2.78991 -2.52991,-3.72311 -5.36524,-3.35742 -3.39149,0.0766 -5.23198,-3.03012 -5.84765,-5.70312 -0.72915,-1.1498 -0.31988,1.28686 -0.65625,1.46484 z m 21.79687,1.75781 c -2.39629,1.7376 -5.1278,1.92582 -5.13867,5.45313 -0.56364,2.71156 -5.13315,0.743 -2.20703,3.77343 1.59872,0.78076 4.25446,0.38008 5.51562,2.07227 2.9904,-2.58768 8.11586,1.13238 10.45704,-1.82031 -0.15767,-2.2619 2.74956,-7.93895 -1.44336,-6.8125 -2.7116,0.23202 -5.46535,-1.53145 -7.1836,-2.66602 z m 135.55274,7.02149 c -1.73829,0.8687 -5.29986,5.63808 -1.25977,5.54296 2.92583,0.56091 0.65253,-3.82181 1.53321,-5.79492 z m -45.00196,15.26367 c 0.18334,5.76337 0.45413,12.36922 3.1504,17.29297 2.96082,-0.2271 6.48014,-4.21043 6.63281,-5.77149 -5.51094,-1.63223 -7.63208,-7.66405 -9.77539,-12.39062 l -0.008,0.86914 z m 78.26936,30.21705 c 1.11785,7.41025 4.1067,18.59748 -4.33203,23.11523 -3.04443,0.80417 3.11618,0.99708 4.24219,2.00586 2.86709,1.87821 1.77251,-3.64629 2.76037,-5.40756 1.10195,-6.62089 2.37426,-13.23055 3.00525,-19.90103 -2.79707,-0.78617 -8.05299,-6.53392 -5.67578,0.1875 z"
         id="path5025"
         inkscape:connector-curvature="0"
         sodipodi:nodetypes="ccccccccccccccccccccccccccccccccccccccccccccccccccccccccccccccccccccccccccccccccccccccccc"
         transform="matrix(1.0631594,0,0,1.0631594,27.847453,15.420642)" />
    </g>
  </g>
</svg>
