<?xml version="1.0" encoding="UTF-8" standalone="no"?>
<!-- Created with Inkscape (http://www.inkscape.org/) -->

<svg
   xmlns:dc="http://purl.org/dc/elements/1.1/"
   xmlns:cc="http://creativecommons.org/ns#"
   xmlns:rdf="http://www.w3.org/1999/02/22-rdf-syntax-ns#"
   xmlns:svg="http://www.w3.org/2000/svg"
   xmlns="http://www.w3.org/2000/svg"
   xmlns:xlink="http://www.w3.org/1999/xlink"
   xmlns:sodipodi="http://sodipodi.sourceforge.net/DTD/sodipodi-0.dtd"
   xmlns:inkscape="http://www.inkscape.org/namespaces/inkscape"
   width="125"
   height="125"
   viewBox="0 0 33.072918 33.072914"
   version="1.1"
   id="svg8"
   sodipodi:docname="icon.svg"
   inkscape:version="0.92.3 (2405546, 2018-03-11)"
   inkscape:export-filename="/home/frode/Creations/Software/ManaWarg/Resources/icon.png"
   inkscape:export-xdpi="98.303993"
   inkscape:export-ydpi="98.303993">
  <defs
     id="defs2">
    <linearGradient
       inkscape:collect="always"
       id="linearGradient1165">
      <stop
         style="stop-color:#38603f;stop-opacity:0.43269232"
         offset="0"
         id="stop1161" />
      <stop
         id="stop1169"
         offset="0.33293608"
         style="stop-color:#143634;stop-opacity:0.66666669" />
      <stop
         style="stop-color:#163012;stop-opacity:0.39903846"
         offset="0.63551313"
         id="stop1171" />
      <stop
         style="stop-color:#345751;stop-opacity:0.70980394"
         offset="1"
         id="stop1163" />
    </linearGradient>
    <linearGradient
       inkscape:collect="always"
       id="linearGradient921">
      <stop
         style="stop-color:#000000;stop-opacity:1;"
         offset="0"
         id="stop917" />
      <stop
         style="stop-color:#000000;stop-opacity:0;"
         offset="1"
         id="stop919" />
    </linearGradient>
    <linearGradient
       inkscape:collect="always"
       id="linearGradient1556">
      <stop
         style="stop-color:#ffffff;stop-opacity:1"
         offset="0"
         id="stop1552" />
      <stop
         style="stop-color:#fffb4e;stop-opacity:1"
         offset="1"
         id="stop1554" />
    </linearGradient>
    <linearGradient
       inkscape:collect="always"
       id="linearGradient1512">
      <stop
         style="stop-color:#ffffff;stop-opacity:0"
         offset="0"
         id="stop1508" />
      <stop
         style="stop-color:#fffb4e;stop-opacity:0.40384614"
         offset="1"
         id="stop1510" />
    </linearGradient>
    <linearGradient
       inkscape:collect="always"
       id="linearGradient1493">
      <stop
         style="stop-color:#540000;stop-opacity:0.92156863"
         offset="0"
         id="stop1489" />
      <stop
         id="stop913"
         offset="0.23841584"
         style="stop-color:#000000;stop-opacity:0.90865386" />
      <stop
         id="stop1656"
         offset="0.41002691"
         style="stop-color:#000000;stop-opacity:0.67788464" />
      <stop
         style="stop-color:#000000;stop-opacity:0.9372549;"
         offset="0.67383409"
         id="stop915" />
      <stop
         style="stop-color:#000000;stop-opacity:0.75294119"
         offset="1"
         id="stop1491" />
    </linearGradient>
    <linearGradient
       inkscape:collect="always"
       id="linearGradient1473">
      <stop
         style="stop-color:#dde7ef;stop-opacity:1"
         offset="0"
         id="stop1469" />
      <stop
         style="stop-color:#f5f5ec;stop-opacity:1"
         offset="1"
         id="stop1471" />
    </linearGradient>
    <linearGradient
       inkscape:collect="always"
       id="linearGradient1267">
      <stop
         style="stop-color:#ffffff;stop-opacity:1"
         offset="0"
         id="stop1263" />
      <stop
         id="stop1271"
         offset="0.50104988"
         style="stop-color:#7f7f7f;stop-opacity:0.08173077" />
      <stop
         style="stop-color:#000000;stop-opacity:0.125"
         offset="1"
         id="stop1265" />
    </linearGradient>
    <linearGradient
       inkscape:collect="always"
       id="linearGradient1259">
      <stop
         style="stop-color:#5bc200;stop-opacity:1"
         offset="0"
         id="stop1255" />
      <stop
         style="stop-color:#007657;stop-opacity:1"
         offset="1"
         id="stop1257" />
    </linearGradient>
    <linearGradient
       inkscape:collect="always"
       id="linearGradient1216">
      <stop
         style="stop-color:#e5e5e5;stop-opacity:1"
         offset="0"
         id="stop1212" />
      <stop
         style="stop-color:#b5c593;stop-opacity:0.76470584"
         offset="1"
         id="stop1214" />
    </linearGradient>
    <radialGradient
       inkscape:collect="always"
       xlink:href="#linearGradient1267"
       id="radialGradient1269-5"
       cx="-401.35574"
       cy="-138.39632"
       fx="-401.35574"
       fy="-138.39632"
       r="206.18533"
       gradientTransform="matrix(-7.2887184,0,0,-4.0428832,-2188.1793,-447.40271)"
       gradientUnits="userSpaceOnUse" />
    <linearGradient
       gradientTransform="matrix(3.7795276,0,0,3.7795276,2158.6735,1.5501766)"
       inkscape:collect="always"
       xlink:href="#linearGradient1259"
       id="linearGradient1261-2"
       x1="-523.3219"
       y1="43.61734"
       x2="-525.2132"
       y2="208.41496"
       gradientUnits="userSpaceOnUse" />
    <radialGradient
       inkscape:collect="always"
       xlink:href="#linearGradient1267"
       id="radialGradient1269-1"
       cx="-401.35574"
       cy="-138.39632"
       fx="-401.35574"
       fy="-138.39632"
       r="206.18533"
       gradientTransform="matrix(-7.2887184,0,0,-4.0428832,-2188.1793,-447.40271)"
       gradientUnits="userSpaceOnUse" />
    <linearGradient
       inkscape:collect="always"
       xlink:href="#linearGradient1259"
       id="linearGradient1403"
       gradientUnits="userSpaceOnUse"
       x1="-876.82336"
       y1="-82.944901"
       x2="-1017.4446"
       y2="62.980682"
       gradientTransform="matrix(0.05609513,-8.5524127e-4,0,0.04982337,-1303.316,231.30492)" />
    <radialGradient
       inkscape:collect="always"
       xlink:href="#linearGradient1267"
       id="radialGradient1405"
       gradientUnits="userSpaceOnUse"
       gradientTransform="matrix(-0.03929876,0.06904488,-0.03199959,-0.01868645,-1362.2424,240.15474)"
       cx="-139.74812"
       cy="-126.15653"
       fx="-139.74812"
       fy="-126.15653"
       r="206.18533" />
    <linearGradient
       gradientTransform="matrix(3.7795276,0,0,3.7795276,2157.3397,-1.8586564)"
       inkscape:collect="always"
       xlink:href="#linearGradient1216"
       id="linearGradient1224-8"
       x1="-391.28491"
       y1="66.663414"
       x2="-395.72925"
       y2="211.96829"
       gradientUnits="userSpaceOnUse" />
    <linearGradient
       inkscape:collect="always"
       xlink:href="#linearGradient1473"
       id="linearGradient1475"
       x1="-830.05737"
       y1="212.51048"
       x2="-890.91479"
       y2="-162.73802"
       gradientUnits="userSpaceOnUse"
       gradientTransform="matrix(0.05609513,-8.5524127e-4,0,0.04982337,-1303.316,231.30492)" />
    <linearGradient
       inkscape:collect="always"
       xlink:href="#linearGradient1216"
       id="linearGradient1479"
       gradientUnits="userSpaceOnUse"
       x1="-391.28491"
       y1="66.663414"
       x2="-395.72925"
       y2="211.96829"
       spreadMethod="reflect"
       gradientTransform="matrix(0.05609513,-8.5524127e-4,0,0.04982337,-1303.316,231.30492)" />
    <linearGradient
       inkscape:collect="always"
       xlink:href="#linearGradient1493"
       id="linearGradient1495"
       x1="-1054.9331"
       y1="73.790588"
       x2="-1045.1362"
       y2="-277.08026"
       gradientUnits="userSpaceOnUse"
       spreadMethod="reflect"
       gradientTransform="matrix(0.20848903,-0.00323415,0,0.1884101,291.40083,86.33575)" />
    <linearGradient
       inkscape:collect="always"
       xlink:href="#linearGradient1512"
       id="linearGradient1514"
       x1="-1370.6978"
       y1="-86.088974"
       x2="-1161.2155"
       y2="-86.088974"
       gradientUnits="userSpaceOnUse"
       gradientTransform="matrix(0.05609513,-8.5524127e-4,0,0.04982337,-1292.3063,240.11625)" />
    <linearGradient
       gradientTransform="matrix(3.7795276,0,0,3.7795276,5180.5902,356.71553)"
       inkscape:collect="always"
       xlink:href="#linearGradient1512"
       id="linearGradient1514-3"
       x1="-1370.6978"
       y1="-86.088974"
       x2="-1161.2155"
       y2="-86.088974"
       gradientUnits="userSpaceOnUse" />
    <linearGradient
       inkscape:collect="always"
       xlink:href="#linearGradient1512"
       id="linearGradient1550"
       gradientUnits="userSpaceOnUse"
       x1="-791.15332"
       y1="-92.26091"
       x2="-998.27643"
       y2="-92.26091"
       gradientTransform="matrix(0.05609513,-8.5524127e-4,0,0.04982337,-1292.3063,240.05475)" />
    <radialGradient
       inkscape:collect="always"
       xlink:href="#linearGradient1556"
       id="radialGradient1558"
       cx="-1160.8722"
       cy="-85.445877"
       fx="-1160.8722"
       fy="-85.445877"
       r="10.461484"
       gradientTransform="matrix(0.05610165,0,0,0.04853103,-1292.4565,220.30298)"
       gradientUnits="userSpaceOnUse" />
    <radialGradient
       inkscape:collect="always"
       xlink:href="#linearGradient1556"
       id="radialGradient1558-7"
       cx="-1160.8722"
       cy="-85.445877"
       fx="-1160.8722"
       fy="-85.445877"
       r="10.461484"
       gradientTransform="matrix(3.7795276,0,0,3.6814932,4427.088,353.08229)"
       gradientUnits="userSpaceOnUse" />
    <radialGradient
       inkscape:collect="always"
       xlink:href="#linearGradient1556"
       id="radialGradient1583"
       gradientUnits="userSpaceOnUse"
       gradientTransform="matrix(0.05284327,-8.0566257e-4,0,0.04571767,-1295.5175,239.83397)"
       cx="-999.39624"
       cy="-90.374352"
       fx="-999.39624"
       fy="-90.374352"
       r="10.461484" />
    <linearGradient
       inkscape:collect="always"
       xlink:href="#linearGradient1512"
       id="linearGradient1598"
       gradientUnits="userSpaceOnUse"
       x1="-1370.6978"
       y1="-86.088974"
       x2="-1161.2155"
       y2="-86.088974"
       gradientTransform="matrix(0.05609513,-8.5524127e-4,0,0.04982337,-1292.3063,240.11625)" />
    <linearGradient
       inkscape:collect="always"
       xlink:href="#linearGradient921"
       id="linearGradient923"
       x1="-1354.1111"
       y1="234.44496"
       x2="-1341.2394"
       y2="234.56068"
       gradientUnits="userSpaceOnUse"
       spreadMethod="reflect"
       gradientTransform="matrix(3.7792519,0,0,3.8451995,5179.1564,-836.59823)" />
    <linearGradient
       inkscape:collect="always"
       xlink:href="#linearGradient1165"
       id="linearGradient1167"
       x1="14.456819"
       y1="81.297806"
       x2="98.282951"
       y2="81.474586"
       gradientUnits="userSpaceOnUse" />
  </defs>
  <sodipodi:namedview
     id="base"
     pagecolor="#808080"
     bordercolor="#666666"
     borderopacity="1.0"
     inkscape:pageopacity="0"
     inkscape:pageshadow="2"
     inkscape:zoom="0.70710678"
     inkscape:cx="-275.24977"
     inkscape:cy="-16.151141"
     inkscape:document-units="px"
     inkscape:current-layer="layer1"
     showgrid="false"
     inkscape:snap-global="false"
     inkscape:window-width="1920"
     inkscape:window-height="1061"
     inkscape:window-x="0"
     inkscape:window-y="0"
     inkscape:window-maximized="1"
     fit-margin-top="0"
     fit-margin-left="0"
     fit-margin-right="0"
     fit-margin-bottom="0"
     units="px"
     showborder="true" />
  <metadata
     id="metadata5">
    <rdf:RDF>
      <cc:Work
         rdf:about="">
        <dc:format>image/svg+xml</dc:format>
        <dc:type
           rdf:resource="http://purl.org/dc/dcmitype/StillImage" />
        <dc:title></dc:title>
      </cc:Work>
    </rdf:RDF>
  </metadata>
  <g
     inkscape:label="Layer 1"
     inkscape:groupmode="layer"
     id="layer1"
     transform="translate(1369.1958,-217.57986)">
    <g
       id="g1216"
       transform="translate(0.39687499)">
      <path
         sodipodi:nodetypes="cccccc"
         inkscape:connector-curvature="0"
         id="path1454"
         d="m -1359.2483,234.83469 c -0.2813,0.041 -0.2007,0.33399 -0.1275,0.48924 0.242,1.12889 0.4735,1.82868 1.5762,2.54286 0.5521,0.33525 1.3075,0.44512 1.9452,0.20372 -0.2543,-1.58155 -1.2119,-2.60686 -3.0004,-3.1403 -0.1344,-0.0201 -0.25,-0.11208 -0.3935,-0.0955 z"
         style="color:#000000;clip-rule:nonzero;display:inline;overflow:visible;visibility:visible;opacity:1;isolation:auto;mix-blend-mode:normal;color-interpolation:sRGB;color-interpolation-filters:linearRGB;solid-color:#000000;solid-opacity:1;vector-effect:none;fill:#0a0f00;fill-opacity:1;fill-rule:evenodd;stroke:none;stroke-width:0.20091522;stroke-linecap:round;stroke-linejoin:miter;stroke-miterlimit:4;stroke-dasharray:none;stroke-dashoffset:0;stroke-opacity:1;marker:none;color-rendering:auto;image-rendering:auto;shape-rendering:auto;text-rendering:auto;enable-background:accumulate" />
      <path
         transform="matrix(0.26458332,0,0,0.26458332,-1370.6978,216.99567)"
         sodipodi:nodetypes="cccccccccccccccccsccccccccccccccccccccccccccccccccccccccccccccccccccccccsccccccccccccccccccccccccccccccccccccccccccccccccccccccccccccccccccccccccccccccccccccccccccccccccccccccccccccccccccccccccccccccccccccccccccccccccccccccccccccccccccccccccccccccccccccccccccccccsccccccccccccccccccccccccccccccccccccccccccccscccccccccccccc"
         inkscape:connector-curvature="0"
         id="path1430"
         d="M 22.978516,3 29.271484,19.419922 26.15625,16.375 l 4.775391,10.25 c -0.332599,0.396737 -0.737349,0.781266 -0.802735,1.201172 -0.102047,0.637039 0.04015,1.054633 0.13086,1.365234 0.05669,0.161764 0.125075,0.208568 0.185546,0.335938 0,0.02268 -0.129032,0.535975 -0.132812,0.730468 0,0.198426 0.0014,0.346395 0.04297,0.470704 0.07937,0.498859 0.180395,0.657995 0.259765,0.824218 0.32126,0.66497 0.653222,1.089561 1.296875,1.986328 0.298583,0.689764 0.711695,1.195777 1.048829,1.851563 l -1.21875,0.675781 c 0.177636,0.329197 0.338996,0.705382 0.523437,1.042969 -0.173858,0.140976 -0.257201,0.209 -0.355469,0.291016 l -1.09375,0.18164 0.585938,1.042969 v 0.220703 c 0,0.0015 0.04102,0.271939 0.04102,0.34375 0.109607,0.574262 0.116755,0.434825 0.16211,0.550781 0.08693,0.231685 0.201274,0.542053 0.402343,1.027344 l 0.04102,0.05469 0.04102,0.05469 c 1.095685,2.338999 1.474168,4.549477 2.136718,6.78125 0.648945,2.423244 1.242109,4.900605 2.160157,7.298828 l 0.318359,0.816407 c 0.397228,2.764156 0.809842,5.547129 1.080078,7.896484 -2.042834,1.737865 -3.918368,3.435292 -5.701172,4.888672 -0.74759,0.555515 -1.545555,1.151763 -2.228515,1.679687 l -0.222657,0.164063 -0.103515,0.126953 -8.994141,6.261719 1.951172,-0.455078 c -1.893543,1.237076 -4.043591,2.095283 -5.669922,3.611328 l 0.208985,-0.181641 c -0.43578,0.318992 -0.772803,0.591246 -1.080079,0.878906 -0.30992,0.287622 -0.623801,0.468846 -0.949218,1.310547 -0.16252,0.420926 -0.30972,1.218662 0.06445,2.017578 0.370394,0.798803 1.070265,1.188106 1.488281,1.326172 0.835654,0.275906 1.1376,0.148429 1.466797,0.101563 1.316032,-0.188977 2.484491,-0.694317 3.431641,-1.089844 l 0.04102,-0.01563 0.31836,0.423828 c 0.06425,0.08542 0.162564,0.07499 0.234375,0.15625 0.173858,0.580044 0.433802,1.228525 0.871093,1.546875 0.549166,0.399609 1.02622,0.48577 1.41211,0.533203 l 0.478515,0.05664 0.222657,-0.06445 c 0.571464,0.299338 1.074386,0.89654 1.626953,1.123046 1.525039,0.624794 2.909807,1.126859 4.064453,1.757813 0.257008,0.145134 0.475602,0.313913 0.726562,0.455078 0.986079,0.554154 1.90663,1.059498 2.582032,1.445313 0.340157,0.192756 0.618419,0.352452 0.794921,0.46289 0.03199,0.01994 0.0415,0.0355 0.07031,0.05859 l 0.158203,0.167969 0.347656,0.18164 c 0.808063,0.425726 1.765459,1.158911 3.216797,1.570313 0.366614,0.103181 0.79567,0.313323 1.75,0 0.328819,-0.108473 0.659209,-0.473966 0.980469,-0.800781 0.05291,0.03024 0.140446,0.104088 0.193359,0.132812 l 1.441407,0.832031 c 0,0.02268 0.0011,0.02559 0,0.05469 0,0.06085 0.04058,0.133409 0.08594,0.291016 0.04158,0.07899 0.164063,0.351625 0.164063,0.353515 3.78e-4,0.0011 0.230595,0.335182 0.234375,0.335938 3.78e-4,7.56e-4 0.601184,0.527003 0.601562,0.527343 3.78e-4,1.89e-4 0.593372,0.265625 0.59375,0.265625 3.78e-4,7.6e-5 0.800781,0.07813 0.800781,0.07813 3.78e-4,0 0.151047,-0.04411 0.28711,-0.07813 0.204094,0.14589 0.345365,0.29742 0.55664,0.439453 l 1.958985,5.910158 -0.132813,-4.222658 c 0,0.0076 0.04102,0.01588 0.04102,0.02344 0,0.0038 0.04297,0.0081 0.04297,0.01563 0,-3.8e-5 3.78e-4,0.0059 0,0.0059 l 2.738281,8.226568 v -3.65821 l 7.953125,23.875 -3.734375,-20.46875 c 0.219212,0.18671 0.381981,0.40143 0.648437,0.57227 0.377953,0.24189 0.82461,0.5073 1.558594,0.58984 0.31748,0.0386 0.668483,-0.28877 1.056641,-0.4082 0.930458,0.96551 1.629689,2.04378 2.804687,2.86328 -0.07676,-0.0697 -0.138663,-0.11653 -0.228515,-0.21094 l 0.455078,0.36914 c -0.07965,-0.0504 -0.151074,-0.10555 -0.226563,-0.1582 0.146029,0.13257 0.295331,0.26617 0.435547,0.40039 0.556347,0.85448 1.061536,1.76474 1.626953,2.42578 0.24189,0.28385 0.434932,0.51701 0.847657,0.83203 0.204093,0.15761 0.382353,0.43576 1.289062,0.54102 0.283465,0.0302 0.718701,-0.19427 1.125,-0.33789 0.211654,0.0805 0.366987,0.19765 0.640625,0.24414 0.614551,0.10469 1.593457,0.0407 2.376953,-0.59766 0.04157,-0.0227 -5.59e-4,-0.061 0.04102,-0.0859 0.302362,0.29858 0.425575,0.65662 1.001953,0.80859 0.935433,0.2468 1.748022,-0.23221 2.283203,-0.63477 l -1.234375,3.04493 1.966797,-1.6875 -0.142578,0.8789 4.673828,-4.52148 c 0.04157,-0.004 0.05753,-0.006 0.08398,-0.0137 l 0.740235,13.08984 1.642578,-15.09961 c 0.04157,-0.0457 0.05753,-0.0692 0.08398,-0.11719 v -0.0156 -0.0156 c 0.272126,-0.4721 0.474766,-0.82961 0.630859,-1.14648 0.07937,-0.15799 0.141207,-0.29825 0.216797,-0.49414 0.07181,-0.19654 0.260884,-0.2936 0.177735,-1.20703 0,-0.11414 -0.04203,-0.25098 -0.07227,-0.40235 -0.0034,-0.0113 0,-0.0302 0,-0.0469 1.001953,-1.93977 1.872029,-3.93528 3.146484,-5.70508 l -0.101562,0.125 c 0.554079,-0.669659 0.826933,-1.206288 1.1875,-1.796877 0.04157,-0.02268 0.06521,-0.05948 0.08789,-0.08594 0.192756,-0.222993 0.486503,-0.604662 0.748047,-0.933594 0.733983,-0.788296 1.777438,-1.780995 2.945312,-2.763672 1.300158,-1.093795 2.453848,-2.008615 3.279297,-2.785156 l 0.109375,-0.04687 c 0.548031,-0.259276 0.896752,-0.430386 1.3125,-0.722657 0.139842,-0.100157 0.383927,-0.402435 0.615234,-0.689453 3.086363,-1.379679 5.881942,-3.049585 8.593752,-3.320312 l 0.34179,-0.03516 0.32422,-0.132812 c 0.49852,-0.20863 0.70964,-0.279208 1.14844,-0.541016 0.11339,-0.06539 0.21699,-0.06326 0.5957,-0.478515 0.0945,-0.103937 0.34766,-0.4921 0.34766,-0.494141 3.8e-4,-4.16e-4 0.0441,-0.100256 0.0781,-0.189453 0.20032,-0.06236 0.46844,-0.155116 0.47071,-0.15625 0.003,-0.0015 0.64617,-0.47621 0.64843,-0.478516 0.002,-0.0021 0.35882,-0.525963 0.42383,-0.621093 l 2.19141,0.103515 -0.88672,-3.195312 c -0.37039,-1.332624 -1.52689,-1.698008 -2.42187,-2.423828 l 2.87695,-2.779297 2.10547,-1.341797 -1.10352,0.369141 0.94141,-0.910157 -1.82031,1.208985 -4.83594,1.615234 c -0.10961,-0.05329 -0.14821,-0.205656 -0.25782,-0.257812 -0.55028,-0.274772 -0.99708,-0.391715 -1.55078,-0.621094 -0.75968,-0.800504 -1.57927,-1.645102 -2.33593,-2.464844 l 5.05273,-9.134766 -6.12695,7.998047 c -0.0034,-0.0038 -1e-6,-0.01184 0,-0.01563 -0.362835,-0.548636 -0.669683,-1.064 -1.070313,-1.601562 0.117165,-0.173481 0.347656,-0.507763 0.347656,-0.509766 7.56e-4,-0.0026 0.131873,-0.377158 0.16211,-0.52539 0.06047,-0.29556 0.05639,-0.494598 0.04883,-0.644532 -0.04157,-0.599886 -0.121295,-0.696479 -0.185547,-0.871094 -0.06425,-0.174991 -0.119595,-0.322156 -0.191406,-0.478515 -0.136063,-0.312945 -0.310331,-0.655136 -0.501954,-1.027344 -0.38551,-0.744227 -0.869733,-1.608541 -1.341796,-2.394531 -0.397511,-0.661829 -0.736679,-1.198407 -1.154297,-1.72461 0.04969,0.102662 0.11201,0.201127 0.158203,0.304688 L 95.6914,61.988343 c 0.08643,0.09828 0.14824,0.202095 0.226563,0.300781 -0.698872,-1.44375 -1.721207,-2.797074 -2.857422,-3.863281 -0.306142,-0.285354 -0.556826,-0.558156 -1.203125,-0.839843 -0.105827,-0.04687 -0.382778,-0.01904 -0.533203,-0.0625 0,-0.01512 -0.04102,-0.02287 -0.04102,-0.04102 -0.505701,-0.714028 -1.029552,-1.172441 -1.712891,-1.63086 0.381355,-0.416691 0.676586,-0.336934 0.933594,-1.076171 0.676914,-1.508145 1.158421,-3.152164 1.642578,-4.59961 0.04157,-0.0703 0.04178,-0.07108 0.06445,-0.140625 0.593384,-0.937209 1.404351,-2.096849 2.361328,-3.626953 0.462992,-0.739464 0.623502,-1.73477 1.033203,-2.558594 0.06803,-0.113385 0.271305,-0.303472 0.324219,-0.408203 0.04157,-0.04838 0.0014,-0.01866 0.04297,-0.0625 l 0.101563,-0.07813 0.15039,-0.298828 c 0.381355,-0.278173 0.914005,-0.260909 1.273438,-0.572265 0.136063,-0.1183 0.170704,-0.393837 0.310547,-0.517579 0.739275,-0.605291 1.723417,-0.923144 2.421878,-1.570312 l 0.27539,-0.257813 0.18555,-0.330078 c 0.28346,-0.509253 0.47747,-0.779791 0.65625,-1.460937 0.0907,-0.340158 0.50159,-1.034427 -0.41797,-2.244141 -0.004,-0.0038 0,-0.003 0,-0.0078 0.11716,-0.09222 0.36639,-0.201 0.4707,-0.289063 0.92221,-0.758211 1.48511,-1.263094 2.39258,-1.742187 v -0.01563 c 0.17386,-0.160252 0.39242,-0.234319 0.5625,-0.400391 l 10.76359,-11.693397 -13.49406,7.847694 c -0.28724,0.150425 -0.38185,0.291701 -0.63281,0.447265 -3.262117,3.195024 -8.207712,5.278961 -13.121098,7.566407 -0.791055,0.265701 -2.072688,0.777553 -3.308594,1.287109 l -0.826172,-2.417969 c 0,0.0036 -0.04102,0.004 -0.04102,0.0078 -0.0034,0.0015 -0.003,0.0078 0,0.0078 -3.099967,1.072517 -7.274229,2.395101 -11.130859,3.208985 -0.885921,0.145134 -2.670042,0.519404 -4.304687,0.847656 -0.04536,0.0076 -0.05999,0.0081 -0.101563,0.01563 -0.689008,0.123969 -1.487213,0.267596 -2.166015,0.361328 l -0.185547,0.0332 -0.185547,0.05664 c -0.124725,0.03855 -0.106877,-0.02012 -0.556641,0.21875 -0.04157,0.01512 -0.08538,0.05249 -0.126953,0.08008 -1.760126,0.301984 -3.634582,0.420631 -5.330078,0.705078 -0.105827,-0.02646 -0.231938,-0.08304 -0.333984,-0.101562 -0.16252,-0.09713 -0.520764,-0.185066 -0.708985,-0.298828 -0.06047,-0.19389 -0.125,-0.384388 -0.125,-0.384766 -3.78e-4,-6.05e-4 -0.234375,-0.358997 -0.234375,-0.359375 -0.0011,-7.56e-4 -0.112596,-0.141453 -0.15039,-0.189453 -0.09071,-0.09524 -0.148259,-0.146303 -0.201172,-0.1875 -0.388914,-0.333733 -0.373635,-0.273261 -0.484375,-0.337891 -0.113386,-0.06463 -0.227345,-0.130243 -0.367188,-0.205078 -0.272126,-0.150047 -0.611969,-0.333973 -1.003906,-0.541016 -1.565858,-0.826091 -3.856787,-1.991771 -4.828125,-2.457031 v -0.0078 C 49.223843,36.160864 47.449996,35.243532 45.5625,34.357422 45.141839,33.992697 44.890731,33.527327 44.451172,33.179688 41.741628,30.023706 38.393328,28.038792 36.027344,25.873047 Z m 32.451172,37.273438 h 0.0078 l -0.05664,0.132812 -0.04297,0.07813 c -0.09827,-0.0189 -0.124516,-0.07712 -0.226563,-0.09375 0,-0.0033 0.05727,-0.02369 0.07617,-0.03125 l 0.177734,0.04687 c -0.06047,-0.02268 -0.0937,-0.02974 -0.15039,-0.05469 0.06803,-0.02268 0.105237,-0.04071 0.214844,-0.07812 z m -7.744141,5.791015 0.53125,0.03125 1.048828,0.470703 c 0.192756,0.08617 0.358277,0.02937 0.546875,0.101563 0,0.08353 0.04297,0.228137 0.04297,0.228515 0.0011,0.0028 0.214866,0.475459 0.332031,0.634766 0.113386,0.15874 0.229731,0.273265 0.324219,0.361328 0.771779,0.708435 0.899421,0.542892 1.103515,0.603516 0.591119,0.17537 1.227821,0.233571 1.882813,0.314453 l 9.369985,4.821888 -4.649282,-4.36681 c 0.24189,0.01134 0.502876,0.02552 0.716797,0.0293 0.05669,6.8e-4 0.114802,-0.0078 0.160156,-0.0078 1.671307,0.39515 2.750812,-0.285501 4.221516,0.214766 l 0.112978,0.034 0.11016,0.02753 c 0.631398,0.151564 1.266858,0.27084 1.849558,0.353086 0.582303,0.08447 0.961185,0.18534 1.783007,0.06945 0.204887,-0.02956 1.150299,0.318977 1.539969,0.01404 6.149153,-0.102287 -0.748639,-0.708589 -0.544922,-1.152344 4.786394,-0.278929 10.572592,-1.027257 15.300781,-1.970703 l -3.238281,4.513672 4.84375,-1.955078 c 0,0.103937 -0.04127,0.182796 -0.04883,0.298828 -0.772158,1.137865 -1.420512,1.959774 -2.207032,3.806641 -0.710173,1.072365 -1.030414,2.081077 -1.611328,3.169922 L 69.8125,73.59375 75.544922,67.847656 c -0.143622,0.268725 -0.28676,0.607699 -0.439453,0.871094 l -0.152344,0.267578 -0.07617,0.289063 c -1.059024,3.823748 -2.2675,8.15264 -1.519531,12.722656 0,0.546142 0.0014,1.001087 0.216797,1.617187 0.117165,0.366615 0.24891,0.962768 1.148437,1.513672 0.80126,0.490734 1.865787,0.189208 2.453125,-0.109375 -0.489449,3.907163 -1.203622,7.858414 -1.835937,11.90625 l -0.04102,0.205078 v 0.210938 c 3.78e-4,0.0076 0,0.0081 0,0.01563 v 0.1875 0.226562 c -0.05669,0.14778 -0.108309,0.327663 -0.134766,0.613282 v 0.533203 c 3.78e-4,0.0022 0.145546,0.525574 0.175782,0.628906 0,0.106583 0.04297,0.265247 0.04297,0.265625 0,0 0.08632,-0.01771 0.09766,-0.02148 0,0.02268 0.04127,0.02634 0.04883,0.05469 -0.366614,0.608955 -0.977123,0.982985 -1.273438,1.646485 -0.109606,0.24189 -0.147445,0.46413 -0.234375,0.69922 l -0.609375,0.63671 c -0.23433,-0.0408 -0.139055,-0.21389 -0.5,-0.19726 -0.785008,0.0386 -1.980899,0.90315 -2.261718,1.70312 -0.279685,0.80002 -0.153589,1.25645 -0.07422,1.63282 0.08315,0.38335 0.520377,0.87869 0.662109,1.23242 -0.105827,0.11527 -0.150593,0.19766 -0.214843,0.29101 -0.1663,-0.20522 -0.284262,-0.38471 -0.548829,-0.6289 -0.23433,-0.21808 -0.491933,-0.49328 -1.148437,-0.72266 -0.656504,-0.22942 -2.131045,-0.003 -2.777344,0.73828 -0.230551,0.2623 -0.144046,0.40679 -0.246094,0.62891 -0.302362,-0.44217 -0.556628,-0.81249 -0.824218,-1.16992 -0.07181,-0.11339 -0.105924,-0.17725 -0.177735,-0.29102 -0.340157,-0.55895 -0.519482,-0.89818 -0.925781,-1.42773 -0.05291,-0.0661 -0.08106,-0.12876 -0.285156,-0.32227 -0.05291,-0.0487 -0.120736,-0.10926 -0.226563,-0.1875 -0.109606,-0.0786 -0.523879,-0.29883 -0.52539,-0.29883 -3.78e-4,-2.6e-4 -0.577747,-0.14843 -0.578125,-0.14843 -7.56e-4,-8e-5 -0.946888,0.0781 -0.947266,0.0781 0,0 -0.04908,0.0256 -0.05664,0.0332 -2.03263,-2.12897 -3.912252,-4.699311 -6.001953,-7.556634 -0.05669,-0.267591 -0.06415,-0.553261 -0.46289,-1.138672 -0.08315,-0.119433 -0.348122,-0.07789 -0.478516,-0.1875 -0.04158,-0.04082 -0.04594,-0.07864 -0.07617,-0.117188 l -0.04102,0.07031 c -0.04913,-0.03855 -0.108815,-0.02622 -0.15039,-0.0625 -0.541228,-0.700876 -1.246428,-1.526212 -2.013672,-2.402344 -0.545386,-2.703798 -1.096873,-5.330621 -1.621094,-7.935547 0.04158,-4.31297 -0.06737,-8.709257 -1.179687,-13.222656 -0.362835,-2.271572 -1.487891,-4.455634 -2.082031,-6.726562 l 3.185546,-2.732422 -3.433593,1.923828 c -0.467528,-1.684725 -0.897994,-3.35292 -1.548829,-5 l -1.644531,-8.19336 c 0.170079,-0.02268 0.501575,-0.07813 0.501953,-0.07813 0,-1.13e-4 0.863282,-1.466419 0.863282,-1.466797 0,-3.76e-4 0.04297,-0.430372 0.04297,-0.519531 l 6.766545,7.4367 z m -4.246094,4.542969 -0.0039,0.002 0.04883,0.957031 c -0.09827,-0.288 -0.200307,-0.632842 -0.291016,-0.917968 0.109607,-0.01512 0.128929,-0.0191 0.246094,-0.04102 z m 53.150391,16.742187 0.253906,0.28125 c -0.04157,-0.04724 -0.106483,-0.06251 -0.136719,-0.109375 -0.05669,-0.05329 -0.06427,-0.118205 -0.117187,-0.171875 z"
         style="color:#000000;font-style:normal;font-variant:normal;font-weight:normal;font-stretch:normal;font-size:medium;line-height:normal;font-family:sans-serif;font-variant-ligatures:normal;font-variant-position:normal;font-variant-caps:normal;font-variant-numeric:normal;font-variant-alternates:normal;font-feature-settings:normal;text-indent:0;text-align:start;text-decoration:none;text-decoration-line:none;text-decoration-style:solid;text-decoration-color:#000000;letter-spacing:normal;word-spacing:normal;text-transform:none;writing-mode:lr-tb;direction:ltr;text-orientation:mixed;dominant-baseline:auto;baseline-shift:baseline;text-anchor:start;white-space:normal;shape-padding:0;clip-rule:nonzero;display:inline;overflow:visible;visibility:visible;opacity:1;isolation:auto;mix-blend-mode:normal;color-interpolation:sRGB;color-interpolation-filters:linearRGB;solid-color:#000000;solid-opacity:1;vector-effect:none;fill:url(#linearGradient1495);fill-opacity:1;fill-rule:evenodd;stroke:url(#linearGradient923);stroke-width:0.86226809;stroke-linecap:round;stroke-linejoin:round;stroke-miterlimit:23;stroke-dasharray:none;stroke-dashoffset:0;stroke-opacity:0.99519228;color-rendering:auto;image-rendering:auto;shape-rendering:auto;text-rendering:auto;enable-background:accumulate" />
      <path
         sodipodi:nodetypes="cccccccccccccccscccsscccccccccccccccccccccccccccccccccccccccccccccccccccsccccccccscccccccccccccccccccccccccccccccccccccccccccccccccccccccccccccccccccccccccccccsccccccccccccccccccccccccccccccccccccccccccsccccccccccccccccccccccccccccccccccccccscccccccccccccccccccccscccscccccccccccccccccccsccccsccccccccccccccccccscscccccccccccccccccccccccccccccsccccccccsccccccccccccccccccscccccccccccccccccccccccccsccccccccccccccccccccccccc"
         inkscape:connector-curvature="0"
         id="path1287"
         d="m -1363.9191,219.02005 1.1885,3.04427 -0.7171,-0.68971 0.9241,1.94955 -0.016,0.01 c -0.1299,0.0766 -0.2197,0.2274 -0.2368,0.33496 -0.017,0.10755 0,0.17957 0.023,0.23795 0.025,0.0754 0.059,0.13287 0.096,0.18723 -0.014,0.0215 -0.038,0.044 -0.045,0.0633 -0.035,0.0992 -0.024,0.15718 -0.017,0.19811 0.014,0.0818 0.032,0.11217 0.049,0.1458 0.063,0.12756 0.1513,0.24996 0.3057,0.46146 0.086,0.20358 0.1837,0.40025 0.2849,0.59422 l -0.2927,0.12893 c 0.075,0.13808 0.1645,0.29428 0.247,0.43919 -0.043,0.0338 -0.2628,0.20449 -0.2628,0.20456 0,2e-5 -0.011,0.0208 -0.011,0.0284 l -0.063,0.01 0.038,0.0663 c 0,0.0142 -0.011,0.027 -0.011,0.0343 v 0.0629 c 0,0.0295 0,0.0437 0.011,0.0552 0.017,0.0923 0.021,0.076 0.031,0.10329 0.02,0.0546 0.053,0.13586 0.1063,0.26287 v 0.008 0.008 c 0.045,0.0929 0.083,0.18354 0.126,0.27561 0.053,0.13437 0.1083,0.27089 0.1499,0.39591 0.031,0.0943 0.056,0.17989 0.07,0.24026 0.014,0.0604 0,0.11368 0.015,0.0424 l -0.012,0.0812 0.023,0.0786 c 0.245,0.83756 0.4617,1.78024 0.7907,2.62527 l 0.1,0.2581 c 0.1132,0.77622 0.2328,1.55089 0.3067,2.2145 -0.5047,0.40541 -0.9331,0.82875 -1.3646,1.20616 -0.2969,0.21545 -0.599,0.43285 -0.8632,0.63361 l -0.043,0.0325 -0.031,0.037 -1.5066,1.03014 0.254,-0.0587 c -0.7793,0.42953 -1.5222,0.92566 -2.1587,1.50698 -0.096,0.0703 -0.1796,0.13427 -0.2457,0.19506 -0.074,0.0686 -0.1432,0.11933 -0.2021,0.26904 -0.03,0.0748 -0.055,0.2009 0.011,0.33444 0.063,0.13353 0.201,0.21668 0.2934,0.24668 0.1847,0.0599 0.2644,0.032 0.3466,0.0204 0.3291,-0.0464 0.6488,-0.17741 0.8986,-0.27984 l 0.09,-0.0371 0.1571,0.20449 c 0.016,0.0208 0.036,0.0358 0.053,0.0557 0,0.003 -7e-4,0.005 0,0.01 0.011,0.11633 0.091,0.26298 0.2032,0.34323 0.1124,0.0802 0.2246,0.10467 0.3178,0.11592 l 0.04,0.005 c 0.2008,0.12029 0.4118,0.21642 0.6167,0.29888 0.314,0.12641 0.619,0.23288 0.8935,0.35654 0.1388,0.0785 0.2774,0.15992 0.4122,0.23438 0.2647,0.14617 0.5109,0.27963 0.6946,0.38264 0.091,0.0515 0.1683,0.0956 0.2193,0.12696 0.051,0.0313 0.093,0.0785 0.031,0.0126 l 0.051,0.0534 0.068,0.0355 c 0.2243,0.11615 0.4894,0.30643 0.8399,0.40407 0.087,0.0244 0.1948,0.0719 0.4118,0.002 0.1085,-0.035 0.235,-0.12712 0.2949,-0.23085 8e-4,-0.001 7e-4,-0.002 0,-0.004 0.034,0.0205 0.079,0.0538 0.1093,0.0714 l 0.3464,0.19703 c 0.043,0.0352 0.084,0.0702 0.127,0.1051 0,0.0207 0.011,0.0442 0.013,0.0693 0,0.011 0.011,0.0232 0.015,0.0493 0,0.0131 0.011,0.0293 0.028,0.0589 0.017,0.0295 0.028,0.0791 0.1541,0.15559 0.032,0.0191 0.073,0.039 0.1251,0.0533 0.052,0.0144 0.1798,0.0172 0.1799,0.0172 v -8.3e-4 c 0.126,0.0894 0.2559,0.17571 0.3903,0.25913 l 0.144,0.42704 -0.011,-0.34544 c 0.036,0.0214 0.071,0.0435 0.1081,0.0642 v 0.0394 c 0,2e-5 0.048,0.0485 0.059,0.0574 0.043,0.0358 0.041,0.0303 0.048,0.0341 0.024,0.0154 0.025,0.0155 0.037,0.0216 0.021,0.0117 0.049,0.0268 0.08,0.043 9e-4,5.3e-4 0,8.8e-4 0,0.001 0.023,0.0129 0.074,0.0414 0.1564,0.0869 0.1294,0.15561 0.256,0.31249 0.3642,0.46709 l 1.686,4.97726 -0.6891,-3.71875 c 0.011,0.008 0.011,0.0126 0.019,0.0214 0.02,0.0217 0.042,0.0408 0.063,0.0619 l 0.011,0.008 0.03,0.0298 c 0.037,0.0374 0.068,0.0667 0.101,0.0969 0.011,0.006 0.013,0.0124 0.019,0.0183 0.016,0.0145 0.038,0.0295 0.056,0.0431 0.058,0.0492 0.1166,0.0985 0.1847,0.14129 0.09,0.0564 0.1919,0.11599 0.3642,0.13506 0.072,0.007 0.159,-0.006 0.2449,-0.0306 0.2495,0.25832 0.5328,0.49792 0.8612,0.70842 0.031,0.0309 0.051,0.0453 0.079,0.0719 0.1617,0.25461 0.3429,0.51414 0.5076,0.70351 0.061,0.0699 0.1076,0.12534 0.1967,0.19211 0.045,0.0334 0.077,0.0917 0.2821,0.1151 0.083,0.01 0.2155,-0.0106 0.3248,-0.0674 0.048,0.0167 0.096,0.0327 0.1554,0.0427 0.1464,0.0244 0.3834,0.003 0.5499,-0.13012 0.02,-0.0166 0.034,-0.0348 0.051,-0.0522 0.066,0.0873 0.1507,0.17311 0.3275,0.21892 0.054,0.0141 0.1098,0.0158 0.1637,0.0132 l -0.1573,0.65801 1.9312,-1.42685 c 0.1052,-0.004 0.1832,-0.0308 0.2336,-0.0566 l 0.1052,1.81861 0.2426,-2.19126 c 0.019,-0.0292 0.036,-0.0462 0.056,-0.0804 v -0.002 -0.002 c 0.072,-0.12252 0.1236,-0.214 0.1615,-0.28944 0.019,-0.0377 0.035,-0.0708 0.049,-0.10992 0.015,-0.0392 0.046,-0.0617 0.032,-0.20748 0,-0.0395 -0.02,-0.10531 -0.062,-0.17247 0.045,-0.11082 0.081,-0.21323 0.102,-0.31637 0.2476,-0.44959 0.5238,-0.88979 0.8259,-1.30225 l -0.018,0.0231 c 0.1649,-0.19619 0.2827,-0.38138 0.385,-0.55129 0.056,-0.0658 0.1304,-0.15826 0.2057,-0.25235 0.2089,-0.21197 0.4795,-0.45699 0.7673,-0.69503 0.3627,-0.29985 0.6971,-0.5576 0.9039,-0.75187 l 0.011,-0.003 0.03,-0.0137 c 0.1446,-0.0673 0.2372,-0.11243 0.3331,-0.17878 0.048,-0.0332 0.1073,-0.0507 0.1831,-0.19722 v -0.0174 c 0.5029,-0.21891 0.9649,-0.44278 1.4131,-0.6169 0.2252,-0.0744 0.3761,-0.12699 0.5912,-0.19507 0.1122,-0.0252 0.225,-0.0444 0.3391,-0.0556 l 0.079,-0.007 0.072,-0.0296 c 0.1326,-0.0546 0.1944,-0.0764 0.2936,-0.13458 0.024,-0.0146 0.05,-0.0182 0.1227,-0.0968 0.031,-0.0333 0.09,-0.0921 0.1063,-0.21629 0.1,-0.01 0.214,-0.0378 0.3121,-0.1372 0.073,-0.0746 0.1052,-0.14615 0.1175,-0.20809 l 0.4518,0.0199 -0.1587,-0.5616 c -0.1259,-0.44483 -0.4954,-0.72435 -0.8948,-0.94282 l 0.2061,-0.12897 -0.2765,0.0911 c -0.049,-0.0254 -0.096,-0.0538 -0.1444,-0.0777 -0.1492,-0.0733 -0.3014,-0.13039 -0.4533,-0.19189 -0.1611,-0.16663 -0.3213,-0.34107 -0.4813,-0.51065 -0.074,-0.12447 -0.1522,-0.24658 -0.2321,-0.37024 l 0.2129,-0.37857 -0.2516,0.32262 c -0.1618,-0.24676 -0.3314,-0.4912 -0.5249,-0.7264 0.011,-0.006 0.019,-0.0106 0.025,-0.0168 0.1568,-0.1664 0.1176,-0.25842 0.115,-0.3075 -0.011,-0.19633 -0.047,-0.19159 -0.081,-0.26715 -0.034,-0.0756 -0.078,-0.16209 -0.1281,-0.25777 -0.101,-0.19138 -0.229,-0.41689 -0.3531,-0.62004 -0.1092,-0.1786 -0.2028,-0.32326 -0.3066,-0.44948 -0.1647,-0.341 -0.4516,-0.72236 -0.7345,-0.98303 -0.074,-0.0682 -0.1336,-0.12948 -0.2778,-0.19126 -0.045,-0.019 -0.1124,-0.0363 -0.1938,-0.0436 -0.013,-0.016 -0.022,-0.032 -0.034,-0.048 -0.1616,-0.22451 -0.2567,-0.3697 -0.5107,-0.48442 0,-0.002 -0.011,-0.003 -0.015,-0.004 l -0.011,-0.0237 c 0.1129,-0.10392 0.2262,-0.23948 0.2927,-0.42961 0.176,-0.38053 0.3064,-0.81883 0.4411,-1.21446 0.011,-0.0272 0.019,-0.047 0.029,-0.0737 0.1681,-0.25946 0.402,-0.58691 0.6464,-0.97061 0.1485,-0.23337 0.294,-0.4806 0.4126,-0.73866 0.3979,-0.28205 0.7814,-0.58045 1.1385,-0.90571 l 0.052,-0.0475 0.034,-0.059 c 0.073,-0.12862 0.1196,-0.20432 0.1535,-0.33144 0.017,-0.0635 0.094,-0.16503 -0.069,-0.3769 -0.038,-0.0497 -0.099,-0.0913 -0.1625,-0.12297 0.3858,-0.24592 0.7546,-0.51909 1.0861,-0.84146 l 2.0973,-2.03912 -2.6818,1.39157 c -0.3723,0.19314 -0.61,0.40676 -0.8311,0.58545 -0.2211,0.17868 -0.4327,0.33687 -0.83,0.51166 l -0.057,0.0254 -0.049,0.0378 c -0.057,0.0451 -0.1991,0.13197 -0.3164,0.20646 -0.5197,0.25637 -1.0609,0.49902 -1.6042,0.74738 -0.2022,0.0659 -0.5378,0.19363 -0.8748,0.3298 l -0.2623,-0.61665 c -0.8381,0.28525 -1.9718,0.63852 -3.0215,0.85608 l 0.027,-0.005 c -0.2078,0.0323 -0.6828,0.12992 -1.113,0.21529 -0.053,0.01 -0.1052,0.0173 -0.1586,0.0266 -0.7793,0.10255 -1.5323,0.24188 -2.2709,0.36324 -0.037,-0.0114 -0.079,-0.0223 -0.1158,-0.0292 -0.084,-0.0492 -0.1867,-0.10616 -0.2922,-0.16467 -0.011,-0.0399 -0.022,-0.0794 -0.033,-0.10073 -0.058,-0.11176 -0.086,-0.1138 -0.1052,-0.12967 -0.075,-0.0635 -0.078,-0.0551 -0.1052,-0.071 -0.028,-0.0158 -0.057,-0.0327 -0.093,-0.0521 -0.071,-0.0388 -0.1632,-0.087 -0.2682,-0.14148 -0.4195,-0.21755 -1.0395,-0.52826 -1.2948,-0.6485 -0.4205,-0.20024 -0.8393,-0.38657 -1.2546,-0.57534 -0.1926,-0.17479 -0.392,-0.344 -0.6004,-0.50475 -0.7015,-0.80835 -1.6235,-1.33865 -2.2868,-1.94065 z m 5.0017,8.14723 c 0.1502,0.11677 0.2988,0.2295 0.448,0.347 l -0.3198,-0.0408 z m -0.5168,0.67349 1.919,2.67424 -0.9626,-2.29821 0.4487,0.027 -6e-4,0.0108 0.2784,0.121 c 0.082,0.0356 0.1644,0.0597 0.2468,0.0849 -10e-5,0.0443 0,0.0888 0.015,0.12511 0.031,0.0877 0.08,0.1384 0.116,0.17144 0.1465,0.1322 0.186,0.10889 0.2352,0.12321 0.1596,0.0464 0.3357,0.0698 0.5423,0.0945 l 1.8453,1.42862 -1.023,-1.3493 c 0.052,0.004 0.1052,0.0107 0.1546,0.014 0.6188,0.16502 1.2373,0.29131 1.8025,0.37617 l 0.026,0.004 0.025,0.001 c 0.1719,0.008 0.3439,0.0113 0.4985,0.006 0.1547,-0.005 0.2618,3.3e-4 0.4474,-0.0597 0.047,-0.015 0.1031,-0.0323 0.184,-0.0944 0.065,-0.0495 0.1469,-0.16212 0.1693,-0.28858 1.4237,-0.0802 2.8466,-0.24795 4.2468,-0.54683 l -0.6945,0.95042 1.0142,-0.40217 c 0,0.001 0,0.004 -0.011,0.005 -0.034,0.0506 -0.036,0.0675 -0.043,0.082 -0.011,0.0292 -0.013,0.0378 -0.015,0.0468 0,0.0179 -0.011,0.0268 -0.011,0.0374 0,0.0212 -0.011,0.0435 -0.013,0.071 -0.011,0.0424 -0.016,0.10318 -0.025,0.16397 -0.2074,0.30019 -0.421,0.63424 -0.626,1.11178 -0.2987,0.43937 -0.5396,0.89062 -0.764,1.34326 l -1.6349,2.37937 0.9529,-0.93811 c -0.1981,0.42789 -0.4003,0.84924 -0.6328,1.24813 l -0.026,0.0447 -0.014,0.0488 c -0.2817,1.00004 -0.5862,2.09887 -0.4076,3.22322 0,0.16815 0.011,0.28366 0.054,0.41927 0.023,0.0701 0.036,0.17141 0.2196,0.28206 0.091,0.0554 0.2424,0.0878 0.3621,0.0702 0.1195,-0.0174 0.1974,-0.0634 0.2485,-0.1001 0.1587,-0.11371 0.1892,-0.18582 0.2188,-0.25936 0,0.0393 -0.014,0.14302 -0.016,0.16587 l -9e-4,0.005 -6e-4,0.005 c -0.1292,1.14657 -0.3591,2.29993 -0.5451,3.46967 v 0.0326 l 5e-4,0.0327 v 0.17699 c 0,0.008 -0.011,0.011 -0.011,0.0218 -0.019,0.0513 -0.064,0.14228 0.011,0.30077 0,0.003 0,0.005 0.011,0.009 10e-5,0.002 0,0.003 0,0.006 0,0.003 0,0.003 0,0.0187 5e-4,0.004 6e-4,0.009 0,0.0196 10e-4,0.006 0.011,0.0344 0.017,0.0617 -0.1213,0.18809 -0.2322,0.38395 -0.3262,0.59128 -0.1386,0.29009 -0.2066,0.5213 -0.1747,0.80305 0,0.0354 0.011,0.0742 0.032,0.13232 0.023,0.0581 0.061,0.15991 0.2282,0.24156 0.09,0.0441 0.2023,0.0494 0.3026,0.0373 -0.038,0.0212 -0.08,0.0403 -0.1169,0.0637 -0.074,0.0474 -0.1371,0.1 -0.2081,0.15206 -0.018,0.007 -0.031,0.0138 -0.043,0.02 v -0.09 l -0.4689,0.0163 c -0.2142,0.007 -0.3262,0.11152 -0.3811,0.16812 -0.055,0.0566 -0.079,0.0977 -0.1,0.13591 -0.019,0.0331 -0.029,0.0617 -0.043,0.0921 -0.011,-0.007 -0.012,-0.0121 -0.018,-0.0197 -0.064,-0.0801 -0.134,-0.17516 -0.2403,-0.2726 -0.053,-0.0487 -0.1065,-0.10594 -0.2526,-0.15612 -0.073,-0.0251 -0.1829,-0.0466 -0.3095,-0.0219 -0.1267,0.0248 -0.2443,0.10116 -0.308,0.17324 -0.1272,0.14382 -0.1278,0.24454 -0.1377,0.33996 -0.1448,-0.22719 -0.2993,-0.43804 -0.4251,-0.59977 -0.089,-0.14401 -0.1491,-0.24974 -0.2313,-0.35497 -0.011,-0.0133 -0.017,-0.0251 -0.055,-0.0612 -0.019,-0.0181 -0.029,-0.0463 -0.1504,-0.0944 -0.061,-0.024 -0.1791,-0.0625 -0.342,-0.0152 -0.057,0.0166 -0.1052,0.0461 -0.149,0.0787 -0.5999,-0.59988 -1.0631,-1.39438 -1.6414,-2.1674 -0.017,-0.069 -0.026,-0.14675 -0.1139,-0.27268 -0.047,-0.0672 -0.1333,-0.15301 -0.2586,-0.2012 -0.011,-0.004 -0.02,-0.003 -0.031,-0.006 -0.1418,-0.17723 -0.3003,-0.35911 -0.4797,-0.55448 -0.1426,-0.7014 -0.3086,-1.39826 -0.4516,-2.08831 0.012,-1.16499 0,-2.35168 -0.3037,-3.54091 -0.2178,-1.3582 -0.5647,-2.7287 -1.1875,-4.01272 l -0.1698,-0.83692 0.032,0.56227 c -0.019,-0.036 -0.035,-0.0728 -0.054,-0.10864 -0.1,-0.22065 -0.1851,-0.43854 -0.268,-0.6548 -0.079,-0.21954 -0.1456,-0.43715 -0.2085,-0.65427 0.028,0.0162 0.063,0.0387 0.063,0.0387 0,2e-5 0.5094,-0.0728 0.5095,-0.0728 0,-3e-5 0.1508,-0.20892 0.1593,-0.2569 0.017,-0.0959 0,-0.11034 7e-4,-0.12893 0,-0.0186 -0.011,-0.0281 -0.011,-0.0358 0,-0.0155 -0.011,-0.0227 -0.011,-0.0297 -0.011,-0.0274 -0.016,-0.0431 -0.025,-0.0679 -0.02,-0.0495 -0.049,-0.11872 -0.086,-0.20304 -0.075,-0.17145 -0.1696,-0.39065 -0.2769,-0.60738 -0.029,-0.0676 -0.067,-0.15255 -0.1041,-0.24013 z m 0.8487,0.11911 0.3655,0.15461 -0.2877,0.0311 z m 9.7018,5.0015 c -0.035,0.14174 -0.063,0.28755 -0.091,0.43297 -0.1903,0.36021 -0.3356,0.72402 -0.4681,1.0837 -0.1198,0.0615 -0.1806,0.15097 -0.212,0.20466 -0.045,0.0763 -0.062,0.1343 -0.079,0.19825 -0.032,0.1182 -0.051,0.26371 -0.07,0.44636 -0.017,0.0701 -0.03,0.15822 -0.045,0.23715 -0.091,0.22581 -0.1911,0.43905 -0.3054,0.63786 0.08,-0.43375 0.1929,-0.87382 0.3171,-1.31533 0.3677,-0.63972 0.6615,-1.29056 0.9528,-1.92562 z m 4.212,1.20978 c 0.02,0.0164 0.019,0.0238 0.017,0.0218 -7e-4,-8.4e-4 -0.015,-0.0192 -0.017,-0.0218 z m -3.0537,0.46519 c 0.1149,0.1653 0.2425,0.31644 0.4061,0.43853 l 0.1664,0.12416 0.011,0.18191 c 0,0.0234 0.011,0.0393 0.012,0.0609 v 4.5e-4 c 0,0.008 0.011,0.0159 0.011,0.0244 0.021,0.12665 0.064,0.22672 0.1236,0.30677 0.2144,0.3804 0.609,0.62438 0.9914,0.75696 0.3105,0.1077 0.6181,0.17692 0.9111,0.24427 l -0.746,0.95675 -0.047,0.0155 c -0.1988,0.0654 -0.3571,0.12164 -0.4798,0.17099 -0.062,0.0247 -0.1128,0.0466 -0.1667,0.0746 -0.026,0.0139 -0.054,0.0285 -0.091,0.0549 -0.037,0.0265 -0.099,0.0455 -0.1649,0.19372 -0.033,0.0741 -0.053,0.20723 0,0.32441 0.033,0.0703 0.081,0.11722 0.1294,0.15382 -0.039,0.0232 -0.08,0.0419 -0.1189,0.0658 l -0.3489,0.21191 0.1257,0.22364 -0.5088,0.65255 c -0.1639,0.11323 -0.3318,0.23117 -0.5002,0.34831 -0.078,0.0405 -0.1544,0.0834 -0.2313,0.12575 9e-4,-0.0335 0,-0.0731 -0.028,-0.14409 -0.011,-0.0152 -0.027,-0.0358 -0.037,-0.0538 0.057,-0.54315 0.076,-1.08163 0.073,-1.61279 0.061,-0.73801 0.1642,-1.48084 0.273,-2.23007 0.108,-0.54467 0.2018,-1.09966 0.2402,-1.67021 z m -12.7953,0.99099 c -0.024,0.11158 -0.043,0.22577 -0.045,0.34506 v 0.006 0.005 c 0,0.16716 0.011,0.27782 0.021,0.37209 0.011,0.0472 0,0.0797 0.048,0.17492 0.022,0.0475 0.044,0.14584 0.2474,0.22685 l 0.09,2.25518 c -0.1172,-0.11789 -0.2386,-0.22922 -0.3815,-0.3195 -0.1052,-0.0663 -0.2227,-0.12766 -0.3848,-0.15538 -0.116,-0.0198 -0.2626,-0.008 -0.3954,0.0365 -0.062,-0.053 -0.135,-0.12562 -0.1901,-0.16661 -0.035,-0.026 -0.069,-0.0496 -0.1092,-0.0738 -0.04,-0.0242 -0.071,-0.0536 -0.1994,-0.0808 -0.065,-0.0136 -0.1781,-0.0356 -0.335,0.0327 -0.1365,0.0595 -0.2199,0.19196 -0.2522,0.28985 -0.011,-0.0108 -0.011,-0.0301 -0.017,-0.0384 -0.05,-0.0667 -0.088,-0.0899 -0.1164,-0.1079 -0.1112,-0.0721 -0.1271,-0.0612 -0.1611,-0.0715 -0.043,-0.0132 -0.1115,-0.0216 -0.16,-0.0325 -0.1173,-0.0573 -0.2417,-0.10583 -0.3817,-0.13722 0.1459,-0.12328 0.287,-0.27045 0.4444,-0.43417 0.3292,-0.34236 0.7695,-0.73626 0.875,-0.78355 l 0.06,-0.0265 0.049,-0.0397 c 0.3667,-0.29623 0.6576,-0.62074 0.9295,-0.94515 0.057,-0.0488 0.1165,-0.0949 0.1703,-0.14681 z m 0.054,0.5522 c 0,0.0175 -0.011,0.034 -0.011,0.0334 0,-4.6e-4 0,-0.01 0.011,-0.0334 z m 15.621,0.75578 c 0.086,0.0864 0.1695,0.17726 0.2549,0.26294 l -0.02,-0.022 c 0.034,0.0397 0.078,0.0726 0.1149,0.11085 l -0.6715,0.22111 z m -14.915,0.48625 c 0.082,0.39405 0.1696,0.78774 0.2792,1.18186 v 1.18419 c -0.011,-0.009 -0.019,-0.017 -0.029,-0.0254 -0.1444,-0.18341 -0.3106,-0.39036 -0.4832,-0.58088 -0.034,-0.0376 -0.07,-0.0711 -0.1042,-0.1073 z m -6.5915,0.37082 c 9e-4,-4e-5 0.011,10e-4 0.011,10e-4 0,2.7e-4 -0.013,0.004 -0.014,0.004 -0.011,9.7e-4 -0.011,-0.005 0.011,-0.006 z m 16.9512,6.93452 c 0,0.002 0,0.008 -0.02,0.0203 0,-0.005 0.023,-0.0235 0.02,-0.0203 z m -2.8161,0.36474 c 0,-0.0106 0.011,-0.006 5e-4,0.013 0,-0.002 -5e-4,-0.0115 -5e-4,-0.013 z"
         style="color:#000000;font-style:normal;font-variant:normal;font-weight:normal;font-stretch:normal;font-size:medium;line-height:normal;font-family:sans-serif;font-variant-ligatures:normal;font-variant-position:normal;font-variant-caps:normal;font-variant-numeric:normal;font-variant-alternates:normal;font-feature-settings:normal;text-indent:0;text-align:start;text-decoration:none;text-decoration-line:none;text-decoration-style:solid;text-decoration-color:#000000;letter-spacing:normal;word-spacing:normal;text-transform:none;writing-mode:lr-tb;direction:ltr;text-orientation:mixed;dominant-baseline:auto;baseline-shift:baseline;text-anchor:start;white-space:normal;shape-padding:0;clip-rule:nonzero;display:inline;overflow:visible;visibility:visible;opacity:1;isolation:auto;mix-blend-mode:normal;color-interpolation:sRGB;color-interpolation-filters:linearRGB;solid-color:#000000;solid-opacity:1;vector-effect:none;fill:url(#linearGradient1475);fill-opacity:1;fill-rule:evenodd;stroke:url(#linearGradient1479);stroke-width:0.15737642;stroke-linecap:round;stroke-linejoin:round;stroke-miterlimit:4;stroke-dasharray:none;stroke-dashoffset:0;stroke-opacity:1;color-rendering:auto;image-rendering:auto;shape-rendering:auto;text-rendering:auto;enable-background:accumulate" />
      <path
         sodipodi:nodetypes="cccccccccccccccscccsscccccccccccccccccccccccccccccccccccccccccccccccccccsccccccccscccccccccccccccccccccccccccccccccccccccccccccccccccccccccccccccccccccccccccccsccccccccccccccccccccccccccccccccccccccccccsccccccccccccccccccccccccccccccccccccccscccccccccccccccccccccscccscccccccccccccccccccsccccsccccccccccccccccccscscccccccccccccccccccccccccccccsccccccccsccccccccccccccccccscccccccccccccccccccccccccsccccccccccccccccccccccccc"
         inkscape:connector-curvature="0"
         id="path1366"
         d="m -1363.9191,219.02005 1.1885,3.04427 -0.7171,-0.68971 0.9241,1.94955 -0.016,0.01 c -0.1299,0.0766 -0.2197,0.2274 -0.2368,0.33496 -0.017,0.10755 0,0.17957 0.023,0.23795 0.025,0.0754 0.059,0.13287 0.096,0.18723 -0.014,0.0215 -0.038,0.044 -0.045,0.0633 -0.035,0.0992 -0.024,0.15718 -0.017,0.19811 0.014,0.0818 0.032,0.11217 0.049,0.1458 0.063,0.12756 0.1513,0.24996 0.3057,0.46146 0.086,0.20358 0.1837,0.40025 0.2849,0.59422 l -0.2927,0.12893 c 0.075,0.13808 0.1645,0.29428 0.247,0.43919 -0.043,0.0338 -0.2628,0.20449 -0.2628,0.20456 0,2e-5 -0.011,0.0208 -0.011,0.0284 l -0.063,0.01 0.038,0.0663 c 0,0.0142 -0.011,0.027 -0.011,0.0343 v 0.0629 c 0,0.0295 0,0.0437 0.011,0.0552 0.017,0.0923 0.021,0.076 0.031,0.10329 0.02,0.0546 0.053,0.13586 0.1063,0.26287 v 0.008 0.008 c 0.045,0.0929 0.083,0.18354 0.126,0.27561 0.053,0.13437 0.1083,0.27089 0.1499,0.39591 0.031,0.0943 0.056,0.17989 0.07,0.24026 0.014,0.0604 0,0.11368 0.015,0.0424 l -0.012,0.0812 0.023,0.0786 c 0.245,0.83756 0.4617,1.78024 0.7907,2.62527 l 0.1,0.2581 c 0.1132,0.77622 0.2328,1.55089 0.3067,2.2145 -0.5047,0.40541 -0.9331,0.82875 -1.3646,1.20616 -0.2969,0.21545 -0.599,0.43285 -0.8632,0.63361 l -0.043,0.0325 -0.031,0.037 -1.5066,1.03014 0.254,-0.0587 c -0.7793,0.42953 -1.5222,0.92566 -2.1587,1.50698 -0.096,0.0703 -0.1796,0.13427 -0.2457,0.19506 -0.074,0.0686 -0.1432,0.11933 -0.2021,0.26904 -0.03,0.0748 -0.055,0.2009 0.011,0.33444 0.063,0.13353 0.201,0.21668 0.2934,0.24668 0.1847,0.0599 0.2644,0.032 0.3466,0.0204 0.3291,-0.0464 0.6488,-0.17741 0.8986,-0.27984 l 0.09,-0.0371 0.1571,0.20449 c 0.016,0.0208 0.036,0.0358 0.053,0.0557 0,0.003 -7e-4,0.005 0,0.01 0.011,0.11633 0.091,0.26298 0.2032,0.34323 0.1124,0.0802 0.2246,0.10467 0.3178,0.11592 l 0.04,0.005 c 0.2008,0.12029 0.4118,0.21642 0.6167,0.29888 0.314,0.12641 0.619,0.23288 0.8935,0.35654 0.1388,0.0785 0.2774,0.15992 0.4122,0.23438 0.2647,0.14617 0.5109,0.27963 0.6946,0.38264 0.091,0.0515 0.1683,0.0956 0.2193,0.12696 0.051,0.0313 0.093,0.0785 0.031,0.0126 l 0.051,0.0534 0.068,0.0355 c 0.2243,0.11615 0.4894,0.30643 0.8399,0.40407 0.087,0.0244 0.1948,0.0719 0.4118,0.002 0.1085,-0.035 0.235,-0.12712 0.2949,-0.23085 8e-4,-0.001 7e-4,-0.002 0,-0.004 0.034,0.0205 0.079,0.0538 0.1093,0.0714 l 0.3464,0.19703 c 0.043,0.0352 0.084,0.0702 0.127,0.1051 0,0.0207 0.011,0.0442 0.013,0.0693 0,0.011 0.011,0.0232 0.015,0.0493 0,0.0131 0.011,0.0293 0.028,0.0589 0.017,0.0295 0.028,0.0791 0.1541,0.15559 0.032,0.0191 0.073,0.039 0.1251,0.0533 0.052,0.0144 0.1798,0.0172 0.1799,0.0172 v -8.3e-4 c 0.126,0.0894 0.2559,0.17571 0.3903,0.25913 l 0.144,0.42704 -0.011,-0.34544 c 0.036,0.0214 0.071,0.0435 0.1081,0.0642 v 0.0394 c 0,2e-5 0.048,0.0485 0.059,0.0574 0.043,0.0358 0.041,0.0303 0.048,0.0341 0.024,0.0154 0.025,0.0155 0.037,0.0216 0.021,0.0117 0.049,0.0268 0.08,0.043 9e-4,5.3e-4 0,8.8e-4 0,0.001 0.023,0.0129 0.074,0.0414 0.1564,0.0869 0.1294,0.15561 0.256,0.31249 0.3642,0.46709 l 1.686,4.97726 -0.6891,-3.71875 c 0.011,0.008 0.011,0.0126 0.019,0.0214 0.02,0.0217 0.042,0.0408 0.063,0.0619 l 0.011,0.008 0.03,0.0298 c 0.037,0.0374 0.068,0.0667 0.101,0.0969 0.011,0.006 0.013,0.0124 0.019,0.0183 0.016,0.0145 0.038,0.0295 0.056,0.0431 0.058,0.0492 0.1166,0.0985 0.1847,0.14129 0.09,0.0564 0.1919,0.11599 0.3642,0.13506 0.072,0.007 0.159,-0.006 0.2449,-0.0306 0.2495,0.25832 0.5328,0.49792 0.8612,0.70842 0.031,0.0309 0.051,0.0453 0.079,0.0719 0.1617,0.25461 0.3429,0.51414 0.5076,0.70351 0.061,0.0699 0.1076,0.12534 0.1967,0.19211 0.045,0.0334 0.077,0.0917 0.2821,0.1151 0.083,0.01 0.2155,-0.0106 0.3248,-0.0674 0.048,0.0167 0.096,0.0327 0.1554,0.0427 0.1464,0.0244 0.3834,0.003 0.5499,-0.13012 0.02,-0.0166 0.034,-0.0348 0.051,-0.0522 0.066,0.0873 0.1507,0.17311 0.3275,0.21892 0.054,0.0141 0.1098,0.0158 0.1637,0.0132 l -0.2394,0.73999 2.0133,-1.50883 c 0.1052,-0.004 0.1832,-0.0308 0.2336,-0.0566 l 0.1052,1.81861 0.2426,-2.19126 c 0.019,-0.0292 0.036,-0.0462 0.056,-0.0804 v -0.002 -0.002 c 0.072,-0.12252 0.1236,-0.214 0.1615,-0.28944 0.019,-0.0377 0.035,-0.0708 0.049,-0.10992 0.015,-0.0392 0.046,-0.0617 0.032,-0.20748 0,-0.0395 -0.02,-0.10531 -0.062,-0.17247 0.045,-0.11082 0.081,-0.21323 0.102,-0.31637 0.2476,-0.44959 0.5238,-0.88979 0.8259,-1.30225 l -0.018,0.0231 c 0.1649,-0.19619 0.2827,-0.38138 0.385,-0.55129 0.056,-0.0658 0.1304,-0.15826 0.2057,-0.25235 0.2089,-0.21197 0.4795,-0.45699 0.7673,-0.69503 0.3627,-0.29985 0.6971,-0.5576 0.9039,-0.75187 l 0.011,-0.003 0.03,-0.0137 c 0.1446,-0.0673 0.2372,-0.11243 0.3331,-0.17878 0.048,-0.0332 0.1073,-0.0507 0.1831,-0.19722 v -0.0174 c 0.5029,-0.21891 0.9649,-0.44278 1.4131,-0.6169 0.2252,-0.0744 0.3761,-0.12699 0.5912,-0.19507 0.1122,-0.0252 0.225,-0.0444 0.3391,-0.0556 l 0.079,-0.007 0.072,-0.0296 c 0.1326,-0.0546 0.1944,-0.0764 0.2936,-0.13458 0.024,-0.0146 0.05,-0.0182 0.1227,-0.0968 0.031,-0.0333 0.09,-0.0921 0.1063,-0.21629 0.1,-0.01 0.214,-0.0378 0.3121,-0.1372 0.073,-0.0746 0.1052,-0.14615 0.1175,-0.20809 l 0.4518,0.0199 -0.1587,-0.5616 c -0.1259,-0.44483 -0.4954,-0.72435 -0.8948,-0.94282 l 0.2061,-0.12897 -0.2765,0.0911 c -0.049,-0.0254 -0.096,-0.0538 -0.1444,-0.0777 -0.1492,-0.0733 -0.3014,-0.13039 -0.4533,-0.19189 -0.1611,-0.16663 -0.3213,-0.34107 -0.4813,-0.51065 -0.074,-0.12447 -0.1522,-0.24658 -0.2321,-0.37024 l 0.2129,-0.37857 -0.2516,0.32262 c -0.1618,-0.24676 -0.3314,-0.4912 -0.5249,-0.7264 0.011,-0.006 0.019,-0.0106 0.025,-0.0168 0.1568,-0.1664 0.1176,-0.25842 0.115,-0.3075 -0.011,-0.19633 -0.047,-0.19159 -0.081,-0.26715 -0.034,-0.0756 -0.078,-0.16209 -0.1281,-0.25777 -0.101,-0.19138 -0.229,-0.41689 -0.3531,-0.62004 -0.1092,-0.1786 -0.2028,-0.32326 -0.3066,-0.44948 -0.1647,-0.341 -0.4516,-0.72236 -0.7345,-0.98303 -0.074,-0.0682 -0.1336,-0.12948 -0.2778,-0.19126 -0.045,-0.019 -0.1124,-0.0363 -0.1938,-0.0436 -0.013,-0.016 -0.022,-0.032 -0.034,-0.048 -0.1616,-0.22451 -0.2567,-0.3697 -0.5107,-0.48442 0,-0.002 -0.011,-0.003 -0.015,-0.004 l -0.011,-0.0237 c 0.1129,-0.10392 0.2262,-0.23948 0.2927,-0.42961 0.176,-0.38053 0.3064,-0.81883 0.4411,-1.21446 0.011,-0.0272 0.019,-0.047 0.029,-0.0737 0.1681,-0.25946 0.402,-0.58691 0.6464,-0.97061 0.1485,-0.23337 0.294,-0.4806 0.4126,-0.73866 0.3979,-0.28205 0.7814,-0.58045 1.1385,-0.90571 l 0.052,-0.0475 0.034,-0.059 c 0.073,-0.12862 0.1196,-0.20432 0.1535,-0.33144 0.017,-0.0635 0.094,-0.16503 -0.069,-0.3769 -0.038,-0.0497 -0.099,-0.0913 -0.1625,-0.12297 0.3858,-0.24592 0.7546,-0.51909 1.0861,-0.84146 l 2.0973,-2.03912 -2.6818,1.39157 c -0.3723,0.19314 -0.61,0.40676 -0.8311,0.58545 -0.2211,0.17868 -0.4327,0.33687 -0.83,0.51166 l -0.057,0.0254 -0.049,0.0378 c -0.057,0.0451 -0.1991,0.13197 -0.3164,0.20646 -0.5197,0.25637 -1.0609,0.49902 -1.6042,0.74738 -0.2022,0.0659 -0.5378,0.19363 -0.8748,0.3298 l -0.2623,-0.61665 c -0.8381,0.28525 -1.9718,0.63852 -3.0215,0.85608 l 0.027,-0.005 c -0.2078,0.0323 -0.6828,0.12992 -1.113,0.21529 -0.053,0.01 -0.1052,0.0173 -0.1586,0.0266 -0.7793,0.10255 -1.5323,0.24188 -2.2709,0.36324 -0.037,-0.0114 -0.079,-0.0223 -0.1158,-0.0292 -0.084,-0.0492 -0.1867,-0.10616 -0.2922,-0.16467 -0.011,-0.0399 -0.022,-0.0794 -0.033,-0.10073 -0.058,-0.11176 -0.086,-0.1138 -0.1052,-0.12967 -0.075,-0.0635 -0.078,-0.0551 -0.1052,-0.071 -0.028,-0.0158 -0.057,-0.0327 -0.093,-0.0521 -0.071,-0.0388 -0.1632,-0.087 -0.2682,-0.14148 -0.4195,-0.21755 -1.0395,-0.52826 -1.2948,-0.6485 -0.4205,-0.20024 -0.8393,-0.38657 -1.2546,-0.57534 -0.1926,-0.17479 -0.392,-0.344 -0.6004,-0.50475 -0.7015,-0.80835 -1.6235,-1.33865 -2.2868,-1.94065 z m 5.0017,8.14723 c 0.1502,0.11677 0.2988,0.2295 0.448,0.347 l -0.3198,-0.0408 z m -0.5168,0.67349 1.919,2.67424 -0.9626,-2.29821 0.4487,0.027 -6e-4,0.0108 0.2784,0.121 c 0.082,0.0356 0.1644,0.0597 0.2468,0.0849 -10e-5,0.0443 0,0.0888 0.015,0.12511 0.031,0.0877 0.08,0.1384 0.116,0.17144 0.1465,0.1322 0.186,0.10889 0.2352,0.12321 0.1596,0.0464 0.3357,0.0698 0.5423,0.0945 l 1.8453,1.42862 -1.023,-1.3493 c 0.052,0.004 0.1052,0.0107 0.1546,0.014 0.6188,0.16502 1.2373,0.29131 1.8025,0.37617 l 0.026,0.004 0.025,0.001 c 0.1719,0.008 0.3439,0.0113 0.4985,0.006 0.1547,-0.005 0.2618,3.3e-4 0.4474,-0.0597 0.047,-0.015 0.1031,-0.0323 0.184,-0.0944 0.065,-0.0495 0.1469,-0.16212 0.1693,-0.28858 1.4237,-0.0802 2.8466,-0.24795 4.2468,-0.54683 l -0.6945,0.95042 1.0142,-0.40217 c 0,0.001 0,0.004 -0.011,0.005 -0.034,0.0506 -0.036,0.0675 -0.043,0.082 -0.011,0.0292 -0.013,0.0378 -0.015,0.0468 0,0.0179 -0.011,0.0268 -0.011,0.0374 0,0.0212 -0.011,0.0435 -0.013,0.071 -0.011,0.0424 -0.016,0.10318 -0.025,0.16397 -0.2074,0.30019 -0.421,0.63424 -0.626,1.11178 -0.2987,0.43937 -0.5396,0.89062 -0.764,1.34326 l -1.6349,2.37937 0.9529,-0.93811 c -0.1981,0.42789 -0.4003,0.84924 -0.6328,1.24813 l -0.026,0.0447 -0.014,0.0488 c -0.2817,1.00004 -0.5862,2.09887 -0.4076,3.22322 0,0.16815 0.011,0.28366 0.054,0.41927 0.023,0.0701 0.036,0.17141 0.2196,0.28206 0.091,0.0554 0.2424,0.0878 0.3621,0.0702 0.1195,-0.0174 0.1974,-0.0634 0.2485,-0.1001 0.1587,-0.11371 0.1892,-0.18582 0.2188,-0.25936 0,0.0393 -0.014,0.14302 -0.016,0.16587 l -9e-4,0.005 -6e-4,0.005 c -0.1292,1.14657 -0.3591,2.29993 -0.5451,3.46967 v 0.0326 l 5e-4,0.0327 v 0.17699 c 0,0.008 -0.011,0.011 -0.011,0.0218 -0.019,0.0513 -0.064,0.14228 0.011,0.30077 0,0.003 0,0.005 0.011,0.009 10e-5,0.002 0,0.003 0,0.006 0,0.003 0,0.003 0,0.0187 5e-4,0.004 6e-4,0.009 0,0.0196 10e-4,0.006 0.011,0.0344 0.017,0.0617 -0.1213,0.18809 -0.2322,0.38395 -0.3262,0.59128 -0.1386,0.29009 -0.2066,0.5213 -0.1747,0.80305 0,0.0354 0.011,0.0742 0.032,0.13232 0.023,0.0581 0.061,0.15991 0.2282,0.24156 0.09,0.0441 0.2023,0.0494 0.3026,0.0373 -0.038,0.0212 -0.08,0.0403 -0.1169,0.0637 -0.074,0.0474 -0.1371,0.1 -0.2081,0.15206 -0.018,0.007 -0.031,0.0138 -0.043,0.02 v -0.09 l -0.4689,0.0163 c -0.2142,0.007 -0.3262,0.11152 -0.3811,0.16812 -0.055,0.0566 -0.079,0.0977 -0.1,0.13591 -0.019,0.0331 -0.029,0.0617 -0.043,0.0921 -0.011,-0.007 -0.012,-0.0121 -0.018,-0.0197 -0.064,-0.0801 -0.134,-0.17516 -0.2403,-0.2726 -0.053,-0.0487 -0.1065,-0.10594 -0.2526,-0.15612 -0.073,-0.0251 -0.1829,-0.0466 -0.3095,-0.0219 -0.1267,0.0248 -0.2443,0.10116 -0.308,0.17324 -0.1272,0.14382 -0.1278,0.24454 -0.1377,0.33996 -0.1448,-0.22719 -0.2993,-0.43804 -0.4251,-0.59977 -0.089,-0.14401 -0.1491,-0.24974 -0.2313,-0.35497 -0.011,-0.0133 -0.017,-0.0251 -0.055,-0.0612 -0.019,-0.0181 -0.029,-0.0463 -0.1504,-0.0944 -0.061,-0.024 -0.1791,-0.0625 -0.342,-0.0152 -0.057,0.0166 -0.1052,0.0461 -0.149,0.0787 -0.5999,-0.59988 -1.0631,-1.39438 -1.6414,-2.1674 -0.017,-0.069 -0.026,-0.14675 -0.1139,-0.27268 -0.047,-0.0672 -0.1333,-0.15301 -0.2586,-0.2012 -0.011,-0.004 -0.02,-0.003 -0.031,-0.006 -0.1418,-0.17723 -0.3003,-0.35911 -0.4797,-0.55448 -0.1426,-0.7014 -0.3086,-1.39826 -0.4516,-2.08831 0.012,-1.16499 0,-2.35168 -0.3037,-3.54091 -0.2178,-1.3582 -0.5647,-2.7287 -1.1875,-4.01272 l -0.1698,-0.83692 0.032,0.56227 c -0.019,-0.036 -0.035,-0.0728 -0.054,-0.10864 -0.1,-0.22065 -0.1851,-0.43854 -0.268,-0.6548 -0.079,-0.21954 -0.1456,-0.43715 -0.2085,-0.65427 0.028,0.0162 0.063,0.0387 0.063,0.0387 0,2e-5 0.5094,-0.0728 0.5095,-0.0728 0,-3e-5 0.1508,-0.20892 0.1593,-0.2569 0.017,-0.0959 0,-0.11034 7e-4,-0.12893 0,-0.0186 -0.011,-0.0281 -0.011,-0.0358 0,-0.0155 -0.011,-0.0227 -0.011,-0.0297 -0.011,-0.0274 -0.016,-0.0431 -0.025,-0.0679 -0.02,-0.0495 -0.049,-0.11872 -0.086,-0.20304 -0.075,-0.17145 -0.1696,-0.39065 -0.2769,-0.60738 -0.029,-0.0676 -0.067,-0.15255 -0.1041,-0.24013 z m 0.8487,0.11911 0.3655,0.15461 -0.2877,0.0311 z m 9.7018,5.0015 c -0.035,0.14174 -0.063,0.28755 -0.091,0.43297 -0.1903,0.36021 -0.3356,0.72402 -0.4681,1.0837 -0.1198,0.0615 -0.1806,0.15097 -0.212,0.20466 -0.045,0.0763 -0.062,0.1343 -0.079,0.19825 -0.032,0.1182 -0.051,0.26371 -0.07,0.44636 -0.017,0.0701 -0.03,0.15822 -0.045,0.23715 -0.091,0.22581 -0.1911,0.43905 -0.3054,0.63786 0.08,-0.43375 0.1929,-0.87382 0.3171,-1.31533 0.3677,-0.63972 0.6615,-1.29056 0.9528,-1.92562 z m 4.212,1.20978 c 0.02,0.0164 0.019,0.0238 0.017,0.0218 -7e-4,-8.4e-4 -0.015,-0.0192 -0.017,-0.0218 z m -3.0537,0.46519 c 0.1149,0.1653 0.2425,0.31644 0.4061,0.43853 l 0.1664,0.12416 0.011,0.18191 c 0,0.0234 0.011,0.0393 0.012,0.0609 v 4.5e-4 c 0,0.008 0.011,0.0159 0.011,0.0244 0.021,0.12665 0.064,0.22672 0.1236,0.30677 0.2144,0.3804 0.609,0.62438 0.9914,0.75696 0.3105,0.1077 0.6181,0.17692 0.9111,0.24427 l -0.746,0.95675 -0.047,0.0155 c -0.1988,0.0654 -0.3571,0.12164 -0.4798,0.17099 -0.062,0.0247 -0.1128,0.0466 -0.1667,0.0746 -0.026,0.0139 -0.054,0.0285 -0.091,0.0549 -0.037,0.0265 -0.099,0.0455 -0.1649,0.19372 -0.033,0.0741 -0.053,0.20723 0,0.32441 0.033,0.0703 0.081,0.11722 0.1294,0.15382 -0.039,0.0232 -0.08,0.0419 -0.1189,0.0658 l -0.3489,0.21191 0.1257,0.22364 -0.5088,0.65255 c -0.1639,0.11323 -0.3318,0.23117 -0.5002,0.34831 -0.078,0.0405 -0.1544,0.0834 -0.2313,0.12575 9e-4,-0.0335 0,-0.0731 -0.028,-0.14409 -0.011,-0.0152 -0.027,-0.0358 -0.037,-0.0538 0.057,-0.54315 0.076,-1.08163 0.073,-1.61279 0.061,-0.73801 0.1642,-1.48084 0.273,-2.23007 0.108,-0.54467 0.2018,-1.09966 0.2402,-1.67021 z m -12.7953,0.99099 c -0.024,0.11158 -0.043,0.22577 -0.045,0.34506 v 0.006 0.005 c 0,0.16716 0.011,0.27782 0.021,0.37209 0.011,0.0472 0,0.0797 0.048,0.17492 0.022,0.0475 0.044,0.14584 0.2474,0.22685 l 0.09,2.25518 c -0.1172,-0.11789 -0.2386,-0.22922 -0.3815,-0.3195 -0.1052,-0.0663 -0.2227,-0.12766 -0.3848,-0.15538 -0.116,-0.0198 -0.2626,-0.008 -0.3954,0.0365 -0.062,-0.053 -0.135,-0.12562 -0.1901,-0.16661 -0.035,-0.026 -0.069,-0.0496 -0.1092,-0.0738 -0.04,-0.0242 -0.071,-0.0536 -0.1994,-0.0808 -0.065,-0.0136 -0.1781,-0.0356 -0.335,0.0327 -0.1365,0.0595 -0.2199,0.19196 -0.2522,0.28985 -0.011,-0.0108 -0.011,-0.0301 -0.017,-0.0384 -0.05,-0.0667 -0.088,-0.0899 -0.1164,-0.1079 -0.1112,-0.0721 -0.1271,-0.0612 -0.1611,-0.0715 -0.043,-0.0132 -0.1115,-0.0216 -0.16,-0.0325 -0.1173,-0.0573 -0.2417,-0.10583 -0.3817,-0.13722 0.1459,-0.12328 0.287,-0.27045 0.4444,-0.43417 0.3292,-0.34236 0.7695,-0.73626 0.875,-0.78355 l 0.06,-0.0265 0.049,-0.0397 c 0.3667,-0.29623 0.6576,-0.62074 0.9295,-0.94515 0.057,-0.0488 0.1165,-0.0949 0.1703,-0.14681 z m 0.054,0.5522 c 0,0.0175 -0.011,0.034 -0.011,0.0334 0,-4.6e-4 0,-0.01 0.011,-0.0334 z m 15.621,0.75578 c 0.086,0.0864 0.1695,0.17726 0.2549,0.26294 l -0.02,-0.022 c 0.034,0.0397 0.078,0.0726 0.1149,0.11085 l -0.6715,0.22111 z m -14.915,0.48625 c 0.082,0.39405 0.1696,0.78774 0.2792,1.18186 v 1.18419 c -0.011,-0.009 -0.019,-0.017 -0.029,-0.0254 -0.1444,-0.18341 -0.3106,-0.39036 -0.4832,-0.58088 -0.034,-0.0376 -0.07,-0.0711 -0.1042,-0.1073 z m -6.5915,0.37082 c 9e-4,-4e-5 0.011,10e-4 0.011,10e-4 0,2.7e-4 -0.013,0.004 -0.014,0.004 -0.011,9.7e-4 -0.011,-0.005 0.011,-0.006 z m 16.9512,6.93452 c 0,0.002 0,0.008 -0.02,0.0203 0,-0.005 0.023,-0.0235 0.02,-0.0203 z m -2.8161,0.36474 c 0,-0.0106 0.011,-0.006 5e-4,0.013 0,-0.002 -5e-4,-0.0115 -5e-4,-0.013 z"
         style="color:#000000;font-style:normal;font-variant:normal;font-weight:normal;font-stretch:normal;font-size:medium;line-height:normal;font-family:sans-serif;font-variant-ligatures:normal;font-variant-position:normal;font-variant-caps:normal;font-variant-numeric:normal;font-variant-alternates:normal;font-feature-settings:normal;text-indent:0;text-align:start;text-decoration:none;text-decoration-line:none;text-decoration-style:solid;text-decoration-color:#000000;letter-spacing:normal;word-spacing:normal;text-transform:none;writing-mode:lr-tb;direction:ltr;text-orientation:mixed;dominant-baseline:auto;baseline-shift:baseline;text-anchor:start;white-space:normal;shape-padding:0;clip-rule:nonzero;display:inline;overflow:visible;visibility:visible;opacity:1;isolation:auto;mix-blend-mode:normal;color-interpolation:sRGB;color-interpolation-filters:linearRGB;solid-color:#000000;solid-opacity:1;vector-effect:none;fill:url(#radialGradient1405);fill-opacity:1;fill-rule:evenodd;stroke:url(#linearGradient1403);stroke-width:0.4229306;stroke-linecap:round;stroke-linejoin:round;stroke-miterlimit:5;stroke-dasharray:none;stroke-dashoffset:0;stroke-opacity:0.49038463;color-rendering:auto;image-rendering:auto;shape-rendering:auto;text-rendering:auto;enable-background:accumulate" />
      <path
         inkscape:connector-curvature="0"
         id="path1295"
         d="m -1347.8761,234.15301 c -0.4987,2.22235 -1.2824,2.61397 -1.4249,3.3122 -0.1425,0.69824 1.4249,-0.21155 1.6387,-1.16399 0.2137,-0.95243 -0.2138,-2.14821 -0.2138,-2.14821 z"
         style="color:#000000;clip-rule:nonzero;display:inline;overflow:visible;visibility:visible;opacity:1;isolation:auto;mix-blend-mode:normal;color-interpolation:sRGB;color-interpolation-filters:linearRGB;solid-color:#000000;solid-opacity:1;vector-effect:none;fill:#abfe00;fill-opacity:1;fill-rule:evenodd;stroke:#00ee6b;stroke-width:0.23778832;stroke-linecap:round;stroke-linejoin:miter;stroke-miterlimit:4;stroke-dasharray:none;stroke-dashoffset:0;stroke-opacity:1;marker:none;color-rendering:auto;image-rendering:auto;shape-rendering:auto;text-rendering:auto;enable-background:accumulate" />
      <path
         sodipodi:nodetypes="ccc"
         inkscape:connector-curvature="0"
         id="path1293"
         d="m -1359.1523,235.05931 c 2.646,0.72272 2.8912,2.74065 2.8912,2.74065 0,0 -2.0826,1.18949 -2.8912,-2.74065 z"
         style="color:#000000;clip-rule:nonzero;display:inline;overflow:visible;visibility:visible;opacity:1;isolation:auto;mix-blend-mode:normal;color-interpolation:sRGB;color-interpolation-filters:linearRGB;solid-color:#000000;solid-opacity:1;vector-effect:none;fill:#abfe00;fill-opacity:1;fill-rule:evenodd;stroke:#00ee6b;stroke-width:0.20091522;stroke-linecap:round;stroke-linejoin:miter;stroke-miterlimit:4;stroke-dasharray:none;stroke-dashoffset:0;stroke-opacity:1;marker:none;color-rendering:auto;image-rendering:auto;shape-rendering:auto;text-rendering:auto;enable-background:accumulate" />
      <path
         inkscape:connector-curvature="0"
         id="path1504"
         d="m -1357.5427,236.40848 -11.6531,0.65604 11.7509,0.16874 z"
         style="color:#000000;clip-rule:nonzero;display:inline;overflow:visible;visibility:visible;opacity:1;isolation:auto;mix-blend-mode:normal;color-interpolation:sRGB;color-interpolation-filters:linearRGB;solid-color:#000000;solid-opacity:1;vector-effect:none;fill:url(#linearGradient1598);fill-opacity:1;fill-rule:evenodd;stroke:none;stroke-width:0.4229306;stroke-linecap:round;stroke-linejoin:round;stroke-miterlimit:5;stroke-dasharray:none;stroke-dashoffset:0;stroke-opacity:0.75294118;marker:none;color-rendering:auto;image-rendering:auto;shape-rendering:auto;text-rendering:auto;enable-background:accumulate" />
      <path
         style="color:#000000;clip-rule:nonzero;display:inline;overflow:visible;visibility:visible;opacity:1;isolation:auto;mix-blend-mode:normal;color-interpolation:sRGB;color-interpolation-filters:linearRGB;solid-color:#000000;solid-opacity:1;vector-effect:none;fill:url(#linearGradient1514);fill-opacity:1;fill-rule:evenodd;stroke:none;stroke-width:0.4229306;stroke-linecap:round;stroke-linejoin:round;stroke-miterlimit:5;stroke-dasharray:none;stroke-dashoffset:0;stroke-opacity:0.75294118;marker:none;color-rendering:auto;image-rendering:auto;shape-rendering:auto;text-rendering:auto;enable-background:accumulate"
         d="m -1357.5427,236.40848 -11.6531,0.65604 11.7509,0.16874 z"
         id="path1516"
         inkscape:connector-curvature="0" />
      <ellipse
         transform="matrix(0.9998838,-0.0152445,0,1,0,0)"
         ry="0.50770664"
         rx="0.58690649"
         cy="216.1562"
         cx="-1357.5833"
         id="path1497"
         style="color:#000000;clip-rule:nonzero;display:inline;overflow:visible;visibility:visible;opacity:1;isolation:auto;mix-blend-mode:normal;color-interpolation:sRGB;color-interpolation-filters:linearRGB;solid-color:#000000;solid-opacity:1;vector-effect:none;fill:url(#radialGradient1558);fill-opacity:1;fill-rule:evenodd;stroke:none;stroke-width:0.3573688;stroke-linecap:round;stroke-linejoin:round;stroke-miterlimit:5;stroke-dasharray:none;stroke-dashoffset:0;stroke-opacity:0.75294118;marker:none;color-rendering:auto;image-rendering:auto;shape-rendering:auto;text-rendering:auto;enable-background:accumulate" />
      <path
         transform="matrix(0.26458332,0,0,0.26458332,-1370.6978,216.99567)"
         sodipodi:nodetypes="cccsccccccccccccccccccscccccccccccccccccccccccccccccccccccccccccccccccccccccccccccccccccccccccccccccccccccccccccccccccccccccccccccccccccccccccccsccccccccccccccccccccccccccccccccccccccccccccccccscccccccccccccccccccccccccccccccccccccccccccccccsc"
         inkscape:connector-curvature="0"
         id="path886"
         d="m 90.767578,49.917969 c -3.815049,3.772361 -3.770006,9.119003 -4.361328,10.009765 0.361539,-0.426016 1.38949,-1.328078 1.015625,1.886719 -0.51515,4.432933 1.958984,0.310647 1.958984,4.640625 0,4.329827 0.928145,2.370147 1.031326,4.122714 0.08682,1.491129 1.257152,1.874362 2.376877,3.025724 0.181232,0.07625 0.361754,0.165687 0.542969,0.228515 1.173544,0.407055 2.335958,0.669277 3.44336,0.923828 l -2.820313,3.615235 -0.177734,0.05859 c -0.75137,0.24718 -1.348752,0.459964 -1.8125,0.646484 -0.234331,0.09335 -0.427143,0.175423 -0.63086,0.28125 -0.09827,0.05254 -0.203907,0.109205 -0.34375,0.208984 -0.139842,0.100158 -0.373977,0.172221 -0.623046,0.732422 -0.124725,0.280063 -0.200315,0.781724 0,1.22461 0.124723,0.265699 0.305352,0.4437 0.488281,0.582031 -0.147402,0.08769 -0.302195,0.157716 -0.449219,0.248047 L 89.087891,83.154297 89.5625,84 87.640625,86.466797 c -0.619465,0.427956 -1.254153,0.873672 -1.890625,1.316406 -0.208615,0.108319 -0.41377,0.222485 -0.619141,0.335938 -0.594994,3.442011 -2.078725,6.062499 -1.730468,7.716797 0.412346,1.958739 -1.132478,-2.784581 -1.029297,-4.53711 0.09759,-1.676038 -1.589387,6.254843 -0.925782,10.107422 0.907848,-1.631275 1.909858,-3.229468 3.007813,-4.728516 l -0.06836,0.08789 c 0.623244,-0.741506 1.068432,-1.441805 1.455078,-2.083984 0.211653,-0.248693 0.492745,-0.599463 0.777344,-0.955079 0.789542,-0.801145 1.812642,-1.727274 2.90039,-2.626953 1.370835,-1.133291 2.634409,-2.107548 3.416016,-2.841797 l 0.04297,-0.0098 0.113282,-0.05273 c 0.546519,-0.254361 0.895356,-0.425009 1.257812,-0.675781 0.181418,-0.12548 0.404919,-0.190364 0.691406,-0.74414 v -0.06641 c 1.900725,-0.827376 3.647812,-1.67394 5.341797,-2.332031 0.85115,-0.281197 1.4214,-0.479018 2.23437,-0.736328 0.42407,-0.09524 0.85001,-0.168608 1.28125,-0.210937 l 0.29883,-0.02734 0.27149,-0.111328 c 0.50116,-0.206363 0.73641,-0.28792 1.11132,-0.507813 0.0907,-0.05518 0.18812,-0.07012 0.4629,-0.367187 0.11716,-0.125859 0.34073,-0.347027 0.40234,-0.816407 0.37795,-0.0378 0.80892,-0.143846 1.17969,-0.519531 0.2759,-0.281953 0.39687,-0.551052 0.44336,-0.785156 l 1.70703,0.07422 -0.59961,-2.123047 c -0.47584,-1.681248 -1.87132,-2.736787 -3.38086,-3.5625 l 0.7793,-0.488282 -1.04688,0.345704 c -0.1852,-0.096 -0.36199,-0.204592 -0.54492,-0.294922 -0.56391,-0.27704 -1.13878,-0.492169 -1.71289,-0.72461 -0.60888,-0.629782 -1.21559,-1.288755 -1.82031,-1.929687 -0.27969,-0.470438 -0.57497,-0.933014 -0.87696,-1.400391 l 0.80469,-1.429687 -0.95117,1.21875 c -0.61153,-0.932637 -1.251084,-1.857149 -1.982423,-2.746094 0.04157,-0.02268 0.07107,-0.03907 0.09375,-0.0625 0.59263,-0.628913 0.445374,-0.97661 0.435547,-1.162109 C 98.929128,65.267731 98.792566,65.285581 98.664062,65 98.53556,64.714268 98.369041,64.387016 98.179688,64.025391 97.797955,63.302065 97.314743,62.449452 96.845703,61.681641 96.432979,61.006617 96.077862,60.459474 95.685547,59.982422 95.063059,58.693603 93.979385,57.252788 92.910156,56.267578 92.630471,56.009814 92.404383,55.778421 91.859375,55.544922 91.689296,55.473111 91.434607,55.40845 91.126953,55.380859 91.077819,55.320387 91.045354,55.259691 91,55.199219 c -0.610772,-0.848542 -0.971641,-1.398445 -1.931641,-1.832031 0,-0.0076 -0.04152,-0.0099 -0.05664,-0.01367 l -0.04102,-0.08984 c 0.426709,-0.392769 0.85413,-0.906399 1.105469,-1.625 0.25336,-0.547791 0.47763,-1.130538 0.691406,-1.720703 z M 86.40625,59.927734 c -0.136992,0.161424 -0.185641,0.25788 -0.01563,0.03125 0.0057,-0.0076 0.01002,-0.02281 0.01563,-0.03125 z m -48.849609,1.382813 c -1.834333,1.490346 -3.411831,3.037912 -4.994141,4.421875 -1.122142,0.814299 -2.263168,1.635753 -3.261719,2.394531 L 29.136719,68.25 l -0.117188,0.138672 -5.693359,3.894531 0.958984,-0.222656 c -2.945386,1.62342 -5.752534,3.498197 -8.158203,5.695312 -0.362835,0.265701 -0.677907,0.508524 -0.927734,0.738282 -0.279685,0.259275 -0.541058,0.449792 -0.763672,1.015625 -0.113386,0.282708 -0.208427,0.758953 0.04101,1.263672 0.238111,0.504679 0.760147,0.820207 1.109376,0.933593 0.698077,0.226394 0.997916,0.120017 1.308593,0.07617 1.243843,-0.17537 2.452359,-0.669503 3.396485,-1.056641 l 0.339843,-0.140624 0.59375,0.773437 c 0.06047,0.07861 0.13692,0.133772 0.201172,0.208984 0,0.01134 -0.0026,0.02017 0,0.03906 0.04157,0.439672 0.343515,0.993568 0.767578,1.296875 0.424819,0.303118 0.84892,0.39498 1.201172,0.4375 l 0.152344,0.01953 c 0.758929,0.45464 1.555653,0.817247 2.330078,1.128906 1.186772,0.47777 2.339473,0.88028 3.376953,1.347657 0.524599,0.296693 1.049114,0.605295 1.558594,0.886718 1.000441,0.552454 1.930701,1.055984 2.625,1.445313 0.343937,0.194646 0.635369,0.361943 0.828125,0.480469 0.192756,0.118299 0.351518,0.29595 0.117187,0.04687 l 0.19336,0.203125 0.255859,0.132812 c 0.847748,0.438992 1.851058,1.158311 3.175781,1.527344 0.328819,0.09222 0.736484,0.272013 1.556641,0.0078 0.410079,-0.132283 0.886888,-0.480996 1.113281,-0.873047 0.003,-0.0038 0.0026,-0.0061 0,-0.01367 0.128504,0.07748 0.299543,0.203011 0.414063,0.269531 l 1.308594,0.74414 c 0.162519,0.13304 0.317949,0.266532 0.480468,0.398438 0,0.07824 0.04127,0.166853 0.04883,0.261719 0,0.04157 0.04152,0.0869 0.05664,0.185547 0,0.04951 0.04122,0.110782 0.105469,0.222656 0.0052,0.009 0.01637,0.02714 0.02148,0.03711 -0.298221,-1.236442 -0.626755,-3.83218 -0.861328,-5.792969 -0.538861,-0.683857 -1.154273,-1.449086 -1.794922,-2.15625 -0.128504,-0.142109 -0.265271,-0.269431 -0.394531,-0.40625 l 0.195312,-0.958984 -0.470703,-0.363281 0.04297,1.089844 c -0.442961,-0.445569 -0.901312,-0.865816 -1.441406,-1.207032 -0.397606,-0.250582 -0.842417,-0.483122 -1.455078,-0.58789 -0.438425,-0.07483 -0.99222,-0.02952 -1.494141,0.138672 -0.234331,-0.200315 -0.510498,-0.475937 -0.71875,-0.63086 -0.132283,-0.09827 -0.260172,-0.18588 -0.412109,-0.277343 -0.151181,-0.09146 -0.268616,-0.203838 -0.753906,-0.306641 -0.24567,-0.0514 -0.672618,-0.135095 -1.265626,0.123047 -0.515904,0.224882 -0.831047,0.725725 -0.953124,1.095703 -0.04157,-0.04082 -0.04178,-0.113161 -0.06445,-0.144531 -0.188976,-0.252095 -0.332114,-0.340172 -0.439453,-0.408204 -0.420283,-0.272502 -0.480871,-0.230602 -0.609375,-0.269531 -0.162519,-0.04989 -0.422162,-0.08185 -0.605468,-0.123047 -0.443339,-0.216567 -0.912273,-0.400892 -1.441407,-0.519531 0.551433,-0.46594 1.08479,-1.021841 1.679688,-1.640625 1.24422,-1.293959 2.9079,-2.782204 3.30664,-2.960937 l 0.226563,-0.09961 0.185547,-0.15039 c 1.385953,-1.11961 2.486018,-2.346149 3.513672,-3.572266 0.215433,-0.184441 0.439239,-0.358493 0.642578,-0.554687 l 0.466797,-0.445313 c 0.0081,-0.332099 0.07933,-4.528169 -0.640625,-9.361328 z m 1.111328,11.195312 c -0.04158,0.08844 -0.04102,0.125216 -0.04102,0.126953 0,0.0023 0.04102,-0.06081 0.04102,-0.126953 z m 59.041015,2.857422 c 0.32504,0.326551 0.640119,0.668358 0.962891,0.992188 l -0.07617,-0.08203 c 0.128504,0.150046 0.296082,0.273401 0.435547,0.417968 l -2.539062,0.835938 z m -81.277343,3.238281 c 0.01112,8.7e-4 0.03516,0.0039 0.03516,0.0039 0,10e-4 -0.05091,0.01563 -0.05469,0.01563 -0.03449,0.003 -0.02696,-0.01217 0.01953,-0.01953 z m 27.710937,7.826172 c -0.03855,0.02193 -0.07683,0.07489 -0.113281,0.166016 -0.458184,1.144689 -0.466093,4.792971 -0.660156,5.537109 0.07584,0.06664 0.168415,0.138044 0.304687,0.220703 0.120945,0.07219 0.277696,0.147125 0.47461,0.201172 0.196534,0.05443 0.679309,0.06641 0.679687,0.06641 v -0.0039 c 0.251011,0.178098 0.517811,0.343906 0.777344,0.515625 -0.429927,-2.778763 -1.008677,-6.961475 -1.462891,-6.703125 z m 6.578125,2.294922 c 0.250077,3.32739 2.097417,10.344882 3.185547,13.607424 l -0.109375,-0.5918 c 0.04158,0.0302 0.04008,0.0488 0.07031,0.082 0.07559,0.082 0.158911,0.15268 0.238281,0.23242 l 0.04102,0.0312 0.115235,0.11329 c 0.139842,0.14135 0.256135,0.25109 0.380859,0.36523 0.04158,0.0227 0.04959,0.0461 0.07227,0.0684 0.06047,0.0548 0.142906,0.11266 0.210937,0.16406 0.219213,0.18595 0.441833,0.37149 0.699219,0.5332 0.340157,0.21317 0.723787,0.43965 1.375,0.51172 0.272126,0.0265 0.60112,-0.0242 0.925781,-0.11718 0.942992,0.97632 2.014663,1.88214 3.25586,2.67773 0.117165,0.11679 0.193001,0.17095 0.298828,0.27149 0.611149,0.96229 1.29548,1.94442 1.917969,2.66015 0.23055,0.26419 0.407384,0.4742 0.74414,0.72656 0.170079,0.12624 0.289272,0.34516 1.064453,0.4336 0.313701,0.0378 0.815413,-0.0392 1.228516,-0.25391 0.181417,0.0631 0.363387,0.12432 0.587891,0.16211 0.553321,0.0922 1.448834,0.0109 2.078124,-0.49219 0.07559,-0.0627 0.127155,-0.1315 0.191407,-0.19726 0.249449,0.32995 0.570061,0.65303 1.238281,0.82617 0.204094,0.0533 0.415424,0.0606 0.619141,0.0508 l -0.904297,2.79688 7.609375,-5.70313 c 0.120081,-0.005 0.211214,-0.0291 0.3125,-0.0469 0.04571,-2.90487 0.0948,-5.73585 -0.02344,-6.43946 -0.207874,-1.23711 -0.618903,-10.72107 -1.03125,-7.009763 -0.412346,3.711307 0.105017,10.205583 -0.61914,7.009763 -0.288942,-1.279158 -0.615907,-2.549368 -0.917969,-3.722654 -0.308564,0.518634 -0.600763,1.047988 -0.853516,1.605469 -0.523842,1.096405 -0.780723,1.970275 -0.660156,3.035155 0,0.1338 0.04172,0.28034 0.121094,0.5 0.08693,0.21959 0.229391,0.60351 0.861328,0.91211 0.340157,0.16668 0.765444,0.18831 1.144531,0.14258 -0.143622,0.0801 -0.303895,0.15179 -0.443359,0.24023 -0.279685,0.17915 -0.516811,0.37746 -0.785156,0.57422 -0.06803,0.0265 -0.116756,0.0527 -0.16211,0.0762 v -0.33984 l -1.773437,0.0606 c -0.809575,0.0264 -1.231958,0.42279 -1.439453,0.63672 -0.207875,0.21392 -0.299537,0.36925 -0.378907,0.51367 -0.07181,0.1251 -0.109196,0.23276 -0.162109,0.34765 -0.04157,-0.0264 -0.04568,-0.0455 -0.06836,-0.0742 -0.241888,-0.30273 -0.506439,-0.66298 -0.908203,-1.03124 -0.200315,-0.18407 -0.402889,-0.40019 -0.955078,-0.58985 -0.275905,-0.0949 -0.691433,-0.17538 -1.169922,-0.082 -0.478866,0.0937 -0.923306,0.38187 -1.164062,0.6543 -0.480756,0.54357 -0.482114,0.92451 -0.519531,1.28515 -0.547276,-0.85867 -1.131958,-1.65632 -1.607422,-2.26757 -0.336378,-0.54429 -0.56237,-0.94408 -0.873047,-1.3418 -0.04158,-0.0503 -0.06536,-0.094 -0.208985,-0.23047 -0.07181,-0.0684 -0.109524,-0.17563 -0.568359,-0.35742 -0.230551,-0.0907 -0.677284,-0.23541 -1.292969,-0.0566 -0.215433,0.0627 -0.396956,0.17366 -0.5625,0.29687 -2.267338,-2.267259 -4.017424,-5.269754 -6.203125,-8.191404 -0.06425,-0.260788 -0.09942,-0.555294 -0.43164,-1.03125 C 54.334081,92.505781 54.008731,92.182135 53.535156,92 c -0.04158,-0.01512 -0.07561,-0.0121 -0.117187,-0.02344 -0.535937,-0.669844 -1.134453,-1.357296 -1.8125,-2.095703 -0.06827,-0.335819 -0.14604,-0.668655 -0.216797,-1.003906 z m -2.996094,2.605469 c -0.08183,-0.03022 -0.105349,0.132919 -0.05078,0.515625 0.114877,0.804658 -0.06693,1.780528 -0.353516,2.554688 0.05223,0.05176 0.09548,0.09572 0.117188,0.113281 0.16252,0.135307 0.155184,0.114544 0.181641,0.128906 0.09071,0.05821 0.09332,0.05898 0.138671,0.08203 0.07937,0.04422 0.18557,0.100881 0.302735,0.16211 0.0034,0.002 0,0.0035 0,0.0039 0.08693,0.04876 0.280364,0.156156 0.591797,0.328125 0.393515,0.473222 0.768088,0.949427 1.117187,1.421875 -0.914094,-3.120896 -1.783343,-5.213943 -2.044922,-5.310547 z m 22.138672,14.843755 c 0.0054,0.008 0.0062,0.0305 -0.01367,0.0664 0,-0.008 -0.002,-0.0432 -0.002,-0.0488 0,-0.02 0.01019,-0.0259 0.01563,-0.0176 z"
         style="color:#000000;clip-rule:nonzero;display:inline;overflow:visible;visibility:visible;opacity:1;isolation:auto;mix-blend-mode:normal;color-interpolation:sRGB;color-interpolation-filters:linearRGB;solid-color:#000000;solid-opacity:1;vector-effect:none;fill:url(#linearGradient1167);fill-opacity:1;fill-rule:evenodd;stroke:none;stroke-width:1;stroke-linecap:round;stroke-linejoin:round;stroke-miterlimit:23;stroke-dasharray:none;stroke-dashoffset:0;stroke-opacity:0.99519228;marker:none;color-rendering:auto;image-rendering:auto;shape-rendering:auto;text-rendering:auto;enable-background:accumulate" />
      <path
         style="color:#000000;clip-rule:nonzero;display:inline;overflow:visible;visibility:visible;opacity:1;isolation:auto;mix-blend-mode:normal;color-interpolation:sRGB;color-interpolation-filters:linearRGB;solid-color:#000000;solid-opacity:1;vector-effect:none;fill:url(#linearGradient1550);fill-opacity:1;fill-rule:evenodd;stroke:none;stroke-width:0.4229306;stroke-linecap:round;stroke-linejoin:round;stroke-miterlimit:5;stroke-dasharray:none;stroke-dashoffset:0;stroke-opacity:0.75294118;marker:none;color-rendering:auto;image-rendering:auto;shape-rendering:auto;text-rendering:auto;enable-background:accumulate"
         d="m -1348.2889,236.03194 11.6531,0.30071 -11.751,0.52706 z"
         id="path1506"
         inkscape:connector-curvature="0" />
      <path
         inkscape:connector-curvature="0"
         id="circle1499"
         d="m -1348.347,235.90399 a 0.57322329,0.64608829 85.886098 0 0 -0.043,0.002 c -0.1812,0.38473 -0.3593,0.65504 -0.5052,0.88302 a 0.57322329,0.64608829 85.886098 0 0 0.5478,0.26207 0.57322329,0.64608829 85.886098 0 0 0.379,-0.11588 c 0.1146,-0.14518 0.2092,-0.30266 0.2664,-0.4638 a 0.57322329,0.64608829 85.886098 0 0 3e-4,-0.003 0.57322329,0.64608829 85.886098 0 0 -0.6457,-0.5637 z"
         style="color:#000000;clip-rule:nonzero;display:inline;overflow:visible;visibility:visible;opacity:1;isolation:auto;mix-blend-mode:normal;color-interpolation:sRGB;color-interpolation-filters:linearRGB;solid-color:#000000;solid-opacity:1;vector-effect:none;fill:url(#radialGradient1583);fill-opacity:1;fill-rule:evenodd;stroke:none;stroke-width:0.33663243;stroke-linecap:round;stroke-linejoin:round;stroke-miterlimit:5;stroke-dasharray:none;stroke-dashoffset:0;stroke-opacity:0.75294118;marker:none;color-rendering:auto;image-rendering:auto;shape-rendering:auto;text-rendering:auto;enable-background:accumulate" />
      <path
         transform="matrix(0.26458332,0,0,0.26458332,-1370.6978,216.99567)"
         inkscape:connector-curvature="0"
         id="path925"
         d="m 36.449219,33.087891 c -0.339824,0.747893 -0.259874,2.303148 0.01758,4.148437 0.08046,-0.946211 0.106384,-2.22705 -0.01758,-4.148437 z m 0.01758,4.148437 c -0.298047,3.505251 -1.409022,2.147789 1.001953,9.265625 3.061417,9.039194 1.749614,14.870977 2.041016,16.912109 0.291023,2.041097 1.3125,4.810547 1.3125,4.810547 0,0 0.438094,-6.852285 0.583984,-9.476562 0.147402,-2.624277 -2.479528,-10.64238 -3.5,-14.724609 -0.544579,-2.178498 -1.121957,-4.675492 -1.439453,-6.78711 z m 45.761719,-0.794922 -9.332032,4.373047 c 0,0 2.332488,0.0012 4.082032,-0.582031 1.749543,-0.583181 5.25,-3.791016 5.25,-3.791016 z m -13.533204,3.388672 c -0.907584,0.01858 -3.725957,0.885204 -8.482421,2.44336 2.332724,1.020585 3.499554,1.603463 7.144531,-0.875 1.594512,-1.084345 2.043789,-1.582809 1.33789,-1.56836 z M 69.39844,42.419922 66.919924,43.439453 74.5,43.292969 c 0,0 -3.206129,-0.727157 -5.101562,-0.873047 z m -24.931641,17.05664 c 0.147401,3.499049 -0.142578,6.123984 -0.142578,7.144532 0,1.020548 1.457031,-0.728626 1.457031,-3.644532 0,-2.915866 -1.3125,-3.5 -1.3125,-3.5 z m -2.478516,7.435547 c 0,2.478501 -0.582031,8.457032 -0.582031,8.457032 l 1.457031,2.623047 -0.583984,-3.060547 c 0,0 0.291032,-5.395254 -0.291016,-8.019532 z m 3.9375,9.914063 c -1.166362,3.353235 -1.312291,6.560775 -0.875,7.435547 0.43767,0.874771 0.4375,4.228515 0.4375,4.228515 0,0 0.583173,-5.540573 0.291016,-6.269531 -0.291024,-0.728957 0.146484,-5.394531 0.146484,-5.394531 z m 1.457031,3.5 c 0.291024,4.37382 1.750001,8.45611 1.75,9.914062 0,1.457953 1.019532,3.351563 1.019532,3.351563 0,0 -1.01974,-8.456015 -1.457032,-9.476563 -0.43729,-1.020548 -1.312499,-3.789062 -1.3125,-3.789062 z"
         style="color:#000000;clip-rule:nonzero;display:inline;overflow:visible;visibility:visible;opacity:1;isolation:auto;mix-blend-mode:normal;color-interpolation:sRGB;color-interpolation-filters:linearRGB;solid-color:#000000;solid-opacity:1;vector-effect:none;fill:#ffffff;fill-opacity:0.90865383;fill-rule:evenodd;stroke:none;stroke-width:1;stroke-linecap:round;stroke-linejoin:round;stroke-miterlimit:23;stroke-dasharray:none;stroke-dashoffset:0;stroke-opacity:0.99519228;marker:none;color-rendering:auto;image-rendering:auto;shape-rendering:auto;text-rendering:auto;enable-background:accumulate" />
    </g>
  </g>
</svg>
