<?xml version="1.0" encoding="UTF-8" standalone="no"?>
<!-- Created with Inkscape (http://www.inkscape.org/) -->

<svg
   xmlns:dc="http://purl.org/dc/elements/1.1/"
   xmlns:cc="http://creativecommons.org/ns#"
   xmlns:rdf="http://www.w3.org/1999/02/22-rdf-syntax-ns#"
   xmlns:svg="http://www.w3.org/2000/svg"
   xmlns="http://www.w3.org/2000/svg"
   xmlns:xlink="http://www.w3.org/1999/xlink"
   xmlns:sodipodi="http://sodipodi.sourceforge.net/DTD/sodipodi-0.dtd"
   xmlns:inkscape="http://www.inkscape.org/namespaces/inkscape"
   width="384"
   height="192"
   viewBox="0 0 101.6 50.799999"
   version="1.1"
   id="svg8"
   sodipodi:docname="DryLogo.svg"
   inkscape:export-filename="../bin/Data/Textures/DryLogo.png"
   inkscape:export-xdpi="64"
   inkscape:export-ydpi="64"
   inkscape:version="0.92.3 (2405546, 2018-03-11)">
  <defs
     id="defs2">
    <linearGradient
       inkscape:collect="always"
       id="linearGradient1661">
      <stop
         style="stop-color:#f6ffa7;stop-opacity:1;"
         offset="0"
         id="stop1657" />
      <stop
         style="stop-color:#f6ffa7;stop-opacity:0.75113124"
         offset="1"
         id="stop1659" />
    </linearGradient>
    <linearGradient
       inkscape:collect="always"
       id="linearGradient1626">
      <stop
         id="stop1624"
         offset="0"
         style="stop-color:#5200ab;stop-opacity:0" />
      <stop
         style="stop-color:#5200ab;stop-opacity:0.46666667;"
         offset="0.64850193"
         id="stop1632" />
      <stop
         id="stop1622"
         offset="1"
         style="stop-color:#5200ab;stop-opacity:1;" />
    </linearGradient>
    <linearGradient
       inkscape:collect="always"
       id="linearGradient850">
      <stop
         id="stop848"
         offset="0"
         style="stop-color:#a9f000;stop-opacity:0;" />
      <stop
         style="stop-color:#a9f000;stop-opacity:0.52036202"
         offset="0.42623383"
         id="stop854" />
      <stop
         id="stop846"
         offset="1"
         style="stop-color:#a9f000;stop-opacity:1;" />
    </linearGradient>
    <linearGradient
       inkscape:collect="always"
       id="linearGradient839">
      <stop
         style="stop-color:#4200b2;stop-opacity:1"
         offset="0"
         id="stop835" />
      <stop
         id="stop843"
         offset="0.66039306"
         style="stop-color:#23005f;stop-opacity:0.99607843" />
      <stop
         style="stop-color:#3f00a8;stop-opacity:0.99215686"
         offset="1"
         id="stop837" />
    </linearGradient>
    <linearGradient
       inkscape:collect="always"
       id="linearGradient1056">
      <stop
         style="stop-color:#f6ffa7;stop-opacity:1;"
         offset="0"
         id="stop1052" />
      <stop
         style="stop-color:#f6ffa7;stop-opacity:0;"
         offset="1"
         id="stop1054" />
    </linearGradient>
    <linearGradient
       inkscape:collect="always"
       xlink:href="#linearGradient1056"
       id="linearGradient1058"
       x1="60.834591"
       y1="212.87436"
       x2="61.736656"
       y2="128.68446"
       gradientUnits="userSpaceOnUse"
       gradientTransform="matrix(0.63713234,0,0,0.28901868,14.07065,228.97702)" />
    <linearGradient
       inkscape:collect="always"
       xlink:href="#linearGradient1056"
       id="linearGradient906"
       gradientUnits="userSpaceOnUse"
       gradientTransform="matrix(0.94364739,0.01668436,-0.03271756,0.42863904,17.965454,209.22339)"
       x1="67.516327"
       y1="135.63347"
       x2="67.88385"
       y2="144.45337" />
    <radialGradient
       inkscape:collect="always"
       xlink:href="#linearGradient850"
       id="radialGradient908"
       cx="11.335172"
       cy="281.29395"
       fx="11.335172"
       fy="281.29395"
       r="4.2255912"
       gradientTransform="matrix(0.64641414,0.02138836,-0.11687409,3.415836,37.309141,-674.53941)"
       gradientUnits="userSpaceOnUse" />
    <linearGradient
       inkscape:collect="always"
       xlink:href="#linearGradient839"
       id="linearGradient841-3"
       x1="115.25143"
       y1="292.03513"
       x2="115.25143"
       y2="188.68669"
       gradientUnits="userSpaceOnUse"
       gradientTransform="matrix(2.3636182,0,0,1.090314,-10.426899,-129.91446)" />
    <linearGradient
       inkscape:collect="always"
       id="linearGradient839-6">
      <stop
         style="stop-color:#1b0d34;stop-opacity:1"
         offset="0"
         id="stop835-2" />
      <stop
         id="stop843-9"
         offset="0.66039306"
         style="stop-color:#1b0a1a;stop-opacity:0.99607843" />
      <stop
         style="stop-color:#1b0f30;stop-opacity:0.99215686"
         offset="1"
         id="stop837-1" />
    </linearGradient>
    <linearGradient
       inkscape:collect="always"
       xlink:href="#linearGradient839-6"
       id="linearGradient841-5-5"
       x1="115.25143"
       y1="292.03513"
       x2="115.25143"
       y2="188.68669"
       gradientUnits="userSpaceOnUse"
       gradientTransform="matrix(2.8884146,0.0525481,-0.02539291,1.3938013,-9.378617,-167.32358)" />
    <linearGradient
       inkscape:collect="always"
       xlink:href="#linearGradient839-6"
       id="linearGradient2106-0"
       gradientUnits="userSpaceOnUse"
       gradientTransform="matrix(2.8884146,0.0525481,-0.02539291,1.3938013,-9.3786172,-167.32354)"
       x1="115.25143"
       y1="292.03513"
       x2="115.25143"
       y2="188.68669" />
    <linearGradient
       inkscape:collect="always"
       xlink:href="#linearGradient839-6"
       id="linearGradient2133"
       gradientUnits="userSpaceOnUse"
       gradientTransform="matrix(0.77859538,0.01392937,-0.00684484,0.36946659,-56.009247,194.5251)"
       x1="202.69682"
       y1="-31.238609"
       x2="200.28719"
       y2="-305.33133" />
    <radialGradient
       inkscape:collect="always"
       xlink:href="#linearGradient1626"
       id="radialGradient1628"
       cx="12.963132"
       cy="271.65317"
       fx="12.963132"
       fy="271.65317"
       r="3.7553961"
       gradientTransform="matrix(1,0,0,1.7192021,0,-195.08936)"
       gradientUnits="userSpaceOnUse" />
    <linearGradient
       inkscape:collect="always"
       xlink:href="#linearGradient1661"
       id="linearGradient1663"
       x1="206.46835"
       y1="100.58535"
       x2="199.09738"
       y2="133.03975"
       gradientUnits="userSpaceOnUse"
       gradientTransform="matrix(0.26458333,0,0.00517207,0.26458333,-0.70216699,246.23772)" />
    <radialGradient
       inkscape:collect="always"
       xlink:href="#linearGradient862-6"
       id="radialGradient864-2"
       cx="12.818681"
       cy="271.44006"
       fx="12.818681"
       fy="271.44006"
       r="2.2450638"
       gradientTransform="matrix(2.4760092,0.35498176,-0.44636751,3.8752978,102.80398,-784.77206)"
       gradientUnits="userSpaceOnUse" />
    <linearGradient
       inkscape:collect="always"
       id="linearGradient862-6">
      <stop
         style="stop-color:#ffffff;stop-opacity:0.94570136"
         offset="0"
         id="stop858-1" />
      <stop
         id="stop888-8"
         offset="0.10836695"
         style="stop-color:#cafe4f;stop-opacity:0.86877829" />
      <stop
         id="stop881-7"
         offset="0.32630947"
         style="stop-color:#6a8d14;stop-opacity:0.47511312" />
      <stop
         id="stop879-9"
         offset="0.87123287"
         style="stop-color:#69ab00;stop-opacity:0.80542988" />
      <stop
         style="stop-color:#c0ff01;stop-opacity:1"
         offset="1"
         id="stop860-2" />
    </linearGradient>
    <radialGradient
       inkscape:collect="always"
       xlink:href="#linearGradient862-6"
       id="radialGradient864-2-5"
       cx="12.818681"
       cy="271.44006"
       fx="12.818681"
       fy="271.44006"
       r="2.2450638"
       gradientTransform="matrix(9.3581451,1.3416634,-1.6870583,14.646795,355.06788,-3965.4356)"
       gradientUnits="userSpaceOnUse" />
  </defs>
  <sodipodi:namedview
     id="base"
     pagecolor="#000000"
     bordercolor="#666666"
     borderopacity="1.0"
     inkscape:pageopacity="0"
     inkscape:pageshadow="2"
     inkscape:zoom="3.5052083"
     inkscape:cx="60.600494"
     inkscape:cy="96.414746"
     inkscape:document-units="px"
     inkscape:current-layer="layer1"
     showgrid="false"
     showborder="false"
     inkscape:snap-global="false"
     units="px"
     inkscape:window-width="1920"
     inkscape:window-height="1061"
     inkscape:window-x="0"
     inkscape:window-y="0"
     inkscape:window-maximized="1"
     scale-x="1.1"
     inkscape:snap-page="true"
     inkscape:snap-bbox="true"
     inkscape:snap-nodes="false"
     inkscape:snap-others="false"
     inkscape:bbox-nodes="true"
     inkscape:pagecheckerboard="false" />
  <metadata
     id="metadata5">
    <rdf:RDF>
      <cc:Work
         rdf:about="">
        <dc:format>image/svg+xml</dc:format>
        <dc:type
           rdf:resource="http://purl.org/dc/dcmitype/StillImage" />
        <dc:title></dc:title>
      </cc:Work>
    </rdf:RDF>
  </metadata>
  <g
     inkscape:label="Layer 1"
     inkscape:groupmode="layer"
     id="layer1"
     transform="translate(0,-246.19998)">
    <path
       sodipodi:nodetypes="szsss"
       inkscape:connector-curvature="0"
       id="path1620"
       d="m 16.640562,270.94142 c -0.07469,3.39085 -2.657066,6.7729 -4.104114,6.7729 -1.447048,0 -3.4768864,-3.38205 -3.4021917,-6.7729 0.074693,-3.39084 1.8155867,-6.13967 3.8883957,-6.13967 2.072811,0 3.692605,2.74883 3.61791,6.13967 z"
       style="color:#000000;clip-rule:nonzero;display:inline;overflow:visible;visibility:visible;opacity:1;isolation:auto;mix-blend-mode:normal;color-interpolation:sRGB;color-interpolation-filters:linearRGB;solid-color:#000000;solid-opacity:1;vector-effect:none;fill:url(#radialGradient1628);fill-opacity:1;fill-rule:evenodd;stroke:none;stroke-width:1.41901422;stroke-linecap:round;stroke-linejoin:round;stroke-miterlimit:4;stroke-dasharray:none;stroke-dashoffset:0;stroke-opacity:0.33936654;marker:none;color-rendering:auto;image-rendering:auto;shape-rendering:auto;text-rendering:auto;enable-background:accumulate" />
    <path
       style="color:#000000;font-style:normal;font-variant:normal;font-weight:normal;font-stretch:normal;font-size:medium;line-height:normal;font-family:sans-serif;font-variant-ligatures:normal;font-variant-position:normal;font-variant-caps:normal;font-variant-numeric:normal;font-variant-alternates:normal;font-feature-settings:normal;text-indent:0;text-align:start;text-decoration:none;text-decoration-line:none;text-decoration-style:solid;text-decoration-color:#000000;letter-spacing:normal;word-spacing:normal;text-transform:none;writing-mode:lr-tb;direction:ltr;text-orientation:mixed;dominant-baseline:auto;baseline-shift:baseline;text-anchor:start;white-space:normal;shape-padding:0;clip-rule:nonzero;display:inline;overflow:visible;visibility:visible;opacity:0.9;isolation:auto;mix-blend-mode:normal;color-interpolation:sRGB;color-interpolation-filters:linearRGB;solid-color:#000000;solid-opacity:1;vector-effect:none;fill:url(#linearGradient2133);fill-opacity:1;fill-rule:evenodd;stroke:#361c67;stroke-width:1.5;stroke-linecap:round;stroke-linejoin:round;stroke-miterlimit:4;stroke-dasharray:none;stroke-dashoffset:0;stroke-opacity:0.99607843;marker:none;color-rendering:auto;image-rendering:auto;shape-rendering:auto;text-rendering:auto;enable-background:accumulate"
       d="M 47.296875,2.1835938 V 2.1875 c -3.139737,-0.026457 -6.250194,0.1551326 -9.3125,0.5097656 -0.102803,0.426104 -0.159518,0.8236482 0.01563,1.2050782 0.21789,0.475011 0.666122,0.9663074 1.320312,1.4433593 1.308382,0.9539906 3.413146,1.8247073 5.855469,2.609375 4.884643,1.5693355 11.08178,2.8120439 15.171875,4.2011719 0.0257,0.01134 0.05041,0.02394 0.07422,0.03906 0.797269,0.421418 2.643673,0.840689 4.708984,1.175782 2.065312,0.335244 4.377215,0.612049 6.273438,0.894531 0.948109,0.140976 1.792743,0.284895 2.460937,0.435547 0.668194,0.150803 1.127729,0.234074 1.50586,0.578125 0.09453,0.08617 0.198898,0.211286 0.238281,0.390625 0.03934,0.179905 -0.01315,0.380241 -0.09766,0.509766 -0.168794,0.259275 -0.379458,0.352957 -0.644531,0.466796 -0.467063,0.200693 -1.283281,0.391672 -2.306641,0.597657 -0.125329,0.272504 -0.199094,0.510713 -0.140625,0.726562 0.07098,0.261921 0.274503,0.557014 0.630859,0.865235 0.712702,0.616781 1.989394,1.238945 3.476563,1.820312 2.91928,1.141191 6.543527,2.157449 8.632812,3.570312 0.01096,0.0038 0.03974,0.004 0.05078,0.0078 l -0.0078,0.0078 c 0.02872,0.02268 0.09106,0.02999 0.119141,0.05078 0.50824,0.336 0.0966,1.116426 -0.46875,0.888672 -2.914882,-1.108952 -9.317436,-2.336699 -14.361328,-2.498047 -2.521947,-0.0805 -4.729561,0.125022 -5.910157,0.640625 -0.590294,0.257764 -0.882681,0.550614 -0.972656,0.867187 -0.08508,0.299339 0.02797,0.769866 0.4375,1.404297 36.790382,17.184416 44.410282,43.170276 47.011712,66.244141 0.001,0.0189 0.001,0.03932 0,0.05859 0.0374,6.376592 2.28942,13.106035 2.63282,19.806645 0.34287,6.69056 -1.31762,13.3913 -9.02149,19.44531 0.009,-0.0113 0.0179,-0.0217 0.0273,-0.0293 l -0.0606,0.0586 c 0.009,-0.006 0.0183,-0.0144 0.0273,-0.0215 -6.108813,6.56361 -10.35065,14.07688 -16.621088,21.03321 -6.282486,6.96975 -14.620614,13.34921 -28.859375,17.57226 -0.0432,0.0151 -0.0875,0.0215 -0.132813,0.0215 -2.353549,0.0499 -6.32625,0.87313 -6.36914,0.59375 -1.519349,-10.63915 -4.463765,-40.74879 4.669209,-52.65204 7.001313,-9.125 9.820011,-18.49196 9.125623,-29.538362 C 65.499062,72.641739 56.883473,65.384301 49.374928,65.234473 41.866383,65.084646 30.848814,72.164722 30.523036,92.035156 c -0.179743,10.963194 1.773305,15.847424 7.547485,26.513814 1.141302,2.10828 2.382887,5.27713 2.873266,10.75201 1.414193,15.78892 -0.295896,41.46113 -4.889099,46.47246 -2.173341,3.38952 -4.475613,5.80544 -5.181641,7.66992 -0.353012,0.93222 -0.354799,1.66157 0.15625,2.48437 0.506866,0.81604 1.623661,1.73598 3.550781,2.7461 10.680434,4.05887 25.716692,2.19701 38.476563,1.70703 10.086935,-1.1359 16.358958,-4.31877 21.830078,-8.02539 5.445021,-3.68893 10.114001,-7.92153 16.833981,-11.08594 34.98766,-25.07199 41.32267,-53.33934 40.71485,-82.544921 -0.001,-0.02268 -0.001,-0.04411 0,-0.06641 0.83061,-6.66686 -3.46501,-13.971108 -8.47657,-20.382812 -2.50578,-3.205871 -5.17543,-6.18199 -7.4375,-8.763672 -2.23678,-2.552807 -4.06061,-4.693084 -4.96679,-6.367188 -8.66833,-12.068749 -16.25257,-25.784814 -38.757815,-33.777343 -2.362178,-0.796196 -6.443841,-1.579432 -8.445313,-2.027344 -0.500371,-0.112252 -0.851887,-0.187518 -1.099609,-0.28125 -0.06191,-0.02268 -0.119801,-0.04286 -0.212891,-0.109375 -0.02343,-0.01512 -0.04311,-0.0339 -0.07422,-0.06641 -0.0155,-0.01512 -0.05168,-0.05904 -0.05273,-0.06055 -0.0011,-0.0015 -0.05205,-0.08638 -0.05273,-0.08789 -0.0013,-0.003 -0.0453,-0.286417 -0.04492,-0.289063 3.82e-4,-0.0026 0.119015,-0.263357 0.121094,-0.265624 10e-4,-0.0011 0.07274,-0.07308 0.07422,-0.07422 0.0015,-0.0011 0.04706,-0.03396 0.06641,-0.04492 0.03912,-0.02268 0.06838,-0.03012 0.0957,-0.04297 0.05446,-0.0189 0.09754,-0.02369 0.134766,-0.03125 0.07442,-0.01134 0.133558,-0.01771 0.21289,-0.02148 0.634832,-0.02646 2.135179,0.07477 5.140625,0.324218 3.2437,0.09978 5.220487,-0.2376 6.109375,-0.703124 0.446567,-0.233575 0.602516,-0.455243 0.650391,-0.658204 0.04785,-0.20296 -0.0024,-0.477373 -0.228516,-0.835937 -0.452243,-0.71675 -1.579517,-1.626849 -3.02539,-2.410156 -1.445878,-0.783345 -3.212535,-1.460848 -4.947266,-1.8496098 -0.02003,-0.00756 -0.03947,-0.012099 -0.05859,-0.023437 C 76.096662,5.9290543 61.510866,2.2930433 47.29689,2.1835882 Z m -33.664063,2.65625 c -0.939279,0.1553385 -1.782654,0.7455843 -2.943359,1.0507812 -0.289693,0.2630551 -0.424842,0.4892905 -0.453125,0.6953125 -0.03012,0.2192126 0.03029,0.4663487 0.207031,0.7617187 0.353466,0.5910804 1.181219,1.2907429 2.136719,1.9140626 0.955501,0.6232818 2.029226,1.1844072 2.876953,1.6210932 0.423863,0.218079 0.789185,0.409505 1.066407,0.5625 0.13861,0.07635 0.256844,0.138244 0.357421,0.207032 0.05029,0.03402 0.09679,0.07076 0.148438,0.11914 0.05165,0.048 0.123336,0.09448 0.177734,0.279297 0.102013,0.345827 -0.181727,0.684594 -0.541015,0.644531 -3.667353,-0.410078 -8.4604062,-0.617521 -11.8417972,-0.117187 -1.6906956,0.250205 -3.0230163,0.70677 -3.6269532,1.255859 -0.30196836,0.274394 -0.43342556,0.532372 -0.44531248,0.865235 -0.0118866,0.332976 0.12200623,0.779076 0.50390628,1.345703 0.00559,0.01134 0.010757,0.01796 0.015625,0.0293 1.0082987,1.768063 3.4597399,3.269441 6.7695312,4.328125 3.3097904,1.058721 7.4503644,1.692075 11.7382814,1.898437 8.575835,0.412573 17.793516,-0.941154 22.246094,-3.80664 -1.9e-5,-0.0026 -1.9e-5,-0.004 0,-0.0078 0.510107,-0.324283 0.616591,-0.553407 0.623047,-0.710937 0.0064,-0.157607 -0.109999,-0.403156 -0.416016,-0.701172 -0.612098,-0.596259 -1.852799,-1.239432 -2.869141,-1.72461 -0.508169,-0.242645 -0.958262,-0.449454 -1.283203,-0.628906 -0.162482,-0.08957 -0.282472,-0.150922 -0.421875,-0.294922 -0.0697,-0.07181 -0.189461,-0.180969 -0.1875,-0.427734 0.002,-0.246803 0.21287,-0.453401 0.333985,-0.511719 0.242229,-0.115275 0.381015,-0.09533 0.609374,-0.0957 0.22836,0 0.522012,0.01488 0.898438,0.05078 0.75281,0.06501 1.843954,0.191244 3.394531,0.398438 0.0072,0.0024 0.0143,0.004 0.02148,0.0078 3.206252,0.580838 7.772745,2.112544 11.21289,2.677735 1.720067,0.28233 3.152001,0.284462 3.863282,-0.05078 0.355653,-0.167811 0.535056,-0.363447 0.628906,-0.710937 0.08292,-0.307276 0.01659,-0.830159 -0.16211,-1.457031 C 53.328138,11.329469 46.016144,9.87552 38.207031,8.7597656 30.313829,7.6319924 21.955766,6.8155695 15.072266,4.921875 c -0.0053,-0.00253 -0.01045,-0.00403 -0.01563,-0.00781 -0.07074,-0.022677 -0.387386,0.00138 -0.705079,0.039063 -0.158845,0.018898 -0.316913,0.046613 -0.541015,-0.00781 -0.05467,-0.015118 -0.11544,-0.0695 -0.177735,-0.1035156 z M 109.1543,40.169922 c 1.5e-4,0 0.20684,0.03906 0.20703,0.03906 4.5e-4,3.78e-4 0.13217,0.08165 0.13281,0.08203 6.5e-4,3.78e-4 0.033,0.03396 0.043,0.04492 0.0196,0.02268 0.0384,0.03012 0.0469,0.04297 0.017,0.02268 0.0243,0.03384 0.0371,0.05273 1.18776,1.22434 2.55297,3.326422 3.23243,4.517578 0.17246,0.302362 0.30185,0.535858 0.3789,0.71875 0.0193,0.04573 0.0353,0.085 0.0508,0.138672 0.008,0.02646 0.0103,0.06276 0.0156,0.105468 0.003,0.02268 0.008,0.04165 0.008,0.07227 3.7e-4,0.03024 -0.0152,0.122732 -0.0156,0.125 -5.4e-4,0.0023 -0.0868,0.193801 -0.0879,0.195313 -0.001,0.0015 -0.23661,0.177356 -0.23828,0.177734 -0.002,0 -0.24191,0.02344 -0.24414,0.02344 -0.002,0 -0.10687,-0.02394 -0.14062,-0.03906 -0.13508,-0.05783 -0.16149,-0.09502 -0.20117,-0.132813 -0.15871,-0.151937 -0.29915,-0.349036 -0.5625,-0.71875 -0.26056,-0.36548 -0.60945,-0.890303 -1.06836,-1.58789 -0.19015,-0.198047 -0.37592,-0.443319 -0.59375,-0.763672 -0.23819,-0.350362 -0.48879,-0.75714 -0.71875,-1.13086 -0.22995,-0.373795 -0.43416,-0.710375 -0.56446,-0.939453 -0.0652,-0.114519 -0.11156,-0.19268 -0.14648,-0.265625 -0.009,-0.0189 -0.0134,-0.03365 -0.0293,-0.08203 -0.004,-0.01134 -0.0156,-0.04221 -0.0156,-0.04297 -3.7e-4,-7.56e-4 -0.0137,-0.120337 -0.0137,-0.121093 0,-3.78e-4 0.0215,-0.138294 0.0215,-0.138672 3e-5,-3.78e-4 0.14832,-0.236328 0.14844,-0.236328 8e-5,-3.78e-4 0.31821,-0.132813 0.31836,-0.132813 z m 208.35742,3.269531 c -2.47447,-0.07861 -3.58411,0.547677 -4.16602,1.390625 -0.58191,0.843024 -0.65684,2.051367 -0.66601,3.21875 -0.005,0.583673 7.9e-4,1.148523 -0.0645,1.666016 -0.0653,0.517493 -0.20408,1.026503 -0.60937,1.378906 -0.40528,0.352252 -0.99503,0.434979 -1.68945,0.296875 -0.65193,-0.129638 -1.48246,-0.478553 -2.51953,-1.009766 -3.38174,0.05896 -5.67341,0.676675 -7.11915,1.601563 -1.45883,0.933279 -2.12519,2.145198 -2.34765,3.541016 -0.44495,2.791596 1.06866,6.320058 2.32617,8.642578 0.0261,0.05027 0.043,0.104219 0.0508,0.160156 4.76815,30.610734 2.98533,62.722578 -26.06641,90.935548 -0.0586,0.0575 -0.12992,0.0992 -0.20703,0.12109 -5.75453,1.53547 -14.78175,2.53806 -19.84961,4.33594 -2.53391,0.89892 -4.74681,1.99567 -6.24023,3.41016 -1.47213,1.3943 -4.25611,6.24671 -4.11914,8.45312 2.2542,4.38769 6.38446,6.33552 9.94336,10.64649 3.59387,4.35337 10.50274,7.68674 20.25781,7.83203 7.32936,-1.10612 9.95721,-4.37862 12.28125,-8.11328 2.31933,-3.72707 4.30505,-7.9803 10.02735,-10.46485 v -0.004 c 0.004,-0.001 0.008,-0.002 0.0117,-0.004 14.51871,-10.65717 28.50522,-22.22375 31.47266,-34.92773 0.0374,-0.16479 0.15605,-0.29954 0.31445,-0.35547 5.2194,-1.77411 11.91577,-1.59237 18.17969,-1.88086 6.26393,-0.28876 12.04022,-1.05815 15.42383,-4.40235 0.0185,-0.0151 0.0399,-0.0312 0.0605,-0.043 12.89299,-9.45275 19.84335,-20.79021 21.60351,-32.394527 1.75639,-11.579301 -1.66895,-23.451785 -9.63281,-34.03125 -2.57226,-2.014942 -6.79484,-2.453523 -10.39649,-1.761719 -1.81034,0.347717 -3.45285,0.970437 -4.63281,1.761719 -1.17998,0.79132 -1.86325,1.719485 -1.92773,2.675781 -0.0291,0.419263 -0.53264,0.611248 -0.83008,0.316407 -2.3985,-2.377285 -5.30295,-2.182143 -7.35352,-0.972657 -1.02528,0.604763 -1.81761,1.471868 -2.18554,2.365235 -0.36794,0.893442 -0.34614,1.779129 0.23047,2.626953 0.0542,0.07861 0.0832,0.170003 0.0859,0.265625 0.34526,12.530268 3.27787,25.250962 2.24805,37.742183 -0.0136,0.16366 -0.10736,0.30919 -0.25,0.38868 -1.45,0.80651 -2.76787,2.5696 -4.45508,4.04101 -1.68721,1.47141 -3.84277,2.62 -6.88086,2.00586 -0.23471,-0.0465 -0.40195,-0.25718 -0.39453,-0.49805 0.4893,-15.994578 5.44783,-32.418895 -0.95117,-47.812496 -2.14859,-0.377196 -4.62155,-0.726 -6.41602,-1.486328 -0.94032,-0.398362 -1.72835,-0.910417 -2.12695,-1.689453 -0.38469,-0.751826 -0.29227,-1.693541 0.27148,-2.691406 -0.002,0.01071 -0.005,0.02054 -0.008,0.03125 l 0.0586,-0.136719 c -0.0208,0.0335 -0.0312,0.06852 -0.0508,0.103516 0.71956,-2.968592 1.97497,-7.227521 1.11719,-10.695313 -0.4303,-1.739641 -1.36122,-3.279772 -3.18554,-4.458984 -1.82434,-1.179175 -4.57196,-1.989226 -8.62305,-2.121094 z M 296.74609,171.47461 c -0.004,0.003 -0.008,0.005 -0.0117,0.008 -0.0102,0.008 -0.0211,0.0139 -0.0313,0.0215 l 0.0938,-0.0508 c -0.0176,0.006 -0.0337,0.0144 -0.0508,0.0215 z M 119.72852,60.111328 v 0.002 c 0.0649,0 0.11781,0.01015 0.1621,0.02148 0.0886,0.02268 0.14419,0.05961 0.19336,0.08984 0.0983,0.06085 0.17089,0.119849 0.25196,0.199219 0.0185,0.0189 0.0353,0.03781 0.0508,0.05859 l 0.25976,0.347656 c 2e-5,0.0026 2e-5,0.004 0,0.0078 0.94183,1.273738 2.0682,2.751156 2.95899,4.201171 0.89078,1.449978 1.57735,2.855294 1.52734,4.126954 -0.0159,0.439181 -0.54809,0.648858 -0.86133,0.339843 -0.98692,-0.965253 -2.28075,-3.038138 -3.3496,-4.949218 C 120.38745,63.6011 119.92327,62.694715 119.60938,62 c -0.15697,-0.347339 -0.27358,-0.640028 -0.34766,-0.880859 -0.037,-0.120567 -0.0648,-0.220728 -0.0742,-0.34961 -0.005,-0.06425 -0.008,-0.137936 0.0215,-0.24414 0.0291,-0.106583 0.12122,-0.278935 0.29493,-0.361329 0.003,-3.7e-5 0.005,-3.7e-5 0.008,0 0.003,-0.0038 0.0765,-0.0315 0.11328,-0.03906 0.037,-0.0076 0.0709,-0.01367 0.10352,-0.01367 z m 96.42578,8.591797 c -0.51462,-0.01134 -1.03218,-8.87e-4 -1.53321,0.03906 -9.88631,0.986229 -14.64108,4.510477 -16.58007,8.808593 -1.94017,4.300649 -1.06686,9.530353 0.69531,13.917969 0.0988,0.249071 -0.014,0.532544 -0.25781,0.644531 -4.29609,1.895244 -12.20177,1.867691 -19.25782,2.595703 -3.52801,0.363969 -6.82882,0.914037 -9.2832,1.908204 -2.43787,0.987477 -3.96774,2.353215 -4.30859,4.429695 0.0299,1.88322 0.98932,3.3921 2.70507,4.64453 1.73158,1.26391 4.21002,2.21715 7.04688,2.85351 5.67371,1.27272 12.77524,1.28527 18.26172,0.32031 2.56434,-0.46246 4.0748,-0.33721 4.95312,0.43555 0.43916,0.38638 0.64915,0.92652 0.68946,1.47266 0.0403,0.54618 -0.0593,1.11418 -0.22071,1.69922 -0.32273,1.17002 -0.89861,2.42425 -1.27734,3.52148 -0.18939,0.54864 -0.3268,1.05817 -0.37109,1.4707 -0.0444,0.41258 0.007,0.70562 0.12695,0.89649 0.0614,0.10167 0.0867,0.22072 0.0684,0.33789 -2.12222,13.89237 -11.59135,27.2477 -27.02149,37.75781 -0.10155,0.38971 -0.092,0.66341 0.0234,0.86524 0.12843,0.22412 0.38518,0.43429 0.77539,0.60546 0.78044,0.34205 2.0102,0.49183 3.05664,0.5918 0.52321,0.0499 0.99555,0.0897 1.38672,0.15625 0.19559,0.034 0.37321,0.0734 0.54102,0.14063 0.16781,0.0669 0.38635,0.16701 0.49023,0.45898 0.10386,0.29178 -0.0461,0.57445 -0.18555,0.73047 -0.13942,0.15572 -0.30361,0.27784 -0.52734,0.41602 -0.44123,0.27212 -1.11867,0.59686 -2.09766,1.01953 -1.71236,0.87991 -2.27638,1.81479 -2.27734,2.64062 -9.5e-4,0.82583 0.60348,1.71732 1.68359,2.42383 2.16021,1.4132 6.01674,1.91717 9.04688,-0.16992 0.64593,-0.54282 1.11349,-0.89167 1.49609,-1.08594 0.1962,-0.0998 0.37801,-0.17332 0.60938,-0.16992 0.23134,0.003 0.50661,0.16422 0.62305,0.35547 0.23289,0.38218 0.16089,0.69167 0.13281,1.05859 -0.028,0.36699 -0.0823,0.78093 -0.10352,1.21289 -0.0426,0.86385 0.0491,1.73868 0.58594,2.35742 0.5359,0.61762 1.60192,1.10454 3.82617,0.97657 16.25996,-2.43232 25.09942,-12.65008 31.75781,-20.98829 9.27206,-12.7364 11.84065,-27.79897 15.40821,-40.63281 0.0585,-0.21127 0.24712,-0.36202 0.46679,-0.37109 13.91426,-0.6957 30.18258,1.41175 42.07422,-3.00977 5.38233,-2.78683 7.76933,-8.983584 5.94141,-12.865235 -1.8305,-3.887131 -8.26743,-5.917769 -16.90039,-4.996094 h -0.008 c -10.66417,0.891515 -22.70739,1.874257 -33.56641,2.476563 -0.23872,0.01512 -0.45523,-0.137392 -0.51953,-0.367188 -1.10655,-4.132119 -2.20203,-9.381336 -4.55469,-13.638671 -2.35266,-4.257336 -5.87527,-7.518477 -12.05469,-7.869141 -0.5213,-0.03024 -1.04236,-0.0591 -1.55859,-0.07422 h -0.008 z m 144.09765,2.162109 v 0.01953 c 10e-4,0 1.0455,0.04102 1.04688,0.04102 10e-4,0 0.5178,0.242188 0.51953,0.242188 0.002,0 0.26531,0.23992 0.26758,0.242187 0.005,0.0038 0.20432,0.213343 0.25976,0.273438 0.24998,0.316724 0.31503,0.457877 0.39063,0.599609 0.0829,0.166677 0.1735,0.313219 0.26758,0.517578 0.18852,0.387666 0.41511,0.895734 0.74414,1.589844 0.0223,0.06236 0.0496,0.103653 0.0703,0.166016 2.23268,5.434053 3.17446,7.782599 3.5293,8.791015 0.0466,0.125103 0.10366,0.2088 0.16406,0.431641 0.0136,0.06236 0.0337,0.235762 0.0371,0.242187 0.002,0.0076 0.0684,0.626664 0.0684,0.63086 0,0.0021 -0.13672,0.956905 -0.13672,0.958984 -3.1e-4,0.0021 -1.33329,1.632813 -1.33399,1.632813 -4.9e-4,0 -1.60851,-0.08398 -1.60937,-0.08398 -8.3e-4,-0.0021 -0.55153,-0.367251 -0.55273,-0.36914 -0.003,-0.0021 -0.32645,-0.384389 -0.33008,-0.390625 -0.005,0 -0.0679,-0.124441 -0.0937,-0.166016 -0.0535,-0.104315 -0.10323,-0.146622 -0.13086,-0.208984 -0.0587,-0.104315 -0.0754,-0.23421 -0.12891,-0.357422 -0.21528,-0.452296 -0.54405,-1.133567 -0.91797,-1.990235 -0.74766,-1.711219 -1.74224,-4.043262 -2.51758,-5.927734 -0.38772,-0.942123 -0.72192,-1.738434 -0.95117,-2.347656 -0.11395,-0.304252 -0.20308,-0.529155 -0.29492,-0.841797 -0.0223,-0.08353 -0.033,-0.166359 -0.0606,-0.316406 -0.0136,-0.06236 -0.0337,-0.267391 -0.0371,-0.273438 -0.002,-0.0076 -0.0351,-0.593335 -0.0351,-0.599609 0,-0.0021 0.0937,-0.671712 0.0937,-0.673828 5e-4,-0.0021 0.49345,-1.04089 0.49414,-1.042969 7.4e-4,-0.0021 1.17652,-0.789063 1.17773,-0.789063 z m -43.43554,2.675782 h 0.004 c 0.0113,0.0024 0.57906,0.148437 0.58008,0.148437 0.001,0 0.34675,0.24496 0.34766,0.246094 0.002,0.0022 0.26955,0.392138 0.27148,0.396484 0.003,0.0038 0.0823,0.206413 0.0977,0.269531 0.0163,0.06539 0.028,0.09798 0.0351,0.142579 0.0132,0.07597 0.0132,0.134208 0.0215,0.1875 0.0132,0.117543 0.0296,0.235094 0.041,0.373047 0.0193,0.232818 0.0403,0.532403 0.0566,0.835937 0.6555,2.63263 2.86891,10.489372 3.89258,15.927734 0.25807,1.370419 0.44156,2.583179 0.50196,3.587891 0.0306,0.502564 0.0234,0.945372 -0.0391,1.394531 -0.0623,0.449273 -0.12999,1.006796 -0.73437,1.496094 -0.3021,0.244913 -0.75191,0.382113 -1.10547,0.349609 -0.3535,-0.03401 -0.61148,-0.156086 -0.83008,-0.291015 -0.4373,-0.270992 -0.75233,-0.617775 -1.10742,-1.060547 -0.71017,-0.885468 -1.54327,-2.205567 -2.63281,-4.191406 -0.11486,-0.215433 -0.17485,-0.459876 -0.17383,-0.708985 -0.0378,-3.316308 -0.22588,-12.5896 -0.4043,-16.033203 -0.0193,-0.06539 -0.028,-0.09768 -0.0566,-0.203125 -0.045,-0.153449 -0.0688,-0.243047 -0.11719,-0.455078 -0.0329,-0.136063 -0.0471,-0.277673 -0.041,-0.417969 0.0132,-0.287244 0.0238,-0.489242 0.0605,-0.708984 0.008,-0.05442 0.0174,-0.112288 0.0371,-0.1875 0.0193,-0.07635 0.1326,-0.321385 0.13672,-0.330078 0.002,-0.0038 0.25003,-0.370779 0.25196,-0.373047 10e-4,-0.0011 0.34663,-0.246094 0.34765,-0.246094 10e-4,-9.83e-4 0.54817,-0.146548 0.5586,-0.148437 z M 49.196711,71.412511 c 7.479023,0 13.323913,9.917648 13.054424,22.152313 -0.269491,12.234706 -9.586687,24.438676 -14.807861,24.438676 -5.221174,0 -12.545946,-12.20396 -12.27644,-24.438676 0.269505,-12.234664 6.550859,-22.152313 14.029877,-22.152313 z m 82.557199,27.911708 c 0.003,3.78e-4 0.14778,0.04574 0.15039,0.04687 0.003,0.0011 0.0754,0.04921 0.10351,0.07227 0.056,0.04649 0.0843,0.08878 0.10938,0.126953 0.0499,0.07521 0.0713,0.127279 0.0898,0.183594 0.0355,0.107339 0.0589,0.220477 0.0781,0.353514 0.2409,0.62744 0.25562,1.47066 0.23242,2.48047 -0.0246,1.07392 -0.13721,2.27062 -0.28125,3.25391 -0.072,0.4916 -0.14925,0.92668 -0.23633,1.27734 -0.0436,0.17537 -0.089,0.33254 -0.14062,0.46875 -0.0516,0.13606 -0.0913,0.25361 -0.23047,0.39844 -0.0696,0.0722 -0.1828,0.16469 -0.3711,0.18359 -0.18826,0.0189 -0.37829,-0.0807 -0.46679,-0.16992 -0.177,-0.17764 -0.18725,-0.31169 -0.22852,-0.47266 -0.0825,-0.32201 -0.13389,-0.77029 -0.17188,-1.45703 -9.2e-4,-0.0189 -9.2e-4,-0.0338 0,-0.0527 0.0231,-0.59267 0.14494,-2.14493 0.29688,-3.57813 0.0759,-0.7166 0.15823,-1.39528 0.24414,-1.9082 0.043,-0.25663 0.084,-0.4692 0.13477,-0.644531 0.0253,-0.08768 0.0506,-0.161435 0.10351,-0.257813 0.0265,-0.04838 0.0515,-0.107057 0.13281,-0.177734 0.0204,-0.0189 0.0434,-0.03384 0.0723,-0.05273 0.0287,-0.0189 0.10316,-0.04965 0.10547,-0.05078 0.005,-0.0038 0.2689,-0.02344 0.27344,-0.02344 z m 77.02929,22.748051 c 0.24677,-0.0189 0.4696,0.14671 0.52735,0.38671 0.42999,1.77041 0.10853,4.45028 -0.21485,5.91602 -0.0808,0.36624 -0.15673,0.64617 -0.25976,0.87109 -0.0257,0.0559 -0.0495,0.10643 -0.0957,0.16993 -0.0462,0.0635 -0.10952,0.15916 -0.29687,0.22265 -0.18735,0.0635 -0.47843,-0.0436 -0.57813,-0.15625 -0.0997,-0.11263 -0.1201,-0.19532 -0.14062,-0.26562 -0.0814,-0.28158 -0.073,-0.54981 -0.0586,-1.05078 0.0144,-0.49747 0.0606,-1.1812 0.14648,-2.0918 0.0287,-0.4944 0.0778,-1.23096 0.16211,-1.93164 0.0843,-0.70065 0.1717,-1.32453 0.39453,-1.78711 0.0784,-0.16025 0.23583,-0.26884 0.41406,-0.2832 z m -15.49414,28.01367 c 0.4888,0.0151 0.67404,0.64303 0.27149,0.91992 -2.10565,1.48237 -3.32095,2.28058 -3.95899,2.6543 -0.15949,0.0934 -0.28066,0.16533 -0.38672,0.21484 -0.053,0.0265 -0.10397,0.0397 -0.16992,0.0586 -0.0329,0.0113 -0.0719,0.0275 -0.13281,0.0312 -0.0306,0.004 -0.11045,-0.008 -0.11328,-0.008 -0.003,-3.8e-4 -0.18174,-0.0578 -0.1836,-0.0586 -0.002,-7.6e-4 -0.20022,-0.19771 -0.20117,-0.19922 -9.5e-4,-0.002 -0.0664,-0.24383 -0.0664,-0.2461 0,-0.002 0.0101,-0.12318 0.0215,-0.1621 0.0117,-0.0386 0.0274,-0.0672 0.0391,-0.0899 0.0466,-0.0933 0.0842,-0.1228 0.11914,-0.16211 0.0699,-0.0786 0.13897,-0.15204 0.23633,-0.23633 0.72544,-0.62789 2.56941,-1.87467 4.03516,-2.5 0.0961,-0.0673 0.0836,-0.0547 0.18359,-0.125 l 0.008,0.008 c 0.037,-0.0151 0.067,-0.0513 0.10352,-0.0664 0.0448,-0.0151 0.093,-0.0255 0.14063,-0.0293 h 0.002 c 0.0178,-0.002 0.0349,-0.002 0.0527,-0.002 z"
       transform="matrix(0.26458333,0,0,0.26458333,0,246.19998)"
       id="path896"
       inkscape:connector-curvature="0"
       sodipodi:nodetypes="cccccsccccccccccccccccccccsccccccccccccsszssscccccccccccccccccccccccccccccccccccccccccccccccccccccccccccccccccccccsccccccccccccccccccccsccccccccccscccccccccccccccccccccccccccccccccccccccccccscccccccccccccccccccccccccccccccccccccccccscsccscsccccccccccccccccccccccccccccccsccccsccccccsscccccccccscsccccccccccccscccccsccccccccccccccccccccccccccscssscsssssccccccccccccccccccccccccccccccccccccccccsccccccccccccccccccc" />
    <path
       style="color:#000000;clip-rule:nonzero;display:inline;overflow:visible;visibility:visible;opacity:1;isolation:auto;mix-blend-mode:normal;color-interpolation:sRGB;color-interpolation-filters:linearRGB;solid-color:#000000;solid-opacity:1;vector-effect:none;fill:#b7ff0d;fill-opacity:1;fill-rule:evenodd;stroke:none;stroke-width:2.1387701;stroke-linecap:round;stroke-linejoin:round;stroke-miterlimit:4;stroke-dasharray:none;stroke-dashoffset:0;stroke-opacity:1;marker:none;color-rendering:auto;image-rendering:auto;shape-rendering:auto;text-rendering:auto;enable-background:accumulate"
       d="m 69.52428,268.69293 c -8.184262,0.60539 -16.694255,0.45316 -24.653573,1.65776 -1.90341,1.28142 0.794029,3.25845 3.139568,2.91126 7.900165,-0.26027 15.880525,0.82044 23.762783,0.26374 2.774116,-0.89495 2.880847,-5.24674 -1.236638,-4.89725 l -0.581365,0.0371 z"
       id="path823"
       inkscape:connector-curvature="0"
       sodipodi:nodetypes="ccccccc" />
    <path
       style="color:#000000;font-style:normal;font-variant:normal;font-weight:normal;font-stretch:normal;font-size:medium;line-height:normal;font-family:sans-serif;font-variant-ligatures:normal;font-variant-position:normal;font-variant-caps:normal;font-variant-numeric:normal;font-variant-alternates:normal;font-feature-settings:normal;text-indent:0;text-align:start;text-decoration:none;text-decoration-line:none;text-decoration-style:solid;text-decoration-color:#000000;letter-spacing:normal;word-spacing:normal;text-transform:none;writing-mode:lr-tb;direction:ltr;text-orientation:mixed;dominant-baseline:auto;baseline-shift:baseline;text-anchor:start;white-space:normal;shape-padding:0;clip-rule:nonzero;display:inline;overflow:visible;visibility:visible;opacity:1;isolation:auto;mix-blend-mode:normal;color-interpolation:sRGB;color-interpolation-filters:linearRGB;solid-color:#000000;solid-opacity:1;vector-effect:none;fill:#a9f000;fill-opacity:1;fill-rule:evenodd;stroke:none;stroke-width:2.1387701;stroke-linecap:round;stroke-linejoin:round;stroke-miterlimit:4;stroke-dasharray:none;stroke-dashoffset:0;stroke-opacity:1;marker:none;color-rendering:auto;image-rendering:auto;shape-rendering:auto;text-rendering:auto;enable-background:accumulate"
       d="m 56.095348,263.93612 c -3.701485,0.23376 -3.816243,4.61207 -3.596874,5.42908 0.777754,3.67405 0.667618,7.43326 -0.647074,11.03073 -1.001114,2.45368 -2.882174,4.83082 -5.955846,6.65464 2.713315,-0.33916 4.274149,-3.18052 6.622843,-2.72712 0.571271,1.95669 -3.495937,2.74018 -5.293152,3.99049 -1.287242,0.60166 -0.788037,1.62602 0.649189,0.60011 3.635202,-2.06101 7.449944,-4.87149 6.563598,-7.91845 1.328757,-1.2447 1.145509,-1.60743 1.477672,-2.50072 -0.148584,2.22776 -1.178698,2.06161 -0.528691,3.95074 -0.04801,2.07758 -1.028742,4.17905 -3.634583,5.62497 -1.125215,0.52278 -3.322244,2.99477 -0.166461,1.82244 5.496311,-2.4977 7.140706,-6.67581 8.282276,-10.45652 1.265138,-4.60722 3.130239,-10.14395 0.167486,-14.02402 -0.667358,-0.87398 -2.405457,-1.5733 -3.940383,-1.47637 z"
       id="path817"
       inkscape:connector-curvature="0"
       sodipodi:nodetypes="sccccccccccccss" />
    <path
       style="color:#000000;font-style:normal;font-variant:normal;font-weight:normal;font-stretch:normal;font-size:medium;line-height:normal;font-family:sans-serif;font-variant-ligatures:normal;font-variant-position:normal;font-variant-caps:normal;font-variant-numeric:normal;font-variant-alternates:normal;font-feature-settings:normal;text-indent:0;text-align:start;text-decoration:none;text-decoration-line:none;text-decoration-style:solid;text-decoration-color:#000000;letter-spacing:normal;word-spacing:normal;text-transform:none;writing-mode:lr-tb;direction:ltr;text-orientation:mixed;dominant-baseline:auto;baseline-shift:baseline;text-anchor:start;white-space:normal;shape-padding:0;clip-rule:nonzero;display:inline;overflow:visible;visibility:visible;opacity:1;isolation:auto;mix-blend-mode:normal;color-interpolation:sRGB;color-interpolation-filters:linearRGB;solid-color:#000000;solid-opacity:1;vector-effect:none;fill:url(#linearGradient1663);fill-opacity:1;fill-rule:evenodd;stroke:none;stroke-width:2.1387701;stroke-linecap:round;stroke-linejoin:round;stroke-miterlimit:4;stroke-dasharray:none;stroke-dashoffset:0;stroke-opacity:1;marker:none;color-rendering:auto;image-rendering:auto;shape-rendering:auto;text-rendering:auto;enable-background:accumulate"
       d="m 56.691216,265.5805 c -0.116338,-0.009 -0.221217,-0.003 -0.221217,-0.003 0,0 0.390254,0.18385 0.292483,0.31879 -0.09777,0.13493 -0.997324,-0.16947 -0.968629,-0.33139 -0.237475,0.1276 0.151613,0.35838 0.151613,0.35838 -0.620929,-0.26623 -1.003068,-0.006 -1.360046,0.20859 -0.35698,0.21465 -0.537937,0.0417 -0.537937,0.0417 0,0 0.149107,0.42802 0.381174,0.46361 -0.138055,0.64644 -0.398685,0.77289 -0.398685,0.77289 l 0.582836,0.007 c 0,0 0.102668,0.42565 0.0041,0.58389 -0.05607,0.09 0.153347,0.0466 0.325511,0.0534 0.08167,0.6102 0.451752,1.40825 0.676507,1.38979 0.379498,-0.0312 -0.0052,0.64991 -0.77581,1.05403 h -5.29e-4 c -0.688679,0.0457 -0.467254,0.0724 -0.574085,0.1576 0.186082,2.03803 0.874314,2.54152 0.637567,3.88763 -0.236747,1.34611 -0.805086,1.34582 -0.86159,2.69195 -0.02718,0.64743 -0.780343,1.83644 -1.119322,2.85475 -0.244622,0.73485 -0.294363,3.54407 -0.618787,3.95506 -0.625055,0.79183 -2.184766,2.37558 -0.836379,2.13803 1.348392,-0.23755 3.333859,-3.45815 2.942277,-4.96262 0.665949,-0.39593 1.824125,-3.66864 1.824125,-3.66864 0,0 -0.336882,7.60165 -0.916193,9.10613 -0.579311,1.50448 1.885511,-0.63338 1.829988,-1.34602 -0.05549,-0.71265 1.958693,-7.13047 1.971115,-7.48258 0.02375,-0.67305 1.18e-4,-2.61305 -0.423654,-3.16732 0.07926,-0.55428 0.740732,-2.08153 0.855005,-4.04408 -0.05006,-0.10081 -0.539705,-0.55683 -1.394438,-0.57911 -0.812641,-1.03283 -0.435785,-0.94459 -0.46821,-1.51015 0.04941,0.0371 0.105188,0.0698 0.171905,0.0868 0.231291,0.0589 0.662758,-0.29192 0.662758,-0.29192 0,0 -0.424454,0.1412 -0.512953,-0.004 0.04183,-0.55818 0.122504,-0.88094 0.359204,-0.9852 0.236699,-0.10426 -0.0026,-0.63038 -0.0026,-0.63038 0,0 -0.03339,0.30161 -0.149807,0.29547 -0.116416,-0.006 -0.297991,-0.85625 0.04508,-0.65138 -0.293412,-0.29564 -0.70775,-0.45759 -1.013528,-0.38032 -0.305776,0.0773 -0.180996,-0.17267 -0.270267,-0.29411 -0.04464,-0.0607 -0.172315,-0.0853 -0.288637,-0.0943 z"
       id="path1044"
       inkscape:connector-curvature="0"
       sodipodi:nodetypes="ccscccccccccscccssscccccsscccccccscsccccc" />
    <path
       style="color:#000000;clip-rule:nonzero;display:inline;overflow:visible;visibility:visible;opacity:1;isolation:auto;mix-blend-mode:normal;color-interpolation:sRGB;color-interpolation-filters:linearRGB;solid-color:#000000;solid-opacity:1;vector-effect:none;fill:#fefffd;fill-opacity:1;fill-rule:evenodd;stroke:none;stroke-width:8.08354092;stroke-linecap:round;stroke-linejoin:round;stroke-miterlimit:4;stroke-dasharray:none;stroke-dashoffset:0;stroke-opacity:1;marker:none;color-rendering:auto;image-rendering:auto;shape-rendering:auto;text-rendering:auto;enable-background:accumulate"
       d="m 251.9056,90.890142 c -1.13948,-0.265271 -6.1309,-0.335459 -6.1309,-0.335459 -7.60275,-0.684444 -16.94706,-1.832601 -23.51132,-2.425877 -8.75269,0.387003 -14.24561,0.444908 -24.57485,1.886405 -6.77167,0.945021 -13.47003,1.920007 -20.03829,2.947118 -5.67422,1.550774 2.55328,1.856148 9.60583,0.758498 3.66634,-0.477077 7.54706,-0.361199 11.24834,-0.52944 3.39303,-0.15423 6.78924,-0.297039 10.187,-0.435528 0.29809,0.685281 2.12122,1.643577 2.41406,2.78711 0.55014,2.148359 2.53764,3.890625 4.43945,3.890625 1.90182,0 2.99936,-1.742266 2.44922,-3.890625 -0.32356,-1.263538 1.79897,-2.361091 1.36957,-3.090542 13.57396,-0.52684 18.47162,-0.447447 31.92531,0.773605 7.40942,0.266696 7.28133,-0.784334 0.61658,-2.33589 z"
       transform="matrix(0.26458333,0,0,0.26458333,0,246.19998)"
       id="path1042"
       inkscape:connector-curvature="0"
       sodipodi:nodetypes="sccsccsccssccs" />
    <path
       style="color:#000000;font-style:normal;font-variant:normal;font-weight:normal;font-stretch:normal;font-size:medium;line-height:normal;font-family:sans-serif;font-variant-ligatures:normal;font-variant-position:normal;font-variant-caps:normal;font-variant-numeric:normal;font-variant-alternates:normal;font-feature-settings:normal;text-indent:0;text-align:start;text-decoration:none;text-decoration-line:none;text-decoration-style:solid;text-decoration-color:#000000;letter-spacing:normal;word-spacing:normal;text-transform:none;writing-mode:lr-tb;direction:ltr;text-orientation:mixed;dominant-baseline:auto;baseline-shift:baseline;text-anchor:start;white-space:normal;shape-padding:0;clip-rule:nonzero;display:inline;overflow:visible;visibility:visible;opacity:1;isolation:auto;mix-blend-mode:normal;color-interpolation:sRGB;color-interpolation-filters:linearRGB;solid-color:#000000;solid-opacity:1;vector-effect:none;fill:#a9f000;fill-opacity:1;fill-rule:evenodd;stroke:none;stroke-width:2.1387701;stroke-linecap:round;stroke-linejoin:round;stroke-miterlimit:4;stroke-dasharray:none;stroke-dashoffset:0;stroke-opacity:1;marker:none;color-rendering:auto;image-rendering:auto;shape-rendering:auto;text-rendering:auto;enable-background:accumulate"
       d="m 83.904544,256.78481 c -1.010887,4.03974 1.323311,8.00912 2.056042,11.99639 -1.089738,1.85401 -3.497171,-0.1997 -2.82545,-1.24812 -0.411625,-2.98198 -1.892144,-5.90965 -1.698583,-8.91755 -3.26214,-0.0177 -0.583921,2.76832 -0.8476,3.89299 0.889033,4.74846 0.606606,9.57761 -0.947542,14.28169 -1.154252,3.26015 -3.149524,6.46137 -6.298886,9.3498 -2.554277,1.07478 -8.540164,0.82916 -8.302821,3.06296 1.277219,1.61747 2.08863,3.65338 4.980742,4.6875 4.433472,1.26786 4.066961,-1.91069 5.891501,-3.09789 4.204866,-3.01991 9.274837,-6.08898 9.874699,-9.97788 2.086737,-1.73322 7.000217,-0.10886 9.318015,-1.74165 3.03773,-1.97792 4.814141,-4.45378 5.634439,-6.94231 1.05992,-3.37233 0.29231,-6.86034 -1.757738,-10.09225 -2.594275,-1.64178 -4.073748,0.92842 -2.292317,1.91927 0.450605,0.94823 2.722896,3.08586 -0.348823,3.30466 -1.541967,-1.35939 -1.874603,-4.56303 -3.025403,-4.95309 -0.437971,3.18731 0.884645,6.36222 0.419539,9.54938 1.524647,1.62666 -2.137108,4.55835 -5.129767,3.88148 -0.706791,-1.58386 0.374364,-3.24707 0.177391,-4.87015 0.272843,-2.73769 0.428343,-5.49855 -0.327067,-8.22023 -4.205288,0.13115 -2.000527,-2.7086 -2.168655,-4.00667 -0.0013,-0.76944 -0.442584,-1.94014 -2.381716,-1.85833 z m 9.62155,7.73547 z"
       id="ellipse819"
       inkscape:connector-curvature="0"
       sodipodi:nodetypes="ccccccccccccccccccccccccc" />
    <path
       style="color:#000000;clip-rule:nonzero;display:inline;overflow:visible;visibility:visible;opacity:1;isolation:auto;mix-blend-mode:normal;color-interpolation:sRGB;color-interpolation-filters:linearRGB;solid-color:#000000;solid-opacity:1;vector-effect:none;fill:url(#radialGradient864-2);fill-opacity:1;fill-rule:evenodd;stroke:none;stroke-width:1.4190141;stroke-linecap:round;stroke-linejoin:round;stroke-miterlimit:4;stroke-dasharray:none;stroke-dashoffset:0;stroke-opacity:0.33936654;marker:none;color-rendering:auto;image-rendering:auto;shape-rendering:auto;text-rendering:auto;enable-background:accumulate;font-variant-east_asian:normal"
       d="m 16.640562,270.94142 c -0.07469,3.39085 -2.725877,6.70523 -4.135184,6.70523 -1.409306,0 -3.4458164,-3.31438 -3.3711217,-6.70523 0.074693,-3.39084 1.8155867,-6.13967 3.8883957,-6.13967 2.072811,0 3.692605,2.74883 3.61791,6.13967 z"
       id="path856"
       inkscape:connector-curvature="0"
       sodipodi:nodetypes="szsss" />
    <path
       style="color:#000000;clip-rule:nonzero;display:inline;overflow:visible;visibility:visible;opacity:1;isolation:auto;mix-blend-mode:normal;color-interpolation:sRGB;color-interpolation-filters:linearRGB;solid-color:#000000;solid-opacity:1;vector-effect:none;fill:url(#radialGradient908);fill-opacity:1;fill-rule:evenodd;stroke:none;stroke-width:3.17197609;stroke-linecap:round;stroke-linejoin:round;stroke-miterlimit:4;stroke-dasharray:none;stroke-dashoffset:0;stroke-opacity:1;marker:none;color-rendering:auto;image-rendering:auto;shape-rendering:auto;text-rendering:auto;enable-background:accumulate"
       d="m 12.972923,263.65262 c -2.609611,0.0645 -5.1588016,3.27367 -4.73552,8.11467 0.3380061,3.86572 1.750682,4.73119 2.582146,6.92398 0.644772,1.6873 0.497961,8.799 0.581935,13.17109 h 0.995443 c 0.369245,-4.37682 0.690535,-11.48745 1.644317,-13.06864 1.289301,-2.03262 2.847857,-3.85606 3.240548,-6.54599 0.693095,-4.7477 -1.341895,-8.44726 -4.055689,-8.5914 -0.08481,-0.004 -0.168998,-0.006 -0.25318,-0.004 z m 0.01296,1.21725 c 2.040258,0 3.634769,2.71997 3.561247,6.07513 -0.07352,3.35516 -2.615211,6.70154 -4.039534,6.70154 -1.424323,0 -3.422616,-3.34638 -3.349094,-6.70154 0.07352,-3.35516 1.787124,-6.07513 3.827381,-6.07513 z"
       id="path1005"
       inkscape:connector-curvature="0"
       sodipodi:nodetypes="csccccscccscsss" />
    <path
       style="color:#000000;font-style:normal;font-variant:normal;font-weight:normal;font-stretch:normal;font-size:medium;line-height:normal;font-family:sans-serif;font-variant-ligatures:normal;font-variant-position:normal;font-variant-caps:normal;font-variant-numeric:normal;font-variant-alternates:normal;font-feature-settings:normal;text-indent:0;text-align:start;text-decoration:none;text-decoration-line:none;text-decoration-style:solid;text-decoration-color:#000000;letter-spacing:normal;word-spacing:normal;text-transform:none;writing-mode:lr-tb;direction:ltr;text-orientation:mixed;dominant-baseline:auto;baseline-shift:baseline;text-anchor:start;white-space:normal;shape-padding:0;clip-rule:nonzero;display:inline;overflow:visible;visibility:visible;opacity:1;isolation:auto;mix-blend-mode:normal;color-interpolation:sRGB;color-interpolation-filters:linearRGB;solid-color:#000000;solid-opacity:1;vector-effect:none;fill:#a9f000;fill-opacity:1;fill-rule:evenodd;stroke:none;stroke-width:2.13876987;stroke-linecap:round;stroke-linejoin:round;stroke-miterlimit:4;stroke-dasharray:none;stroke-dashoffset:0;stroke-opacity:1;marker:none;color-rendering:auto;image-rendering:auto;shape-rendering:auto;text-rendering:auto;enable-background:accumulate"
       d="m 10.894586,246.20016 c 3.368574,1.47583 9.544678,2.83821 13.411492,2.78488 -3.231789,-1.67196 -8.464257,-2.78581 -13.411492,-2.78488 z m -6.9859171,0.71612 c 0.8756694,2.11192 8.2424041,0.51947 10.5698351,2.30711 -0.689031,-1.13186 -7.9101012,-1.38767 -10.5698351,-2.30711 z m -2.4438023,1.87871 c -0.82163743,3.05801 14.6815564,1.27421 5.8155694,0.27127 -1.931685,-0.12116 -3.9175554,-0.0372 -5.8155694,-0.27127 z m 18.6667184,1.04791 c 5.798359,2.18319 10.862291,4.96073 11.464873,8.49743 0.107779,1.8465 5.056627,5.12781 1.374941,6.10007 -3.039239,-2.29621 -2.802139,-5.40082 -4.994488,-7.96285 -1.217368,-2.23633 -4.94051,-4.89271 -10.213551,-4.96245 9.541695,4.2138 11.548137,10.58037 12.828476,16.31164 -0.308271,2.99509 1.296447,5.99878 0.37518,8.95026 -1.853745,2.19457 -3.986321,4.30991 -5.370209,6.59378 -2.01704,2.32101 -4.62199,4.93049 -9.596526,6.16696 -1.827901,0.41339 -2.920461,-0.0808 -3.803089,-0.20279 -0.391431,-0.0541 -0.824149,-0.15604 -0.831337,-0.51069 -0.0096,-0.47905 2.073643,-1.00363 2.074021,-1.96894 2.46e-4,-0.62904 -0.776328,-0.914 -1.585476,-1.19815 -0.74266,-0.2608 1.155857,-0.67463 1.343633,-1.30166 0.280924,-0.93809 -0.75152,-0.74788 -1.050506,-1.3935 -0.36793,-0.79449 0.675856,-1.67284 0.773574,-1.9371 0.09773,-0.26427 -0.491434,-1.10084 -0.468571,-1.38925 0.04171,-0.52612 0.174779,-0.3472 0.256958,-1.06968 -0.176936,0.62804 -0.512719,0.84082 -0.341711,1.41739 0.171008,0.57658 0.568327,0.833 0.117682,1.44871 -0.596974,0.81565 -0.877794,1.21973 -0.631059,1.62602 0.22135,0.36447 0.879633,0.31273 1.026213,1.05747 0.146578,0.74472 -1.783192,1.12896 -1.75876,1.44127 0.02443,0.31231 1.636601,0.5527 1.85647,1.10524 0.219868,0.55256 -1.084093,1.15528 -1.490467,1.28308 -1.302547,0.40963 -0.5619,2.04022 -0.560881,2.20996 0.01707,2.8459 -3.0691569,3.81878 2.247305,4.02018 0.640881,-0.0345 1.269071,-0.0878 1.884001,-0.15766 0.03206,0.0117 0.06432,0.0227 0.09608,0.0356 1.669504,0.16847 3.599813,-0.0531 5.013924,-0.23622 0.832855,-0.4287 2.01677,-0.33445 2.444341,-0.96617 0.307097,0.16607 1.327771,-0.57632 1.506122,-0.82601 0.560302,-0.26696 0.972021,-0.78562 1.605449,-1.12011 0.108255,-0.0876 0.203715,-0.16082 0.293666,-0.22773 1.21764,-0.62481 2.324752,-1.28561 3.317246,-1.94241 7.538072,-5.7116 9.815995,-12.55172 9.946335,-19.11935 1.173773,-3.26881 -3.185253,-5.78218 -4.603656,-8.83664 -1.697011,-3.07662 -3.916646,-6.19972 -7.79674,-8.86319 -1.608007,-1.08539 -4.059131,-1.69188 -6.749472,-2.07247 z m 13.184764,17.27621 c 3.510953,2.03097 3.515756,5.90928 1.751742,7.68787 -3.801577,-1.47049 0.269123,-4.56672 -2.705618,-6.59112 -0.02645,-0.40298 0.300916,-0.81625 0.953876,-1.09675 z"
       id="path815"
       inkscape:connector-curvature="0"
       sodipodi:nodetypes="ccccccccccccccccccsssssssscsssssssccccccccccccccccccc" />
    <path
       inkscape:connector-curvature="0"
       id="path1098"
       d="m 34.917535,265.51274 c -1.050827,0.33622 -3.554753,0.26542 -2.01472,0.89425 1.543964,-0.16824 3.087497,0.81231 3.418263,0.96717 -0.383405,-0.57683 -0.704347,-1.47867 -1.403543,-1.86142 z m 63.617808,2.97829 c -1.108945,0.58849 -3.528143,-0.15536 -2.525835,1.12418 0.25723,2.51409 1.202936,5.75312 -3.624099,7.3188 -2.464475,1.0235 -6.533613,0.40474 -6.518156,-1.40542 -0.62434,-1.487 0.880809,-3.3793 0.285605,-4.59966 -1.213167,0.6194 -3.814179,-0.62449 -3.054317,0.79764 -0.813326,5.56643 -2.484444,11.59266 -9.277421,16.06917 -1.809137,0.78668 -5.640037,0.43188 -6.356471,1.69761 1.044049,1.19459 1.492533,3.19143 4.014985,3.5647 1.309751,-1.99239 3.361817,-3.7474 6.061425,-5.30483 3.34106,-2.22248 5.228961,-4.84037 6.345846,-7.52698 2.153237,-1.8727 7.292877,-0.51937 9.794345,-1.93921 3.54659,-2.86128 5.459273,-6.54472 4.854093,-9.796 z m -64.909067,7.64444 c -1.101254,3.27174 -5.017215,6.20519 -6.978159,9.3158 -2.38612,2.6931 -6.669298,5.34445 -13.237957,5.99174 -1.2854,0.33044 -3.210559,1.91962 -0.407027,1.81339 3.553428,0.1502 7.770731,-0.10398 9.171512,-1.81686 6.183433,-3.50787 10.491278,-7.62492 12.254588,-12.05297 0.281593,-1.00319 1.363008,-2.47656 0.924677,-3.22564 -0.523771,0.11744 -1.45386,-0.10754 -1.727634,-0.0255 z m 59.433014,-1.70356 c 0.138641,-0.002 -0.09302,-0.0668 0,0 z"
       style="color:#000000;font-style:normal;font-variant:normal;font-weight:normal;font-stretch:normal;font-size:medium;line-height:normal;font-family:sans-serif;font-variant-ligatures:normal;font-variant-position:normal;font-variant-caps:normal;font-variant-numeric:normal;font-variant-alternates:normal;font-feature-settings:normal;text-indent:0;text-align:start;text-decoration:none;text-decoration-line:none;text-decoration-style:solid;text-decoration-color:#000000;letter-spacing:normal;word-spacing:normal;text-transform:none;writing-mode:lr-tb;direction:ltr;text-orientation:mixed;dominant-baseline:auto;baseline-shift:baseline;text-anchor:start;white-space:normal;shape-padding:0;clip-rule:nonzero;display:inline;overflow:visible;visibility:visible;opacity:1;isolation:auto;mix-blend-mode:normal;color-interpolation:sRGB;color-interpolation-filters:linearRGB;solid-color:#000000;solid-opacity:1;vector-effect:none;fill:url(#linearGradient1058);fill-opacity:1;fill-rule:evenodd;stroke:none;stroke-width:2.1387701;stroke-linecap:round;stroke-linejoin:round;stroke-miterlimit:4;stroke-dasharray:none;stroke-dashoffset:0;stroke-opacity:1;marker:none;color-rendering:auto;image-rendering:auto;shape-rendering:auto;text-rendering:auto;enable-background:accumulate"
       sodipodi:nodetypes="cccccccccccccccccccccccccccc" />
    <path
       sodipodi:nodetypes="ssss"
       inkscape:connector-curvature="0"
       id="path890"
       d="m 12.47341,267.30369 c -0.388687,0.0114 -1.337113,0.0168 -1.576183,0.25532 -1.4707578,1.46736 -0.271191,6.70892 0.234129,8.62798 0.659016,2.50276 3.666746,-8.9513 1.342054,-8.8833 z"
       style="color:#000000;font-style:normal;font-variant:normal;font-weight:normal;font-stretch:normal;font-size:medium;line-height:normal;font-family:sans-serif;font-variant-ligatures:normal;font-variant-position:normal;font-variant-caps:normal;font-variant-numeric:normal;font-variant-alternates:normal;font-feature-settings:normal;text-indent:0;text-align:start;text-decoration:none;text-decoration-line:none;text-decoration-style:solid;text-decoration-color:#000000;letter-spacing:normal;word-spacing:normal;text-transform:none;writing-mode:lr-tb;direction:ltr;text-orientation:mixed;dominant-baseline:auto;baseline-shift:baseline;text-anchor:start;white-space:normal;shape-padding:0;clip-rule:nonzero;display:inline;overflow:visible;visibility:visible;opacity:1;isolation:auto;mix-blend-mode:normal;color-interpolation:sRGB;color-interpolation-filters:linearRGB;solid-color:#000000;solid-opacity:1;vector-effect:none;fill:url(#linearGradient906);fill-opacity:1;fill-rule:evenodd;stroke:none;stroke-width:3.17197633;stroke-linecap:round;stroke-linejoin:round;stroke-miterlimit:4;stroke-dasharray:none;stroke-dashoffset:0;stroke-opacity:1;marker:none;color-rendering:auto;image-rendering:auto;shape-rendering:auto;text-rendering:auto;enable-background:accumulate" />
    <path
       style="color:#000000;clip-rule:nonzero;display:inline;overflow:visible;visibility:visible;opacity:1;isolation:auto;mix-blend-mode:normal;color-interpolation:sRGB;color-interpolation-filters:linearRGB;solid-color:#000000;solid-opacity:1;vector-effect:none;fill:#ffffff;fill-opacity:1;fill-rule:evenodd;stroke:none;stroke-width:3.29269481;stroke-linecap:round;stroke-linejoin:round;stroke-miterlimit:4;stroke-dasharray:none;stroke-dashoffset:0;stroke-opacity:0.33936654;marker:none;color-rendering:auto;image-rendering:auto;shape-rendering:auto;text-rendering:auto;enable-background:accumulate"
       d="m 11.882459,267.46083 c 0.575244,0 1.009848,0.12123 0.974453,0.2718 l -0.31881,1.35619 c -0.0354,0.15059 -0.527,0.2718 -1.102243,0.2718 -0.575245,0 -1.009853,-0.12121 -0.974453,-0.2718 l 0.318809,-1.35619 c 0.0354,-0.15057 0.527,-0.2718 1.102244,-0.2718 z"
       id="rect2736"
       inkscape:connector-curvature="0"
       sodipodi:nodetypes="sssssss" />
  </g>
</svg>
